<?xml version="1.0" encoding="UTF-8" standalone="no"?>
<!-- Created with Inkscape (http://www.inkscape.org/) -->

<svg
   xmlns:ns0="http://www.iki.fi/pav/software/textext/"
   xmlns:dc="http://purl.org/dc/elements/1.1/"
   xmlns:cc="http://creativecommons.org/ns#"
   xmlns:rdf="http://www.w3.org/1999/02/22-rdf-syntax-ns#"
   xmlns:svg="http://www.w3.org/2000/svg"
   xmlns="http://www.w3.org/2000/svg"
   xmlns:xlink="http://www.w3.org/1999/xlink"
   xmlns:sodipodi="http://sodipodi.sourceforge.net/DTD/sodipodi-0.dtd"
   xmlns:inkscape="http://www.inkscape.org/namespaces/inkscape"
   width="210mm"
   height="297mm"
   viewBox="0 0 210 297"
   version="1.1"
   id="svg8"
   inkscape:version="0.92.0 r"
   sodipodi:docname="3rdOrderNodeOr.svg">
  <sodipodi:namedview
     id="base"
     pagecolor="#ffffff"
     bordercolor="#666666"
     borderopacity="1.0"
     inkscape:pageopacity="0.0"
     inkscape:pageshadow="2"
     inkscape:zoom="0.90509668"
     inkscape:cx="319.94767"
     inkscape:cy="722.07619"
     inkscape:document-units="mm"
     inkscape:current-layer="layer1"
     showgrid="false"
     inkscape:snap-bbox="true"
     inkscape:bbox-paths="true"
     inkscape:bbox-nodes="true"
     inkscape:snap-bbox-edge-midpoints="true"
     inkscape:snap-bbox-midpoints="true"
     inkscape:snap-intersection-paths="true"
     inkscape:object-paths="true"
     inkscape:snap-smooth-nodes="true"
     inkscape:snap-midpoints="true"
     inkscape:snap-object-midpoints="true"
     inkscape:snap-center="true"
     inkscape:snap-global="false"
     inkscape:window-width="1276"
     inkscape:window-height="755"
     inkscape:window-x="5"
     inkscape:window-y="0"
     inkscape:window-maximized="0" />
  <defs
     id="defs2" />
  <metadata
     id="metadata5">
    <rdf:RDF>
      <cc:Work
         rdf:about="">
        <dc:format>image/svg+xml</dc:format>
        <dc:type
           rdf:resource="http://purl.org/dc/dcmitype/StillImage" />
        <dc:title></dc:title>
      </cc:Work>
    </rdf:RDF>
  </metadata>
  <g
     inkscape:label="Layer 1"
     inkscape:groupmode="layer"
     id="layer1">
    <circle
       style="opacity:1;fill:none;fill-opacity:1;stroke:#010001;stroke-width:1;stroke-miterlimit:4;stroke-dasharray:none;stroke-dashoffset:0;stroke-opacity:1"
       id="path4485"
       cx="22.740324"
       cy="92.87822"
       r="2.4930344" />
    <path
       style="color:#000000;clip-rule:nonzero;display:inline;overflow:visible;visibility:visible;opacity:1;isolation:auto;mix-blend-mode:normal;color-interpolation:sRGB;color-interpolation-filters:linearRGB;solid-color:#000000;solid-opacity:1;fill:#0000ff;fill-opacity:1;fill-rule:evenodd;stroke:#000000;stroke-width:0.54021275;stroke-linecap:butt;stroke-linejoin:miter;stroke-miterlimit:4;stroke-dasharray:none;stroke-dashoffset:0;stroke-opacity:1;color-rendering:auto;image-rendering:auto;shape-rendering:auto;text-rendering:auto;enable-background:accumulate"
       d="M 118.26958,92.89286 H 160.6714"
       id="path4489"
       inkscape:connector-curvature="0" />
    <circle
       r="2.4930344"
       cy="92.87822"
       cx="162.96904"
       id="circle4491"
       style="opacity:1;fill:none;fill-opacity:1;stroke:#010001;stroke-width:1;stroke-miterlimit:4;stroke-dasharray:none;stroke-dashoffset:0;stroke-opacity:1" />
    <g
       transform="matrix(1.1859916,0,0,1.1859916,-245.49736,-48.169546)"
       ns0:text="0"
       ns0:preamble="/Users/ignathanas/Downloads/preamble (1).tex"
       id="g4514">
      <defs
         id="defs4507">
        <g
           id="g4505">
          <symbol
             style="overflow:visible"
             overflow="visible"
             id="textext-12000d8a-0">
            <path
               inkscape:connector-curvature="0"
               style="stroke:none"
               d=""
               id="path4499" />
          </symbol>
          <symbol
             style="overflow:visible"
             overflow="visible"
             id="textext-12000d8a-1">
            <path
               inkscape:connector-curvature="0"
               style="stroke:none"
               d="m 2.734375,-7.0625 c -0.65625,0 -1.25,0.28125 -1.625,0.765625 -0.453125,0.625 -0.6875,1.578125 -0.6875,2.875 0,2.390625 0.796875,3.65625 2.3125,3.65625 1.5,0 2.3125,-1.265625 2.3125,-3.59375 0,-1.375 -0.21875,-2.296875 -0.6875,-2.9375 C 4,-6.78125 3.40625,-7.0625 2.734375,-7.0625 Z m 0,0.765625 c 0.953125,0 1.421875,0.96875 1.421875,2.859375 0,2 -0.453125,2.9375 -1.4375,2.9375 -0.921875,0 -1.390625,-0.96875 -1.390625,-2.90625 0,-1.9375 0.46875,-2.890625 1.40625,-2.890625 z m 0,0"
               id="path4502" />
          </symbol>
        </g>
      </defs>
      <g
         id="textext-12000d8a-2">
        <g
           style="fill:#000000;fill-opacity:1"
           id="g4511">
          <use
             height="100%"
             width="100%"
             xlink:href="#textext-12000d8a-1"
             x="223.43201"
             y="134.765"
             id="use4509" />
        </g>
      </g>
    </g>
    <g
       id="g4585"
       transform="matrix(1.1859916,0,0,1.1859916,-197.51821,-47.705037)"
       ns0:preamble="/Users/ignathanas/Downloads/preamble (1).tex"
       ns0:text="1">
      <defs
         id="defs4578">
        <g
           id="g4576">
          <symbol
             id="textext-aebf91a3-0"
             overflow="visible"
             style="overflow:visible">
            <path
               id="path4570"
               d=""
               style="stroke:none"
               inkscape:connector-curvature="0" />
          </symbol>
          <symbol
             id="textext-aebf91a3-1"
             overflow="visible"
             style="overflow:visible">
            <path
               id="path4573"
               d="M 2.578125,-5.03125 V 0 h 0.875 V -7.0625 H 2.875 c -0.296875,1.078125 -0.5,1.234375 -1.859375,1.40625 v 0.625 z m 0,0"
               style="stroke:none"
               inkscape:connector-curvature="0" />
          </symbol>
        </g>
      </defs>
      <g
         id="textext-aebf91a3-2">
        <g
           id="g4582"
           style="fill:#000000;fill-opacity:1">
          <use
             id="use4580"
             y="134.765"
             x="223.43201"
             xlink:href="#textext-aebf91a3-1"
             width="100%"
             height="100%" />
        </g>
      </g>
    </g>
    <path
       inkscape:connector-curvature="0"
       id="path4617"
       d="m 23.178572,55.095241 c 34.70281,30.070831 60.707671,59.689789 92.097968,37.865521"
       style="color:#000000;clip-rule:nonzero;display:inline;overflow:visible;visibility:visible;opacity:1;isolation:auto;mix-blend-mode:normal;color-interpolation:sRGB;color-interpolation-filters:linearRGB;solid-color:#000000;solid-opacity:1;fill:none;fill-opacity:1;fill-rule:evenodd;stroke:#000000;stroke-width:0.5;stroke-linecap:butt;stroke-linejoin:miter;stroke-miterlimit:4;stroke-dasharray:none;stroke-dashoffset:0;stroke-opacity:1;color-rendering:auto;image-rendering:auto;shape-rendering:auto;text-rendering:auto;enable-background:accumulate"
       sodipodi:nodetypes="cc" />
    <g
       ns0:text="$N_0$"
       ns0:preamble="/Users/ignathanas/Downloads/preamble (1).tex"
       transform="matrix(1.1859916,0,0,1.1859916,-246.12366,-111.98179)"
       id="g4694">
      <defs
         id="defs4683">
        <g
           id="g4681">
          <symbol
             style="overflow:visible"
             overflow="visible"
             id="textext-271997cd-0">
            <path
               inkscape:connector-curvature="0"
               style="stroke:none"
               d=""
               id="path4669" />
          </symbol>
          <symbol
             style="overflow:visible"
             overflow="visible"
             id="textext-271997cd-1">
            <path
               inkscape:connector-curvature="0"
               style="stroke:none"
               d="M 7.53125,-5.765625 C 7.640625,-6.15625 7.8125,-6.46875 8.609375,-6.5 c 0.046875,0 0.171875,-0.015625 0.171875,-0.203125 0,0 0,-0.109375 -0.125,-0.109375 -0.328125,0 -0.6875,0.03125 -1.015625,0.03125 -0.328125,0 -0.6875,-0.03125 -1.015625,-0.03125 -0.0625,0 -0.171875,0 -0.171875,0.203125 C 6.453125,-6.5 6.546875,-6.5 6.625,-6.5 c 0.578125,0.015625 0.6875,0.21875 0.6875,0.4375 0,0.03125 -0.03125,0.1875 -0.03125,0.203125 l -1.125,4.4375 L 3.953125,-6.625 C 3.875,-6.796875 3.875,-6.8125 3.640625,-6.8125 h -1.34375 c -0.1875,0 -0.28125,0 -0.28125,0.203125 0,0.109375 0.09375,0.109375 0.28125,0.109375 0.046875,0 0.671875,0 0.671875,0.09375 L 1.640625,-1.0625 c -0.109375,0.40625 -0.28125,0.71875 -1.078125,0.75 -0.0625,0 -0.171875,0.015625 -0.171875,0.203125 0,0.0625 0.046875,0.109375 0.125,0.109375 0.328125,0 0.671875,-0.03125 1,-0.03125 C 1.859375,-0.03125 2.21875,0 2.546875,0 2.59375,0 2.71875,0 2.71875,-0.203125 2.71875,-0.296875 2.625,-0.3125 2.515625,-0.3125 1.9375,-0.328125 1.859375,-0.546875 1.859375,-0.75 c 0,-0.0625 0.015625,-0.125 0.046875,-0.234375 l 1.3125,-5.25 C 3.265625,-6.1875 3.265625,-6.15625 3.3125,-6.0625 l 2.484375,5.875 C 5.859375,-0.015625 5.890625,0 5.984375,0 6.09375,0 6.09375,-0.03125 6.140625,-0.203125 Z m 0,0"
               id="path4672" />
          </symbol>
          <symbol
             style="overflow:visible"
             overflow="visible"
             id="textext-271997cd-2">
            <path
               inkscape:connector-curvature="0"
               style="stroke:none"
               d=""
               id="path4675" />
          </symbol>
          <symbol
             style="overflow:visible"
             overflow="visible"
             id="textext-271997cd-3">
            <path
               inkscape:connector-curvature="0"
               style="stroke:none"
               d="M 3.59375,-2.21875 C 3.59375,-2.984375 3.5,-3.546875 3.1875,-4.03125 2.96875,-4.34375 2.53125,-4.625 1.984375,-4.625 c -1.625,0 -1.625,1.90625 -1.625,2.40625 0,0.5 0,2.359375 1.625,2.359375 1.609375,0 1.609375,-1.859375 1.609375,-2.359375 z M 1.984375,-0.0625 c -0.328125,0 -0.75,-0.1875 -0.890625,-0.75 C 1,-1.21875 1,-1.796875 1,-2.3125 1,-2.828125 1,-3.359375 1.09375,-3.734375 1.25,-4.28125 1.6875,-4.4375 1.984375,-4.4375 c 0.375,0 0.734375,0.234375 0.859375,0.640625 0.109375,0.375 0.125,0.875 0.125,1.484375 0,0.515625 0,1.03125 -0.09375,1.46875 -0.140625,0.640625 -0.609375,0.78125 -0.890625,0.78125 z m 0,0"
               id="path4678" />
          </symbol>
        </g>
      </defs>
      <g
         id="textext-271997cd-4">
        <g
           style="fill:#000000;fill-opacity:1"
           id="g4687">
          <use
             height="100%"
             width="100%"
             xlink:href="#textext-271997cd-1"
             x="223.43201"
             y="134.765"
             id="use4685" />
        </g>
        <g
           style="fill:#000000;fill-opacity:1"
           id="g4691">
          <use
             height="100%"
             width="100%"
             xlink:href="#textext-271997cd-3"
             x="231.437"
             y="136.259"
             id="use4689" />
        </g>
      </g>
    </g>
    <g
       id="g4843"
       transform="matrix(1.1859916,0,0,1.1859916,-201.29612,-111.83058)"
       ns0:preamble="/Users/ignathanas/Downloads/preamble (1).tex"
       ns0:text="$N_1$">
      <defs
         id="defs4832">
        <g
           id="g4830">
          <symbol
             id="textext-437e4bc1-0"
             overflow="visible"
             style="overflow:visible">
            <path
               id="path4818"
               d=""
               style="stroke:none"
               inkscape:connector-curvature="0" />
          </symbol>
          <symbol
             id="textext-437e4bc1-1"
             overflow="visible"
             style="overflow:visible">
            <path
               id="path4821"
               d="M 7.53125,-5.765625 C 7.640625,-6.15625 7.8125,-6.46875 8.609375,-6.5 c 0.046875,0 0.171875,-0.015625 0.171875,-0.203125 0,0 0,-0.109375 -0.125,-0.109375 -0.328125,0 -0.6875,0.03125 -1.015625,0.03125 -0.328125,0 -0.6875,-0.03125 -1.015625,-0.03125 -0.0625,0 -0.171875,0 -0.171875,0.203125 C 6.453125,-6.5 6.546875,-6.5 6.625,-6.5 c 0.578125,0.015625 0.6875,0.21875 0.6875,0.4375 0,0.03125 -0.03125,0.1875 -0.03125,0.203125 l -1.125,4.4375 L 3.953125,-6.625 C 3.875,-6.796875 3.875,-6.8125 3.640625,-6.8125 h -1.34375 c -0.1875,0 -0.28125,0 -0.28125,0.203125 0,0.109375 0.09375,0.109375 0.28125,0.109375 0.046875,0 0.671875,0 0.671875,0.09375 L 1.640625,-1.0625 c -0.109375,0.40625 -0.28125,0.71875 -1.078125,0.75 -0.0625,0 -0.171875,0.015625 -0.171875,0.203125 0,0.0625 0.046875,0.109375 0.125,0.109375 0.328125,0 0.671875,-0.03125 1,-0.03125 C 1.859375,-0.03125 2.21875,0 2.546875,0 2.59375,0 2.71875,0 2.71875,-0.203125 2.71875,-0.296875 2.625,-0.3125 2.515625,-0.3125 1.9375,-0.328125 1.859375,-0.546875 1.859375,-0.75 c 0,-0.0625 0.015625,-0.125 0.046875,-0.234375 l 1.3125,-5.25 C 3.265625,-6.1875 3.265625,-6.15625 3.3125,-6.0625 l 2.484375,5.875 C 5.859375,-0.015625 5.890625,0 5.984375,0 6.09375,0 6.09375,-0.03125 6.140625,-0.203125 Z m 0,0"
               style="stroke:none"
               inkscape:connector-curvature="0" />
          </symbol>
          <symbol
             id="textext-437e4bc1-2"
             overflow="visible"
             style="overflow:visible">
            <path
               id="path4824"
               d=""
               style="stroke:none"
               inkscape:connector-curvature="0" />
          </symbol>
          <symbol
             id="textext-437e4bc1-3"
             overflow="visible"
             style="overflow:visible">
            <path
               id="path4827"
               d="m 2.328125,-4.4375 c 0,-0.1875 0,-0.1875 -0.203125,-0.1875 -0.453125,0.4375 -1.078125,0.4375 -1.359375,0.4375 v 0.25 c 0.15625,0 0.625,0 1,-0.1875 v 3.546875 c 0,0.234375 0,0.328125 -0.6875,0.328125 H 0.8125 V 0 c 0.125,0 0.984375,-0.03125 1.234375,-0.03125 0.21875,0 1.09375,0.03125 1.25,0.03125 V -0.25 H 3.03125 c -0.703125,0 -0.703125,-0.09375 -0.703125,-0.328125 z m 0,0"
               style="stroke:none"
               inkscape:connector-curvature="0" />
          </symbol>
        </g>
      </defs>
      <g
         id="textext-437e4bc1-4">
        <g
           id="g4836"
           style="fill:#000000;fill-opacity:1">
          <use
             id="use4834"
             y="134.765"
             x="223.43201"
             xlink:href="#textext-437e4bc1-1"
             width="100%"
             height="100%" />
        </g>
        <g
           id="g4840"
           style="fill:#000000;fill-opacity:1">
          <use
             id="use4838"
             y="136.259"
             x="231.437"
             xlink:href="#textext-437e4bc1-3"
             width="100%"
             height="100%" />
        </g>
      </g>
    </g>
    <path
       inkscape:connector-curvature="0"
       id="path5010"
       d="M 25.446429,92.89286 H 67.304321"
       style="color:#000000;clip-rule:nonzero;display:inline;overflow:visible;visibility:visible;opacity:1;isolation:auto;mix-blend-mode:normal;color-interpolation:sRGB;color-interpolation-filters:linearRGB;solid-color:#000000;solid-opacity:1;fill:#0000ff;fill-opacity:1;fill-rule:evenodd;stroke:#000000;stroke-width:0.53673667;stroke-linecap:butt;stroke-linejoin:miter;stroke-miterlimit:4;stroke-dasharray:none;stroke-dashoffset:0;stroke-opacity:1;color-rendering:auto;image-rendering:auto;shape-rendering:auto;text-rendering:auto;enable-background:accumulate" />
    <path
       style="color:#000000;clip-rule:nonzero;display:inline;overflow:visible;visibility:visible;opacity:1;isolation:auto;mix-blend-mode:normal;color-interpolation:sRGB;color-interpolation-filters:linearRGB;solid-color:#000000;solid-opacity:1;fill:none;fill-opacity:1;fill-rule:evenodd;stroke:#000000;stroke-width:0.5;stroke-linecap:butt;stroke-linejoin:miter;stroke-miterlimit:4;stroke-dasharray:1.5,1.5;stroke-dashoffset:0;stroke-opacity:1;color-rendering:auto;image-rendering:auto;shape-rendering:auto;text-rendering:auto;enable-background:accumulate"
       d="m 24.666394,90.799349 c 27.45511,-47.632936 64.145734,-47.586742 88.940556,-1e-6"
       id="path5040"
       inkscape:connector-curvature="0"
       sodipodi:nodetypes="cc" />
    <path
       inkscape:connector-curvature="0"
       id="path5989"
       d="M 73.290372,92.89286 H 112.28351"
       style="color:#000000;clip-rule:nonzero;display:inline;overflow:visible;visibility:visible;opacity:1;isolation:auto;mix-blend-mode:normal;color-interpolation:sRGB;color-interpolation-filters:linearRGB;solid-color:#000000;solid-opacity:1;fill:#0000ff;fill-opacity:1;fill-rule:evenodd;stroke:#000000;stroke-width:0.51804429;stroke-linecap:butt;stroke-linejoin:miter;stroke-miterlimit:4;stroke-dasharray:none;stroke-dashoffset:0;stroke-opacity:1;color-rendering:auto;image-rendering:auto;shape-rendering:auto;text-rendering:auto;enable-background:accumulate" />
    <path
       sodipodi:nodetypes="cc"
       style="color:#000000;clip-rule:nonzero;display:inline;overflow:visible;visibility:visible;opacity:1;isolation:auto;mix-blend-mode:normal;color-interpolation:sRGB;color-interpolation-filters:linearRGB;solid-color:#000000;solid-opacity:1;fill:none;fill-opacity:1;fill-rule:evenodd;stroke:#000000;stroke-width:0.5;stroke-linecap:butt;stroke-linejoin:miter;stroke-miterlimit:4;stroke-dasharray:none;stroke-dashoffset:0;stroke-opacity:1;color-rendering:auto;image-rendering:auto;shape-rendering:auto;text-rendering:auto;enable-background:accumulate"
       d="m 117.24599,91.100317 c 15.42741,-9.955505 35.11284,-9.920829 43.50476,-0.202289"
       id="path5991"
       inkscape:connector-curvature="0" />
    <path
       sodipodi:nodetypes="cc"
       style="color:#000000;clip-rule:nonzero;display:inline;overflow:visible;visibility:visible;opacity:1;isolation:auto;mix-blend-mode:normal;color-interpolation:sRGB;color-interpolation-filters:linearRGB;solid-color:#000000;solid-opacity:1;fill:none;fill-opacity:1;fill-rule:evenodd;stroke:#000000;stroke-width:0.50000001;stroke-linecap:butt;stroke-linejoin:miter;stroke-miterlimit:4;stroke-dasharray:2.00000006,1.00000003,0.50000001,1.00000003;stroke-dashoffset:0;stroke-opacity:1;color-rendering:auto;image-rendering:auto;shape-rendering:auto;text-rendering:auto;enable-background:accumulate"
       d="M 162.36376,55.095241 C 127.66095,85.166072 101.65609,114.78503 70.265785,92.960762"
       id="path5993"
       inkscape:connector-curvature="0" />
    <path
       inkscape:connector-curvature="0"
       id="path5995"
       d="M 68.296335,91.100317 C 52.868925,81.144812 33.183495,81.179488 24.791575,90.898028"
       style="color:#000000;clip-rule:nonzero;display:inline;overflow:visible;visibility:visible;opacity:1;isolation:auto;mix-blend-mode:normal;color-interpolation:sRGB;color-interpolation-filters:linearRGB;solid-color:#000000;solid-opacity:1;fill:none;fill-opacity:1;fill-rule:evenodd;stroke:#000000;stroke-width:0.50000001;stroke-linecap:butt;stroke-linejoin:miter;stroke-miterlimit:4;stroke-dasharray:2.00000006,1.00000003,0.50000001,1.00000003;stroke-dashoffset:0;stroke-opacity:1;color-rendering:auto;image-rendering:auto;shape-rendering:auto;text-rendering:auto;enable-background:accumulate"
       sodipodi:nodetypes="cc" />
    <path
       sodipodi:nodetypes="cc"
       inkscape:connector-curvature="0"
       id="path5997"
       d="m 116.81981,95.494944 c 10.25796,16.733136 35.52804,16.291646 44.78765,-0.03036"
       style="color:#000000;clip-rule:nonzero;display:inline;overflow:visible;visibility:visible;opacity:1;isolation:auto;mix-blend-mode:normal;color-interpolation:sRGB;color-interpolation-filters:linearRGB;solid-color:#000000;solid-opacity:1;fill:none;fill-opacity:1;fill-rule:evenodd;stroke:#000000;stroke-width:0.5;stroke-linecap:butt;stroke-linejoin:miter;stroke-miterlimit:4;stroke-dasharray:1.5,1.5;stroke-dashoffset:0;stroke-opacity:1;color-rendering:auto;image-rendering:auto;shape-rendering:auto;text-rendering:auto;enable-background:accumulate" />
    <path
       sodipodi:nodetypes="cc"
       inkscape:connector-curvature="0"
       id="path5999"
       d="M 161.60831,90.799349 C 134.1532,43.166413 97.255869,43.729371 72.461047,91.316112"
       style="color:#000000;clip-rule:nonzero;display:inline;overflow:visible;visibility:visible;opacity:1;isolation:auto;mix-blend-mode:normal;color-interpolation:sRGB;color-interpolation-filters:linearRGB;solid-color:#000000;solid-opacity:1;fill:none;fill-opacity:1;fill-rule:evenodd;stroke:#000000;stroke-width:0.50000001;stroke-linecap:butt;stroke-linejoin:miter;stroke-miterlimit:4;stroke-dasharray:0.50000001,1.50000004;stroke-dashoffset:0;stroke-opacity:1;color-rendering:auto;image-rendering:auto;shape-rendering:auto;text-rendering:auto;enable-background:accumulate" />
    <path
       style="color:#000000;clip-rule:nonzero;display:inline;overflow:visible;visibility:visible;opacity:1;isolation:auto;mix-blend-mode:normal;color-interpolation:sRGB;color-interpolation-filters:linearRGB;solid-color:#000000;solid-opacity:1;fill:none;fill-opacity:1;fill-rule:evenodd;stroke:#000000;stroke-width:0.50000001;stroke-linecap:butt;stroke-linejoin:miter;stroke-miterlimit:4;stroke-dasharray:0.50000001,1.50000004;stroke-dashoffset:0;stroke-opacity:1;color-rendering:auto;image-rendering:auto;shape-rendering:auto;text-rendering:auto;enable-background:accumulate"
       d="m 69.454893,95.494944 c -10.25796,16.733136 -35.52804,16.291646 -44.78765,-0.03036"
       id="path6001"
       inkscape:connector-curvature="0"
       sodipodi:nodetypes="cc" />
    <circle
       r="2.4930344"
       cy="92.960762"
       cx="70.297356"
       id="circle6003"
       style="opacity:1;fill:#fffffd;fill-opacity:1;stroke:#010001;stroke-width:1;stroke-miterlimit:4;stroke-dasharray:none;stroke-dashoffset:0;stroke-opacity:1" />
    <circle
       r="2.4930344"
       cy="92.960762"
       cx="115.27654"
       id="circle6005"
       style="opacity:1;fill:#fffffd;fill-opacity:1;stroke:#010001;stroke-width:1;stroke-miterlimit:4;stroke-dasharray:none;stroke-dashoffset:0;stroke-opacity:1" />
    <g
       ns0:text="2"
       ns0:preamble="/Users/ignathanas/Downloads/preamble (1).tex"
       transform="matrix(1.1859916,0,0,1.1859916,-153.59711,-47.705037)"
       id="g6189">
      <defs
         id="defs6181">
        <g
           id="g6179">
          <symbol
             overflow="visible"
             id="symbol6173">
            <path
               style="stroke:none;"
               d=""
               id="path6171" />
          </symbol>
          <symbol
             overflow="visible"
             id="symbol6177">
            <path
               style="stroke:none;"
               d="M 5.046875 -0.875 L 1.328125 -0.875 C 1.421875 -1.453125 1.734375 -1.8125 2.609375 -2.328125 L 3.59375 -2.859375 C 4.578125 -3.40625 5.09375 -4.125 5.09375 -5 C 5.09375 -5.578125 4.859375 -6.125 4.4375 -6.515625 C 4.015625 -6.890625 3.5 -7.0625 2.828125 -7.0625 C 1.9375 -7.0625 1.265625 -6.75 0.875 -6.15625 C 0.625 -5.765625 0.515625 -5.328125 0.5 -4.609375 L 1.375 -4.609375 C 1.40625 -5.09375 1.46875 -5.390625 1.578125 -5.609375 C 1.8125 -6.046875 2.265625 -6.296875 2.796875 -6.296875 C 3.59375 -6.296875 4.203125 -5.734375 4.203125 -4.96875 C 4.203125 -4.421875 3.875 -3.9375 3.234375 -3.578125 L 2.328125 -3.0625 C 0.84375 -2.21875 0.421875 -1.5625 0.34375 0 L 5.046875 0 Z M 5.046875 -0.875 "
               id="path6175" />
          </symbol>
        </g>
      </defs>
      <g
         id="g6187">
        <g
           style="fill:rgb(0%,0%,0%);fill-opacity:1;"
           id="g6185">
          <g
             id="use6183"
             transform="translate(223.43201,134.765)">
            <path
               inkscape:connector-curvature="0"
               id="path6834"
               d="m 5.046875,-0.875 h -3.71875 c 0.09375,-0.578125 0.40625,-0.9375 1.28125,-1.453125 L 3.59375,-2.859375 C 4.578125,-3.40625 5.09375,-4.125 5.09375,-5 5.09375,-5.578125 4.859375,-6.125 4.4375,-6.515625 4.015625,-6.890625 3.5,-7.0625 2.828125,-7.0625 1.9375,-7.0625 1.265625,-6.75 0.875,-6.15625 0.625,-5.765625 0.515625,-5.328125 0.5,-4.609375 h 0.875 c 0.03125,-0.484375 0.09375,-0.78125 0.203125,-1 0.234375,-0.4375 0.6875,-0.6875 1.21875,-0.6875 0.796875,0 1.40625,0.5625 1.40625,1.328125 0,0.546875 -0.328125,1.03125 -0.96875,1.390625 L 2.328125,-3.0625 C 0.84375,-2.21875 0.421875,-1.5625 0.34375,0 h 4.703125 z m 0,0"
               style="stroke:none" />
          </g>
        </g>
      </g>
    </g>
    <g
       id="g6451"
       transform="matrix(1.1859916,0,0,1.1859916,-157.37502,-111.83058)"
       ns0:preamble="/Users/ignathanas/Downloads/preamble (1).tex"
       ns0:text="$N_2$">
      <defs
         id="defs6439">
        <g
           id="g6437">
          <symbol
             id="symbol6423"
             overflow="visible">
            <path
               id="path6421"
               d=""
               style="stroke:none;" />
          </symbol>
          <symbol
             id="symbol6427"
             overflow="visible">
            <path
               id="path6425"
               d="M 7.53125 -5.765625 C 7.640625 -6.15625 7.8125 -6.46875 8.609375 -6.5 C 8.65625 -6.5 8.78125 -6.515625 8.78125 -6.703125 C 8.78125 -6.703125 8.78125 -6.8125 8.65625 -6.8125 C 8.328125 -6.8125 7.96875 -6.78125 7.640625 -6.78125 C 7.3125 -6.78125 6.953125 -6.8125 6.625 -6.8125 C 6.5625 -6.8125 6.453125 -6.8125 6.453125 -6.609375 C 6.453125 -6.5 6.546875 -6.5 6.625 -6.5 C 7.203125 -6.484375 7.3125 -6.28125 7.3125 -6.0625 C 7.3125 -6.03125 7.28125 -5.875 7.28125 -5.859375 L 6.15625 -1.421875 L 3.953125 -6.625 C 3.875 -6.796875 3.875 -6.8125 3.640625 -6.8125 L 2.296875 -6.8125 C 2.109375 -6.8125 2.015625 -6.8125 2.015625 -6.609375 C 2.015625 -6.5 2.109375 -6.5 2.296875 -6.5 C 2.34375 -6.5 2.96875 -6.5 2.96875 -6.40625 L 1.640625 -1.0625 C 1.53125 -0.65625 1.359375 -0.34375 0.5625 -0.3125 C 0.5 -0.3125 0.390625 -0.296875 0.390625 -0.109375 C 0.390625 -0.046875 0.4375 0 0.515625 0 C 0.84375 0 1.1875 -0.03125 1.515625 -0.03125 C 1.859375 -0.03125 2.21875 0 2.546875 0 C 2.59375 0 2.71875 0 2.71875 -0.203125 C 2.71875 -0.296875 2.625 -0.3125 2.515625 -0.3125 C 1.9375 -0.328125 1.859375 -0.546875 1.859375 -0.75 C 1.859375 -0.8125 1.875 -0.875 1.90625 -0.984375 L 3.21875 -6.234375 C 3.265625 -6.1875 3.265625 -6.15625 3.3125 -6.0625 L 5.796875 -0.1875 C 5.859375 -0.015625 5.890625 0 5.984375 0 C 6.09375 0 6.09375 -0.03125 6.140625 -0.203125 Z M 7.53125 -5.765625 "
               style="stroke:none;" />
          </symbol>
          <symbol
             id="symbol6431"
             overflow="visible">
            <path
               id="path6429"
               d=""
               style="stroke:none;" />
          </symbol>
          <symbol
             id="symbol6435"
             overflow="visible">
            <path
               id="path6433"
               d="M 3.515625 -1.265625 L 3.28125 -1.265625 C 3.265625 -1.109375 3.1875 -0.703125 3.09375 -0.640625 C 3.046875 -0.59375 2.515625 -0.59375 2.40625 -0.59375 L 1.125 -0.59375 C 1.859375 -1.234375 2.109375 -1.4375 2.515625 -1.765625 C 3.03125 -2.171875 3.515625 -2.609375 3.515625 -3.265625 C 3.515625 -4.109375 2.78125 -4.625 1.890625 -4.625 C 1.03125 -4.625 0.4375 -4.015625 0.4375 -3.375 C 0.4375 -3.03125 0.734375 -2.984375 0.8125 -2.984375 C 0.96875 -2.984375 1.171875 -3.109375 1.171875 -3.359375 C 1.171875 -3.484375 1.125 -3.734375 0.765625 -3.734375 C 0.984375 -4.21875 1.453125 -4.375 1.78125 -4.375 C 2.484375 -4.375 2.84375 -3.828125 2.84375 -3.265625 C 2.84375 -2.65625 2.40625 -2.1875 2.1875 -1.9375 L 0.515625 -0.265625 C 0.4375 -0.203125 0.4375 -0.1875 0.4375 0 L 3.3125 0 Z M 3.515625 -1.265625 "
               style="stroke:none;" />
          </symbol>
        </g>
      </defs>
      <g
         id="g6449">
        <g
           id="g6443"
           style="fill:rgb(0%,0%,0%);fill-opacity:1;">
          <g
             id="use6441"
             transform="translate(223.43201,134.765)">
            <path
               inkscape:connector-curvature="0"
               style="stroke:none"
               d="M 7.53125,-5.765625 C 7.640625,-6.15625 7.8125,-6.46875 8.609375,-6.5 c 0.046875,0 0.171875,-0.015625 0.171875,-0.203125 0,0 0,-0.109375 -0.125,-0.109375 -0.328125,0 -0.6875,0.03125 -1.015625,0.03125 -0.328125,0 -0.6875,-0.03125 -1.015625,-0.03125 -0.0625,0 -0.171875,0 -0.171875,0.203125 C 6.453125,-6.5 6.546875,-6.5 6.625,-6.5 c 0.578125,0.015625 0.6875,0.21875 0.6875,0.4375 0,0.03125 -0.03125,0.1875 -0.03125,0.203125 l -1.125,4.4375 L 3.953125,-6.625 C 3.875,-6.796875 3.875,-6.8125 3.640625,-6.8125 h -1.34375 c -0.1875,0 -0.28125,0 -0.28125,0.203125 0,0.109375 0.09375,0.109375 0.28125,0.109375 0.046875,0 0.671875,0 0.671875,0.09375 L 1.640625,-1.0625 c -0.109375,0.40625 -0.28125,0.71875 -1.078125,0.75 -0.0625,0 -0.171875,0.015625 -0.171875,0.203125 0,0.0625 0.046875,0.109375 0.125,0.109375 0.328125,0 0.671875,-0.03125 1,-0.03125 C 1.859375,-0.03125 2.21875,0 2.546875,0 2.59375,0 2.71875,0 2.71875,-0.203125 2.71875,-0.296875 2.625,-0.3125 2.515625,-0.3125 1.9375,-0.328125 1.859375,-0.546875 1.859375,-0.75 c 0,-0.0625 0.015625,-0.125 0.046875,-0.234375 l 1.3125,-5.25 C 3.265625,-6.1875 3.265625,-6.15625 3.3125,-6.0625 l 2.484375,5.875 C 5.859375,-0.015625 5.890625,0 5.984375,0 6.09375,0 6.09375,-0.03125 6.140625,-0.203125 Z m 0,0"
               id="path6842" />
          </g>
        </g>
        <g
           id="g6447"
           style="fill:rgb(0%,0%,0%);fill-opacity:1;">
          <g
             id="use6445"
             transform="translate(231.437,136.259)">
            <path
               inkscape:connector-curvature="0"
               style="stroke:none"
               d="M 3.515625,-1.265625 H 3.28125 c -0.015625,0.15625 -0.09375,0.5625 -0.1875,0.625 C 3.046875,-0.59375 2.515625,-0.59375 2.40625,-0.59375 H 1.125 c 0.734375,-0.640625 0.984375,-0.84375 1.390625,-1.171875 0.515625,-0.40625 1,-0.84375 1,-1.5 0,-0.84375 -0.734375,-1.359375 -1.625,-1.359375 -0.859375,0 -1.453125,0.609375 -1.453125,1.25 0,0.34375 0.296875,0.390625 0.375,0.390625 0.15625,0 0.359375,-0.125 0.359375,-0.375 0,-0.125 -0.046875,-0.375 -0.40625,-0.375 C 0.984375,-4.21875 1.453125,-4.375 1.78125,-4.375 c 0.703125,0 1.0625,0.546875 1.0625,1.109375 0,0.609375 -0.4375,1.078125 -0.65625,1.328125 L 0.515625,-0.265625 C 0.4375,-0.203125 0.4375,-0.1875 0.4375,0 h 2.875 z m 0,0"
               id="path6850" />
          </g>
        </g>
      </g>
    </g>
    <g
       ns0:text="$N_3$"
       ns0:preamble="/Users/ignathanas/Downloads/preamble (1).tex"
       transform="matrix(1.1859916,0,0,1.1859916,-112.39558,-111.83058)"
       id="g7047">
      <defs
         id="defs7036">
        <g
           id="g7034">
          <symbol
             overflow="visible"
             id="textext-1522c411-0">
            <path
               style="stroke:none;"
               d=""
               id="path7022" />
          </symbol>
          <symbol
             overflow="visible"
             id="textext-1522c411-1">
            <path
               style="stroke:none;"
               d="M 7.53125 -5.765625 C 7.640625 -6.15625 7.8125 -6.46875 8.609375 -6.5 C 8.65625 -6.5 8.78125 -6.515625 8.78125 -6.703125 C 8.78125 -6.703125 8.78125 -6.8125 8.65625 -6.8125 C 8.328125 -6.8125 7.96875 -6.78125 7.640625 -6.78125 C 7.3125 -6.78125 6.953125 -6.8125 6.625 -6.8125 C 6.5625 -6.8125 6.453125 -6.8125 6.453125 -6.609375 C 6.453125 -6.5 6.546875 -6.5 6.625 -6.5 C 7.203125 -6.484375 7.3125 -6.28125 7.3125 -6.0625 C 7.3125 -6.03125 7.28125 -5.875 7.28125 -5.859375 L 6.15625 -1.421875 L 3.953125 -6.625 C 3.875 -6.796875 3.875 -6.8125 3.640625 -6.8125 L 2.296875 -6.8125 C 2.109375 -6.8125 2.015625 -6.8125 2.015625 -6.609375 C 2.015625 -6.5 2.109375 -6.5 2.296875 -6.5 C 2.34375 -6.5 2.96875 -6.5 2.96875 -6.40625 L 1.640625 -1.0625 C 1.53125 -0.65625 1.359375 -0.34375 0.5625 -0.3125 C 0.5 -0.3125 0.390625 -0.296875 0.390625 -0.109375 C 0.390625 -0.046875 0.4375 0 0.515625 0 C 0.84375 0 1.1875 -0.03125 1.515625 -0.03125 C 1.859375 -0.03125 2.21875 0 2.546875 0 C 2.59375 0 2.71875 0 2.71875 -0.203125 C 2.71875 -0.296875 2.625 -0.3125 2.515625 -0.3125 C 1.9375 -0.328125 1.859375 -0.546875 1.859375 -0.75 C 1.859375 -0.8125 1.875 -0.875 1.90625 -0.984375 L 3.21875 -6.234375 C 3.265625 -6.1875 3.265625 -6.15625 3.3125 -6.0625 L 5.796875 -0.1875 C 5.859375 -0.015625 5.890625 0 5.984375 0 C 6.09375 0 6.09375 -0.03125 6.140625 -0.203125 Z M 7.53125 -5.765625 "
               id="path7025" />
          </symbol>
          <symbol
             overflow="visible"
             id="textext-1522c411-2">
            <path
               style="stroke:none;"
               d=""
               id="path7028" />
          </symbol>
          <symbol
             overflow="visible"
             id="textext-1522c411-3">
            <path
               style="stroke:none;"
               d="M 1.90625 -2.328125 C 2.453125 -2.328125 2.84375 -1.953125 2.84375 -1.203125 C 2.84375 -0.34375 2.328125 -0.078125 1.9375 -0.078125 C 1.65625 -0.078125 1.03125 -0.15625 0.75 -0.578125 C 1.078125 -0.578125 1.15625 -0.8125 1.15625 -0.96875 C 1.15625 -1.1875 0.984375 -1.34375 0.765625 -1.34375 C 0.578125 -1.34375 0.375 -1.21875 0.375 -0.9375 C 0.375 -0.28125 1.09375 0.140625 1.9375 0.140625 C 2.90625 0.140625 3.578125 -0.515625 3.578125 -1.203125 C 3.578125 -1.75 3.140625 -2.296875 2.375 -2.453125 C 3.09375 -2.71875 3.359375 -3.234375 3.359375 -3.671875 C 3.359375 -4.21875 2.734375 -4.625 1.953125 -4.625 C 1.1875 -4.625 0.59375 -4.25 0.59375 -3.6875 C 0.59375 -3.453125 0.75 -3.328125 0.953125 -3.328125 C 1.171875 -3.328125 1.3125 -3.484375 1.3125 -3.671875 C 1.3125 -3.875 1.171875 -4.03125 0.953125 -4.046875 C 1.203125 -4.34375 1.671875 -4.421875 1.9375 -4.421875 C 2.25 -4.421875 2.6875 -4.265625 2.6875 -3.671875 C 2.6875 -3.375 2.59375 -3.046875 2.40625 -2.84375 C 2.1875 -2.578125 1.984375 -2.5625 1.640625 -2.53125 C 1.46875 -2.515625 1.453125 -2.515625 1.421875 -2.515625 C 1.40625 -2.515625 1.34375 -2.5 1.34375 -2.421875 C 1.34375 -2.328125 1.40625 -2.328125 1.53125 -2.328125 Z M 1.90625 -2.328125 "
               id="path7031" />
          </symbol>
        </g>
      </defs>
      <g
         id="textext-1522c411-4">
        <g
           style="fill:rgb(0%,0%,0%);fill-opacity:1;"
           id="g7040">
          <use
             xlink:href="#textext-1522c411-1"
             x="223.432"
             y="134.765"
             id="use7038" />
        </g>
        <g
           style="fill:rgb(0%,0%,0%);fill-opacity:1;"
           id="g7044">
          <use
             xlink:href="#textext-1522c411-3"
             x="231.437"
             y="136.259"
             id="use7042" />
        </g>
      </g>
    </g>
    <g
       id="g7307"
       transform="matrix(1.1859916,0,0,1.1859916,-105.44265,-47.705037)"
       ns0:preamble="/Users/ignathanas/Downloads/preamble (1).tex"
       ns0:text="3">
      <defs
         id="defs7300">
        <g
           id="g7298">
          <symbol
             id="textext-96bde570-0"
             overflow="visible">
            <path
               id="path7292"
               d=""
               style="stroke:none;" />
          </symbol>
          <symbol
             id="textext-96bde570-1"
             overflow="visible">
            <path
               id="path7295"
               d="M 2.203125 -3.234375 L 2.3125 -3.234375 L 2.6875 -3.25 C 3.65625 -3.25 4.140625 -2.8125 4.140625 -1.96875 C 4.140625 -1.078125 3.59375 -0.546875 2.6875 -0.546875 C 1.71875 -0.546875 1.25 -1.03125 1.203125 -2.046875 L 0.3125 -2.046875 C 0.359375 -1.484375 0.453125 -1.109375 0.625 -0.796875 C 0.984375 -0.125 1.6875 0.234375 2.65625 0.234375 C 4.109375 0.234375 5.046875 -0.640625 5.046875 -1.96875 C 5.046875 -2.875 4.6875 -3.375 3.84375 -3.65625 C 4.5 -3.921875 4.828125 -4.421875 4.828125 -5.125 C 4.828125 -6.34375 4.03125 -7.0625 2.6875 -7.0625 C 1.25 -7.0625 0.5 -6.296875 0.46875 -4.78125 L 1.34375 -4.78125 C 1.359375 -5.21875 1.390625 -5.453125 1.5 -5.671875 C 1.703125 -6.0625 2.140625 -6.296875 2.6875 -6.296875 C 3.46875 -6.296875 3.9375 -5.84375 3.9375 -5.09375 C 3.9375 -4.59375 3.765625 -4.296875 3.375 -4.140625 C 3.125 -4.03125 2.828125 -4 2.203125 -3.984375 Z M 2.203125 -3.234375 "
               style="stroke:none;" />
          </symbol>
        </g>
      </defs>
      <g
         id="textext-96bde570-2">
        <g
           id="g7304"
           style="fill:rgb(0%,0%,0%);fill-opacity:1;">
          <use
             id="use7302"
             y="134.765"
             x="223.432"
             xlink:href="#textext-96bde570-1" />
        </g>
      </g>
    </g>
  </g>
</svg>
