<?xml version="1.0" encoding="UTF-8" standalone="no"?>
<!-- Created with Inkscape (http://www.inkscape.org/) -->

<svg
   xmlns:dc="http://purl.org/dc/elements/1.1/"
   xmlns:cc="http://creativecommons.org/ns#"
   xmlns:rdf="http://www.w3.org/1999/02/22-rdf-syntax-ns#"
   xmlns:svg="http://www.w3.org/2000/svg"
   xmlns="http://www.w3.org/2000/svg"
   xmlns:sodipodi="http://sodipodi.sourceforge.net/DTD/sodipodi-0.dtd"
   xmlns:inkscape="http://www.inkscape.org/namespaces/inkscape"
   version="1.1"
   id="svg2"
   xml:space="preserve"
   width="885.33331"
   height="470.66666"
   viewBox="0 0 885.33331 470.66666"
   sodipodi:docname="CrackSurface.svg"
   inkscape:version="0.92.2 5c3e80d, 2017-08-06"><metadata
     id="metadata8"><rdf:RDF><cc:Work
         rdf:about=""><dc:format>image/svg+xml</dc:format><dc:type
           rdf:resource="http://purl.org/dc/dcmitype/StillImage" /><dc:title></dc:title></cc:Work></rdf:RDF></metadata><defs
     id="defs6"><clipPath
       clipPathUnits="userSpaceOnUse"
       id="clipPath20"><path
         d="M 0,0 H 6630.21 V 3521.6 H 0 Z"
         id="path18"
         inkscape:connector-curvature="0" /></clipPath><clipPath
       clipPathUnits="userSpaceOnUse"
       id="clipPath54"><path
         d="m 957.859,2892.72 h 260 v 160 h -260 z"
         id="path52"
         inkscape:connector-curvature="0" /></clipPath><clipPath
       clipPathUnits="userSpaceOnUse"
       id="clipPath72"><path
         d="m 1118.91,2326.23 h 205.441 v 130 H 1118.91 Z"
         id="path70"
         inkscape:connector-curvature="0" /></clipPath><clipPath
       clipPathUnits="userSpaceOnUse"
       id="clipPath90"><path
         d="m 1418.38,2890.55 h 100 v 142 h -100 z"
         id="path88"
         inkscape:connector-curvature="0" /></clipPath><clipPath
       clipPathUnits="userSpaceOnUse"
       id="clipPath104"><path
         d="m 395.078,2544.63 h 220 v 160 h -220 z"
         id="path102"
         inkscape:connector-curvature="0" /></clipPath><clipPath
       clipPathUnits="userSpaceOnUse"
       id="clipPath122"><path
         d="m 636.109,2202.69 h 150 v 130 h -150 z"
         id="path120"
         inkscape:connector-curvature="0" /></clipPath><clipPath
       clipPathUnits="userSpaceOnUse"
       id="clipPath140"><path
         d="M 0,0 H 6630.21 V 3521.6 H 0 Z"
         id="path138"
         inkscape:connector-curvature="0" /></clipPath><clipPath
       clipPathUnits="userSpaceOnUse"
       id="clipPath186"><path
         d="m 6198.5,1324.65 h 284.895 v 190.391 H 6198.5 Z"
         id="path184"
         inkscape:connector-curvature="0" /></clipPath><clipPath
       clipPathUnits="userSpaceOnUse"
       id="clipPath204"><path
         d="m 6494.95,1979.39 h 135.27 v 185.316 h -135.27 z"
         id="path202"
         inkscape:connector-curvature="0" /></clipPath><clipPath
       clipPathUnits="userSpaceOnUse"
       id="clipPath218"><path
         d="m 4794.28,1316.46 h 299.75 v 216.102 h -299.75 z"
         id="path216"
         inkscape:connector-curvature="0" /></clipPath><clipPath
       clipPathUnits="userSpaceOnUse"
       id="clipPath236"><path
         d="m 4982.47,917.578 h 293.449 v 174.676 H 4982.47 Z"
         id="path234"
         inkscape:connector-curvature="0" /></clipPath><clipPath
       clipPathUnits="userSpaceOnUse"
       id="clipPath254"><path
         d="M 0,0 H 6630.21 V 3521.6 H 0 Z"
         id="path252"
         inkscape:connector-curvature="0" /></clipPath><clipPath
       clipPathUnits="userSpaceOnUse"
       id="clipPath276"><path
         d="m 4768.86,2362.16 h 518.746 v 242.957 H 4768.86 Z"
         id="path274"
         inkscape:connector-curvature="0" /></clipPath><clipPath
       clipPathUnits="userSpaceOnUse"
       id="clipPath306"><path
         d="m 5554.54,2291.35 h 588.195 v 253.063 H 5554.54 Z"
         id="path304"
         inkscape:connector-curvature="0" /></clipPath><clipPath
       clipPathUnits="userSpaceOnUse"
       id="clipPath336"><path
         d="M 0,0 H 6630.21 V 3521.6 H 0 Z"
         id="path334"
         inkscape:connector-curvature="0" /></clipPath><clipPath
       clipPathUnits="userSpaceOnUse"
       id="clipPath352"><path
         d="m 1570.9,1723.38 h 320 v 170 h -320 z"
         id="path350"
         inkscape:connector-curvature="0" /></clipPath><clipPath
       clipPathUnits="userSpaceOnUse"
       id="clipPath374"><path
         d="m 2188.56,1979.15 h 210 v 160 h -210 z"
         id="path372"
         inkscape:connector-curvature="0" /></clipPath></defs><sodipodi:namedview
     pagecolor="#ffffff"
     bordercolor="#666666"
     borderopacity="1"
     objecttolerance="10"
     gridtolerance="10"
     guidetolerance="10"
     inkscape:pageopacity="0"
     inkscape:pageshadow="2"
     inkscape:window-width="1641"
     inkscape:window-height="1227"
     id="namedview4"
     showgrid="false"
     inkscape:zoom="1.6671687"
     inkscape:cx="121.75385"
     inkscape:cy="211.34056"
     inkscape:window-x="2991"
     inkscape:window-y="63"
     inkscape:window-maximized="0"
     inkscape:current-layer="g12" /><g
     id="g10"
     inkscape:groupmode="layer"
     inkscape:label="ink_ext_XXXXXX"
     transform="matrix(1.3333333,0,0,-1.3333333,0,470.66667)"><g
       id="g12"
       transform="scale(0.1)"><g
         id="g14"><g
           id="g16"
           clip-path="url(#clipPath20)"><path
             d="m 63.9766,2795.66 v 0 c 81.5274,177.44 145.8044,309.89 317.1914,370.45 151.191,53.57 276.535,67.74 396.535,114.75 291.457,129.03 589.277,242.2 897.847,233.5 442.64,29.32 971.21,-267.41 1168.71,-636.58 120.57,-213.96 46.75,-585.61 -47.53,-754.8 -127.5,-227.32 -530.11,-287.03 -809.86,-255.87 -228.92,32.23 -409.63,194.36 -613.26,190.96 -149.73,21.08 -551.083,-209.96 -776.528,-205.9 -198.258,2.58 -423.004,96.63 -490.57,228.26 -95.3167,182.1 -149.0393,479.84 -42.5354,715.23 z"
             style="fill:#d1d1d1;fill-opacity:1;fill-rule:nonzero;stroke:none"
             id="path22"
             inkscape:connector-curvature="0" /><path
             d="m 63.9766,2795.66 v 0 c 81.5274,177.44 145.8044,309.89 317.1914,370.45 151.191,53.58 276.535,67.74 396.535,114.75 291.457,129.03 589.277,242.2 897.847,233.5 442.64,29.32 971.21,-267.41 1168.71,-636.58 120.56,-213.96 46.75,-585.61 -47.53,-754.8 -127.5,-227.32 -530.11,-287.03 -809.86,-255.87 -228.92,32.23 -409.63,194.36 -613.26,190.96 -149.73,21.08 -551.083,-209.96 -776.528,-205.9 -198.258,2.58 -423.004,96.63 -490.566,228.26 -95.3207,182.1 -149.0433,479.84 -42.5394,715.23 z"
             style="fill:none;stroke:#000000;stroke-width:10;stroke-linecap:square;stroke-linejoin:miter;stroke-miterlimit:10;stroke-dasharray:none;stroke-opacity:1"
             id="path24"
             inkscape:connector-curvature="0" /><path
             d="m 158.953,2015.5 v 0 c 138.231,222.91 547.199,662.17 1198.897,689.55"
             style="fill:none;stroke:#ff2400;stroke-width:20;stroke-linecap:butt;stroke-linejoin:miter;stroke-miterlimit:10;stroke-dasharray:none;stroke-opacity:1"
             id="path26"
             inkscape:connector-curvature="0" /><path
             d="m 1387.31,2703.75 c 0,4.02 -0.8,8.04 -2.34,11.75 -1.53,3.71 -3.81,7.11 -6.65,9.95 -2.84,2.85 -6.25,5.12 -9.96,6.66 -3.71,1.54 -7.73,2.34 -11.75,2.33 -4.01,0.01 -8.03,-0.79 -11.74,-2.33 -3.71,-1.54 -7.12,-3.81 -9.96,-6.66 -2.84,-2.84 -5.12,-6.24 -6.65,-9.95 -1.55,-3.71 -2.34,-7.73 -2.34,-11.75 0,-4.02 0.79,-8.04 2.34,-11.75 1.53,-3.71 3.81,-7.12 6.65,-9.96 2.84,-2.84 6.25,-5.11 9.96,-6.65 3.71,-1.54 7.73,-2.34 11.74,-2.34 4.02,0 8.04,0.8 11.75,2.34 3.71,1.54 7.12,3.81 9.96,6.65 2.84,2.84 5.12,6.25 6.65,9.96 1.54,3.71 2.34,7.73 2.34,11.75 z"
             style="fill:#ff2400;fill-opacity:1;fill-rule:nonzero;stroke:none"
             id="path28"
             inkscape:connector-curvature="0" /><path
             d="M 1259.03,2752.26 C 998.75,2712.42 434.695,2568.01 123.551,2055.35"
             style="fill:none;stroke:#000000;stroke-width:15;stroke-linecap:butt;stroke-linejoin:miter;stroke-miterlimit:10;stroke-dasharray:20, 20;stroke-dashoffset:0;stroke-opacity:1"
             id="path30"
             inkscape:connector-curvature="0" /><path
             d="M 1255.67,2654.15 C 1072.45,2634.65 530.949,2521.13 209.715,1975.81"
             style="fill:none;stroke:#000000;stroke-width:15;stroke-linecap:butt;stroke-linejoin:miter;stroke-miterlimit:10;stroke-dasharray:20, 20;stroke-dashoffset:0;stroke-opacity:1"
             id="path32"
             inkscape:connector-curvature="0" /><path
             d="m 1256.59,2650.61 c 29.77,-54.61 98.18,-74.73 152.78,-44.96 54.61,29.78 74.74,98.18 44.96,152.78 -29.78,54.61 -98.18,74.73 -152.79,44.96 -20.47,-11.16 -36.97,-28.41 -47.22,-49.35"
             style="fill:none;stroke:#000000;stroke-width:15;stroke-linecap:square;stroke-linejoin:miter;stroke-miterlimit:10;stroke-dasharray:20, 40;stroke-dashoffset:0;stroke-opacity:1"
             id="path34"
             inkscape:connector-curvature="0" /><path
             d="m 1010.71,2698.27 -39.784,128.67"
             style="fill:none;stroke:#000000;stroke-width:10;stroke-linecap:square;stroke-linejoin:miter;stroke-miterlimit:10;stroke-dasharray:none;stroke-opacity:1"
             id="path36"
             inkscape:connector-curvature="0" /><path
             d="m 959.125,2865.11 25.695,-33.87 -27.785,-8.59 z"
             style="fill:#000000;fill-opacity:1;fill-rule:nonzero;stroke:none"
             id="path38"
             inkscape:connector-curvature="0" /><path
             d="m 959.125,2865.11 25.695,-33.87 -27.785,-8.59 z"
             style="fill:none;stroke:#000000;stroke-width:2.5;stroke-linecap:square;stroke-linejoin:miter;stroke-miterlimit:10;stroke-dasharray:none;stroke-opacity:1"
             id="path40"
             inkscape:connector-curvature="0" /><path
             d="m 1075.8,2481.71 -39.78,128.67"
             style="fill:none;stroke:#000000;stroke-width:10;stroke-linecap:square;stroke-linejoin:miter;stroke-miterlimit:10;stroke-dasharray:none;stroke-opacity:1"
             id="path42"
             inkscape:connector-curvature="0" /><path
             d="m 1087.61,2443.54 -25.7,33.87 27.79,8.59 z"
             style="fill:#000000;fill-opacity:1;fill-rule:nonzero;stroke:none"
             id="path44"
             inkscape:connector-curvature="0" /><path
             d="m 1087.61,2443.54 -25.7,33.87 27.79,8.59 z"
             style="fill:none;stroke:#000000;stroke-width:2.5;stroke-linecap:square;stroke-linejoin:miter;stroke-miterlimit:10;stroke-dasharray:none;stroke-opacity:1"
             id="path46"
             inkscape:connector-curvature="0" /></g></g><g
         id="g134"
         transform="translate(-1.72,10.26)"><g
           id="g136"
           clip-path="url(#clipPath140)"><path
             d="M 127.578,2039.73 2436.13,505.277"
             style="fill:none;stroke:#565656;stroke-width:10;stroke-linecap:square;stroke-linejoin:miter;stroke-miterlimit:10;stroke-dasharray:40, 40;stroke-dashoffset:0;stroke-opacity:1"
             id="path142"
             inkscape:connector-curvature="0" /><path
             d="M 221.418,1966.88 2415.82,629.23"
             style="fill:none;stroke:#565656;stroke-width:10;stroke-linecap:square;stroke-linejoin:miter;stroke-miterlimit:10;stroke-dasharray:40, 40;stroke-dashoffset:0;stroke-opacity:1"
             id="path144"
             inkscape:connector-curvature="0" /><path
             d="M 1388.64,2814.94 4554.65,2601.18"
             style="fill:none;stroke:#565656;stroke-width:10;stroke-linecap:square;stroke-linejoin:miter;stroke-miterlimit:10;stroke-dasharray:40, 40;stroke-dashoffset:0;stroke-opacity:1"
             id="path146"
             inkscape:connector-curvature="0" /><path
             d="M 1344.59,2591.95 4518.76,2060.81"
             style="fill:none;stroke:#565656;stroke-width:10;stroke-linecap:square;stroke-linejoin:miter;stroke-miterlimit:10;stroke-dasharray:40, 40;stroke-dashoffset:0;stroke-opacity:1"
             id="path148"
             inkscape:connector-curvature="0" /><path
             d="m 2427.11,562.145 1708.05,-492.8208 3.83,1.2696 C 4794.11,1655.88 5692.12,1320.07 6241.73,1866.7 l -0.1,1.36 C 5395.21,2319.71 5110.66,2017.8 4530.7,2361.9 l -1.85,1.52 C 3979.24,1816.79 3081.23,2152.6 2426.11,567.316"
             style="fill:none;stroke:#000000;stroke-width:10;stroke-linecap:square;stroke-linejoin:miter;stroke-miterlimit:10;stroke-dasharray:none;stroke-opacity:1"
             id="path150"
             inkscape:connector-curvature="0" /><path
             d="m 2427.11,562.145 1708.05,-492.8208 3.82,1.2696 C 4794.11,1655.88 5692.12,1320.06 6241.73,1866.7 l -0.1,1.36 C 5395.21,2319.71 5110.66,2017.8 4530.7,2361.9 l -1.85,1.52 C 3979.24,1816.79 3081.23,2152.6 2426.11,567.316"
             style="fill:#d4d4d4;fill-opacity:1;fill-rule:nonzero;stroke:none"
             id="path152"
             inkscape:connector-curvature="0" /><path
             d="m 2427.11,562.145 1708.05,-492.8208 3.83,1.2696 C 4794.11,1655.88 5692.12,1320.07 6241.73,1866.7 l -0.1,1.36 C 5395.21,2319.71 5110.66,2017.8 4530.7,2361.9 l -1.85,1.52 C 3979.24,1816.79 3081.23,2152.6 2426.11,567.316"
             style="fill:none;stroke:#000000;stroke-width:10;stroke-linecap:square;stroke-linejoin:miter;stroke-miterlimit:10;stroke-dasharray:none;stroke-opacity:1"
             id="path154"
             inkscape:connector-curvature="0" /><path
             d="M 6054.97,1767.9 C 5208.56,2219.55 4924,1917.64 4344.04,2261.74"
             style="fill:none;stroke:#000000;stroke-width:15;stroke-linecap:square;stroke-linejoin:miter;stroke-miterlimit:10;stroke-dasharray:40, 40;stroke-dashoffset:0;stroke-opacity:1"
             id="path156"
             inkscape:connector-curvature="0" /><path
             d="M 2426.67,615.238 4134.72,122.422"
             style="fill:none;stroke:#000000;stroke-width:15;stroke-linecap:square;stroke-linejoin:miter;stroke-miterlimit:10;stroke-dasharray:40, 40;stroke-dashoffset:0;stroke-opacity:1"
             id="path158"
             inkscape:connector-curvature="0" /><path
             d="M 2433.92,501.605 4141.96,8.78516"
             style="fill:none;stroke:#000000;stroke-width:15;stroke-linecap:square;stroke-linejoin:miter;stroke-miterlimit:10;stroke-dasharray:40, 40;stroke-dashoffset:0;stroke-opacity:1"
             id="path160"
             inkscape:connector-curvature="0" /><path
             d="m 2430.97,501.84 22.04,53.84"
             style="fill:none;stroke:#000000;stroke-width:10;stroke-linecap:square;stroke-linejoin:miter;stroke-miterlimit:10;stroke-dasharray:none;stroke-opacity:1"
             id="path162"
             inkscape:connector-curvature="0" /><path
             d="m 4329.25,2264.58 c -81.74,361.01 474.46,515.79 394.72,6.82"
             style="fill:none;stroke:#000000;stroke-width:15;stroke-linecap:square;stroke-linejoin:miter;stroke-miterlimit:10;stroke-dasharray:40, 40;stroke-dashoffset:0;stroke-opacity:1"
             id="path164"
             inkscape:connector-curvature="0" /><path
             d="m 5161.74,2051.92 c -81.75,361.01 441.64,541.64 404.93,63.17"
             style="fill:none;stroke:#000000;stroke-width:10;stroke-linecap:square;stroke-linejoin:miter;stroke-miterlimit:10;stroke-dasharray:40, 40;stroke-dashoffset:0;stroke-opacity:1"
             id="path166"
             inkscape:connector-curvature="0" /><path
             d="m 6099.86,1684.69 c 152.92,-127.38 293.35,-29.44 357.42,155.59"
             style="fill:none;stroke:#000000;stroke-width:15;stroke-linecap:square;stroke-linejoin:miter;stroke-miterlimit:10;stroke-dasharray:40, 40;stroke-dashoffset:0;stroke-opacity:1"
             id="path168"
             inkscape:connector-curvature="0" /><path
             d="M 6103.93,1685.44 C 5321.85,1243.29 4722.89,1370.75 4143.91,9.46094"
             style="fill:none;stroke:#000000;stroke-width:15;stroke-linecap:square;stroke-linejoin:miter;stroke-miterlimit:10;stroke-dasharray:40, 40;stroke-dashoffset:0;stroke-opacity:1"
             id="path170"
             inkscape:connector-curvature="0" /><path
             d="M 6050.81,1771.39 C 5676.48,1484.41 4722.23,1577.13 4138.77,124.984"
             style="fill:none;stroke:#000000;stroke-width:15;stroke-linecap:square;stroke-linejoin:miter;stroke-miterlimit:10;stroke-dasharray:40, 40;stroke-dashoffset:0;stroke-opacity:1"
             id="path172"
             inkscape:connector-curvature="0" /><path
             d="M 4334.24,2263.72 C 3959.91,1976.74 3005.66,2069.46 2422.19,617.309"
             style="fill:none;stroke:#000000;stroke-width:15;stroke-linecap:square;stroke-linejoin:miter;stroke-miterlimit:10;stroke-dasharray:40, 40;stroke-dashoffset:0;stroke-opacity:1"
             id="path174"
             inkscape:connector-curvature="0" /><path
             d="m 6439.25,1928.08 c -846.41,451.65 -1130.97,149.74 -1710.93,493.84"
             style="fill:none;stroke:#000000;stroke-width:15;stroke-linecap:square;stroke-linejoin:miter;stroke-miterlimit:10;stroke-dasharray:40, 40;stroke-dashoffset:0;stroke-opacity:1"
             id="path176"
             inkscape:connector-curvature="0" /><path
             d="m 6234.52,1869.48 c -846.41,451.65 -1130.97,149.75 -1710.93,493.84"
             style="fill:none;stroke:#ff2400;stroke-width:30;stroke-linecap:round;stroke-linejoin:miter;stroke-miterlimit:10;stroke-dasharray:none;stroke-opacity:1"
             id="path178"
             inkscape:connector-curvature="0" /></g></g><g
         id="g248"><g
           id="g250"
           clip-path="url(#clipPath254)"><path
             d="m 6049.09,1781.65 c -84.01,381.92 503.76,517.01 393.61,11.37"
             style="fill:none;stroke:#000000;stroke-width:15;stroke-linecap:square;stroke-linejoin:miter;stroke-miterlimit:10;stroke-dasharray:40, 40;stroke-dashoffset:0;stroke-opacity:1"
             id="path256"
             inkscape:connector-curvature="0" /><path
             d="m 5256.79,2346.01 c 79.07,73.66 152.4,68.1 221.01,22.16"
             style="fill:none;stroke:#000000;stroke-width:30;stroke-linecap:square;stroke-linejoin:miter;stroke-miterlimit:10;stroke-dasharray:none;stroke-opacity:1"
             id="path258"
             inkscape:connector-curvature="0" /><path
             d="m 5528.73,2326.43 -103.59,45.91 56.17,-0.28 -2.43,56.12 z"
             style="fill:#000000;fill-opacity:1;fill-rule:nonzero;stroke:none"
             id="path260"
             inkscape:connector-curvature="0" /><path
             d="m 5528.73,2326.43 -103.59,45.91 56.17,-0.28 -2.43,56.12 z"
             style="fill:none;stroke:#000000;stroke-width:7.5;stroke-linecap:square;stroke-linejoin:miter;stroke-miterlimit:10;stroke-dasharray:none;stroke-opacity:1"
             id="path262"
             inkscape:connector-curvature="0" /><path
             d="m 5444.89,2217.56 c -138.73,13.2 -237.1,23.1 -362.19,55.19"
             style="fill:none;stroke:#000000;stroke-width:30;stroke-linecap:square;stroke-linejoin:miter;stroke-miterlimit:10;stroke-dasharray:none;stroke-opacity:1"
             id="path264"
             inkscape:connector-curvature="0" /><path
             d="m 5019.27,2290.28 113.08,7.04 -49.97,-25.66 28.04,-48.68 z"
             style="fill:#000000;fill-opacity:1;fill-rule:nonzero;stroke:none"
             id="path266"
             inkscape:connector-curvature="0" /><path
             d="m 5019.27,2290.28 113.08,7.04 -49.97,-25.66 28.04,-48.68 z"
             style="fill:none;stroke:#000000;stroke-width:7.5;stroke-linecap:square;stroke-linejoin:miter;stroke-miterlimit:10;stroke-dasharray:none;stroke-opacity:1"
             id="path268"
             inkscape:connector-curvature="0" /></g></g><g
         id="g270"><text
           xml:space="preserve"
           style="font-style:normal;font-weight:normal;font-size:300px;line-height:125%;font-family:sans-serif;letter-spacing:0px;word-spacing:0px;fill:#000000;fill-opacity:1;stroke:none;stroke-width:7.5px;stroke-linecap:butt;stroke-linejoin:miter;stroke-opacity:1"
           x="4759.5664"
           y="-2501.2468"
           id="text4945"
           transform="scale(1,-1)"><tspan
             sodipodi:role="line"
             id="tspan4943"
             x="4759.5664"
             y="-2501.2468"
             style="stroke-width:7.5px;font-size:100.00000248px">${\mathcal L_{\rm t}}(\xi)$</tspan></text>
</g><g
         id="g330"><g
           id="g332"
           clip-path="url(#clipPath336)"><path
             d="M 6240.96,1865.45 C 5691.35,1318.81 4793.35,1654.63 4138.22,69.3398"
             style="fill:none;stroke:#ff2400;stroke-width:10;stroke-linecap:round;stroke-linejoin:miter;stroke-miterlimit:10;stroke-dasharray:none;stroke-opacity:1"
             id="path338"
             inkscape:connector-curvature="0" /><path
             d="m 6243.6,1551.98 -104.3,364.85"
             style="fill:none;stroke:#000000;stroke-width:5;stroke-linecap:square;stroke-linejoin:miter;stroke-miterlimit:10;stroke-dasharray:none;stroke-opacity:1"
             id="path340"
             inkscape:connector-curvature="0" /><path
             d="M 4529.51,2362.88 C 3979.9,1816.25 3081.9,2152.07 2426.77,566.781"
             style="fill:none;stroke:#ff2400;stroke-width:10;stroke-linecap:round;stroke-linejoin:miter;stroke-miterlimit:10;stroke-dasharray:none;stroke-opacity:1"
             id="path342"
             inkscape:connector-curvature="0" /><path
             d="M 2419.39,565 4127.45,72.1797"
             style="fill:none;stroke:#ff2400;stroke-width:10;stroke-linecap:round;stroke-linejoin:miter;stroke-miterlimit:10;stroke-dasharray:none;stroke-opacity:1"
             id="path344"
             inkscape:connector-curvature="0" /></g></g><g
         id="g368"><text
           xml:space="preserve"
           style="font-style:normal;font-weight:normal;font-size:300px;line-height:125%;font-family:sans-serif;letter-spacing:0px;word-spacing:0px;fill:#000000;fill-opacity:1;stroke:none;stroke-width:7.5px;stroke-linecap:butt;stroke-linejoin:miter;stroke-opacity:1"
           x="2195.3389"
           y="-1997.3984"
           id="text4972"
           transform="scale(1,-1)"><tspan
             sodipodi:role="line"
             id="tspan4970"
             x="2195.3389"
             y="-1997.3984"
             style="stroke-width:7.5px;font-size:100.00000248px">$\mathcal B_t$</tspan></text>
</g><text
         xml:space="preserve"
         style="font-style:normal;font-weight:normal;font-size:100.00000248px;line-height:125%;font-family:sans-serif;letter-spacing:0px;word-spacing:0px;fill:#000000;fill-opacity:1;stroke:none;stroke-width:7.5px;stroke-linecap:butt;stroke-linejoin:miter;stroke-opacity:1;"
         x="6473.5503"
         y="-2150.3523"
         id="text4894"
         transform="scale(1,-1)"><tspan
           sodipodi:role="line"
           id="tspan4892"
           x="6473.5503"
           y="-2150.3523"
           style="stroke-width:7.5px;font-size:100.00000248px;">${\mathcal {\rm C}}$</tspan></text>
<text
         xml:space="preserve"
         style="font-style:normal;font-weight:normal;font-size:100.00000248px;line-height:125%;font-family:sans-serif;letter-spacing:0px;word-spacing:0px;fill:#000000;fill-opacity:1;stroke:none;stroke-width:7.5px;stroke-linecap:butt;stroke-linejoin:miter;stroke-opacity:1;"
         x="6271.1113"
         y="-1354.0923"
         id="text4898"
         transform="scale(1,-1)"><tspan
           sodipodi:role="line"
           id="tspan4896"
           x="6271.1113"
           y="-1354.0923"
           style="stroke-width:7.5px;font-size:100.00000248px;">+\partial \Gamma$</tspan></text>
<text
         xml:space="preserve"
         style="font-style:normal;font-weight:normal;font-size:100px;line-height:125%;font-family:sans-serif;letter-spacing:0px;word-spacing:0px;fill:#000000;fill-opacity:1;stroke:none;stroke-width:7.5px;stroke-linecap:butt;stroke-linejoin:miter;stroke-opacity:1"
         x="5155.4473"
         y="-1016.6938"
         id="text4902"
         transform="scale(1,-1)"><tspan
           sodipodi:role="line"
           id="tspan4900"
           x="5155.4473"
           y="-1016.6938"
           style="font-size:100px;stroke-width:7.5px">$\Gamma^{-}$</tspan></text>
<text
         transform="scale(1,-1)"
         id="text4937"
         y="-1462.0597"
         x="4777.561"
         style="font-style:normal;font-weight:normal;font-size:100px;line-height:125%;font-family:sans-serif;letter-spacing:0px;word-spacing:0px;fill:#000000;fill-opacity:1;stroke:none;stroke-width:7.5px;stroke-linecap:butt;stroke-linejoin:miter;stroke-opacity:1"
         xml:space="preserve"><tspan
           style="font-size:100px;stroke-width:7.5px"
           y="-1462.0597"
           x="4777.561"
           id="tspan4935"
           sodipodi:role="line">$\Gamma^{-}$</tspan></text>
<text
         xml:space="preserve"
         style="font-style:normal;font-weight:normal;font-size:300px;line-height:125%;font-family:sans-serif;letter-spacing:0px;word-spacing:0px;fill:#000000;fill-opacity:1;stroke:none;stroke-width:7.5px;stroke-linecap:butt;stroke-linejoin:miter;stroke-opacity:1"
         x="1367.5881"
         y="-1695.9894"
         id="text4968"
         transform="scale(1,-1)"><tspan
           sodipodi:role="line"
           id="tspan4966"
           x="1367.5881"
           y="-1695.9894"
           style="font-size:100px;stroke-width:7.5px">$\partial \mathcal B_t$</tspan></text>
<text
         transform="scale(1,-1)"
         id="text4986"
         y="-2910.6233"
         x="1322.6018"
         style="font-style:normal;font-weight:normal;font-size:300px;line-height:125%;font-family:sans-serif;letter-spacing:0px;word-spacing:0px;fill:#000000;fill-opacity:1;stroke:none;stroke-width:7.5px;stroke-linecap:butt;stroke-linejoin:miter;stroke-opacity:1"
         xml:space="preserve"><tspan
           style="stroke-width:7.5px;font-size:100.00000248px"
           y="-2910.6233"
           x="1322.6018"
           id="tspan4984"
           sodipodi:role="line">${\mathcal {\rm C}}$</tspan></text>
<text
         transform="scale(1,-1)"
         id="text4990"
         y="-2195.3386"
         x="494.85107"
         style="font-style:normal;font-weight:normal;font-size:100px;line-height:125%;font-family:sans-serif;letter-spacing:0px;word-spacing:0px;fill:#000000;fill-opacity:1;stroke:none;stroke-width:7.5px;stroke-linecap:butt;stroke-linejoin:miter;stroke-opacity:1"
         xml:space="preserve"><tspan
           style="font-size:100px;stroke-width:7.5px"
           y="-2195.3386"
           x="494.85107"
           id="tspan4988"
           sodipodi:role="line">$\Gamma^{-}$</tspan></text>
<text
         xml:space="preserve"
         style="font-style:normal;font-weight:normal;font-size:100px;line-height:125%;font-family:sans-serif;letter-spacing:0px;word-spacing:0px;fill:#000000;fill-opacity:1;stroke:none;stroke-width:7.5px;stroke-linecap:butt;stroke-linejoin:miter;stroke-opacity:1"
         x="287.91336"
         y="-2555.2305"
         id="text4994"
         transform="scale(1,-1)"><tspan
           sodipodi:role="line"
           id="tspan4992"
           x="287.91336"
           y="-2555.2305"
           style="font-size:100px;stroke-width:7.5px">$\Gamma^{-}$</tspan></text>
<text
         xml:space="preserve"
         style="font-style:normal;font-weight:normal;font-size:100px;line-height:125%;font-family:sans-serif;letter-spacing:0px;word-spacing:0px;fill:#000000;fill-opacity:1;stroke:none;stroke-width:7.5px;stroke-linecap:butt;stroke-linejoin:miter;stroke-opacity:1"
         x="904.22766"
         y="-2901.626"
         id="text4998"
         transform="scale(1,-1)"><tspan
           sodipodi:role="line"
           id="tspan4996"
           x="904.22766"
           y="-2901.626"
           style="stroke-width:7.5px">${\boldsymbol{\rm N}^{+}}$</tspan></text>
<text
         transform="scale(1,-1)"
         id="text5002"
         y="-2361.7886"
         x="1097.6694"
         style="font-style:normal;font-weight:normal;font-size:100px;line-height:125%;font-family:sans-serif;letter-spacing:0px;word-spacing:0px;fill:#000000;fill-opacity:1;stroke:none;stroke-width:7.5px;stroke-linecap:butt;stroke-linejoin:miter;stroke-opacity:1"
         xml:space="preserve"><tspan
           style="stroke-width:7.5px"
           y="-2361.7886"
           x="1097.6694"
           id="tspan5000"
           sodipodi:role="line">${\boldsymbol{\rm N}^{-}}$</tspan></text>
</g><text
       xml:space="preserve"
       style="font-style:normal;font-weight:normal;font-size:10.00000025px;line-height:125%;font-family:sans-serif;letter-spacing:0px;word-spacing:0px;fill:#000000;fill-opacity:1;stroke:none;stroke-width:0.75px;stroke-linecap:butt;stroke-linejoin:miter;stroke-opacity:1;"
       x="559.63141"
       y="-228.53117"
       id="text4941"
       transform="scale(1,-1)"><tspan
         sodipodi:role="line"
         id="tspan4939"
         x="559.63141"
         y="-228.53117"
         style="stroke-width:0.75px;font-size:10.00000025px;">${\mathcal L_{\rm n}}(\eta)$</tspan></text>
</g></svg>