<?xml version="1.0" encoding="UTF-8" standalone="no"?>
<!-- Created with Inkscape (http://www.inkscape.org/) -->

<svg
   xmlns:ns0="http://www.iki.fi/pav/software/textext/"
   xmlns:dc="http://purl.org/dc/elements/1.1/"
   xmlns:cc="http://creativecommons.org/ns#"
   xmlns:rdf="http://www.w3.org/1999/02/22-rdf-syntax-ns#"
   xmlns:svg="http://www.w3.org/2000/svg"
   xmlns="http://www.w3.org/2000/svg"
   xmlns:xlink="http://www.w3.org/1999/xlink"
   xmlns:sodipodi="http://sodipodi.sourceforge.net/DTD/sodipodi-0.dtd"
   xmlns:inkscape="http://www.inkscape.org/namespaces/inkscape"
   sodipodi:docname="HierarchicalNaturals.svg"
   inkscape:version="0.91 r13725"
   version="1.1"
   id="svg17051"
   viewBox="0 0 744.09448819 1052.3622047"
   height="297mm"
   width="210mm">
  <sodipodi:namedview
     inkscape:snap-global="false"
     inkscape:window-maximized="1"
     inkscape:window-y="0"
     inkscape:window-x="0"
     inkscape:window-height="1028"
     inkscape:window-width="1680"
     inkscape:snap-center="true"
     inkscape:snap-object-midpoints="true"
     inkscape:snap-midpoints="true"
     inkscape:snap-smooth-nodes="true"
     inkscape:object-nodes="true"
     inkscape:snap-intersection-paths="true"
     inkscape:object-paths="true"
     inkscape:snap-bbox-midpoints="true"
     inkscape:snap-bbox-edge-midpoints="true"
     inkscape:bbox-nodes="true"
     inkscape:bbox-paths="true"
     inkscape:snap-bbox="true"
     showgrid="false"
     inkscape:current-layer="layer1"
     inkscape:document-units="px"
     inkscape:cy="705.76169"
     inkscape:cx="406.17569"
     inkscape:zoom="0.64"
     inkscape:pageshadow="2"
     inkscape:pageopacity="0.0"
     borderopacity="1.0"
     bordercolor="#666666"
     pagecolor="#ffffff"
     id="base" />
  <defs
     id="defs17053">
    <marker
       inkscape:stockid="Arrow2Mend"
       orient="auto"
       refY="0.0"
       refX="0.0"
       id="marker19269"
       style="overflow:visible;"
       inkscape:isstock="true">
      <path
         id="path19271"
         style="fill-rule:evenodd;stroke-width:0.625;stroke-linejoin:round;stroke:#000000;stroke-opacity:1;fill:#000000;fill-opacity:1"
         d="M 8.7185878,4.0337352 L -2.2072895,0.016013256 L 8.7185884,-4.0017078 C 6.9730900,-1.6296469 6.9831476,1.6157441 8.7185878,4.0337352 z "
         transform="scale(0.6) rotate(180) translate(0,0)" />
    </marker>
    <marker
       inkscape:stockid="Arrow2Mend"
       orient="auto"
       refY="0.0"
       refX="0.0"
       id="marker19173"
       style="overflow:visible;"
       inkscape:isstock="true">
      <path
         id="path19175"
         style="fill-rule:evenodd;stroke-width:0.625;stroke-linejoin:round;stroke:#000000;stroke-opacity:1;fill:#000000;fill-opacity:1"
         d="M 8.7185878,4.0337352 L -2.2072895,0.016013256 L 8.7185884,-4.0017078 C 6.9730900,-1.6296469 6.9831476,1.6157441 8.7185878,4.0337352 z "
         transform="scale(0.6) rotate(180) translate(0,0)" />
    </marker>
    <marker
       inkscape:stockid="Arrow2Mstart"
       orient="auto"
       refY="0.0"
       refX="0.0"
       id="marker14246"
       style="overflow:visible"
       inkscape:isstock="true">
      <path
         id="path14248"
         style="fill-rule:evenodd;stroke-width:0.625;stroke-linejoin:round;stroke:#000000;stroke-opacity:1;fill:#000000;fill-opacity:1"
         d="M 8.7185878,4.0337352 L -2.2072895,0.016013256 L 8.7185884,-4.0017078 C 6.9730900,-1.6296469 6.9831476,1.6157441 8.7185878,4.0337352 z "
         transform="scale(0.6) translate(0,0)" />
    </marker>
    <marker
       inkscape:isstock="true"
       style="overflow:visible;"
       id="marker14168"
       refX="0.0"
       refY="0.0"
       orient="auto"
       inkscape:stockid="Arrow2Mend">
      <path
         transform="scale(0.6) rotate(180) translate(0,0)"
         d="M 8.7185878,4.0337352 L -2.2072895,0.016013256 L 8.7185884,-4.0017078 C 6.9730900,-1.6296469 6.9831476,1.6157441 8.7185878,4.0337352 z "
         style="fill-rule:evenodd;stroke-width:0.625;stroke-linejoin:round;stroke:#000000;stroke-opacity:1;fill:#000000;fill-opacity:1"
         id="path14170" />
    </marker>
    <marker
       inkscape:isstock="true"
       style="overflow:visible"
       id="TriangleOutL"
       refX="0.0"
       refY="0.0"
       orient="auto"
       inkscape:stockid="TriangleOutL">
      <path
         transform="scale(0.8)"
         style="fill-rule:evenodd;stroke:#000000;stroke-width:1pt;stroke-opacity:1;fill:#000000;fill-opacity:1"
         d="M 5.77,0.0 L -2.88,5.0 L -2.88,-5.0 L 5.77,0.0 z "
         id="path9101" />
    </marker>
    <marker
       inkscape:isstock="true"
       style="overflow:visible"
       id="TriangleOutM"
       refX="0.0"
       refY="0.0"
       orient="auto"
       inkscape:stockid="TriangleOutM">
      <path
         transform="scale(0.4)"
         style="fill-rule:evenodd;stroke:#000000;stroke-width:1pt;stroke-opacity:1;fill:#000000;fill-opacity:1"
         d="M 5.77,0.0 L -2.88,5.0 L -2.88,-5.0 L 5.77,0.0 z "
         id="path9104" />
    </marker>
    <defs
       id="defs20422">
      <g
         id="g20424">
        <symbol
           id="textext-3b5955e5-0"
           overflow="visible"
           style="overflow:visible">
          <path
             id="path20427"
             d=""
             style="stroke:none"
             inkscape:connector-curvature="0" />
        </symbol>
        <symbol
           id="textext-3b5955e5-1"
           overflow="visible"
           style="overflow:visible">
          <path
             id="path20430"
             d="m 2.734375,-7.0625 c -0.65625,0 -1.25,0.28125 -1.625,0.765625 -0.453125,0.625 -0.6875,1.578125 -0.6875,2.875 0,2.390625 0.796875,3.65625 2.3125,3.65625 1.5,0 2.3125,-1.265625 2.3125,-3.59375 0,-1.375 -0.21875,-2.296875 -0.6875,-2.9375 C 4,-6.78125 3.40625,-7.0625 2.734375,-7.0625 Z m 0,0.765625 c 0.953125,0 1.421875,0.96875 1.421875,2.859375 0,2 -0.453125,2.9375 -1.4375,2.9375 -0.921875,0 -1.390625,-0.96875 -1.390625,-2.90625 0,-1.9375 0.46875,-2.890625 1.40625,-2.890625 z m 0,0"
             style="stroke:none"
             inkscape:connector-curvature="0" />
        </symbol>
      </g>
    </defs>
    <defs
       id="defs43825">
      <g
         id="g43827">
        <symbol
           style="overflow:visible"
           overflow="visible"
           id="symbol43829">
          <path
             inkscape:connector-curvature="0"
             style="stroke:none"
             d=""
             id="path43831" />
        </symbol>
        <symbol
           style="overflow:visible"
           overflow="visible"
           id="symbol43833">
          <path
             inkscape:connector-curvature="0"
             style="stroke:none"
             d="m 2.734375,-7.0625 c -0.65625,0 -1.25,0.28125 -1.625,0.765625 -0.453125,0.625 -0.6875,1.578125 -0.6875,2.875 0,2.390625 0.796875,3.65625 2.3125,3.65625 1.5,0 2.3125,-1.265625 2.3125,-3.59375 0,-1.375 -0.21875,-2.296875 -0.6875,-2.9375 C 4,-6.78125 3.40625,-7.0625 2.734375,-7.0625 Z m 0,0.765625 c 0.953125,0 1.421875,0.96875 1.421875,2.859375 0,2 -0.453125,2.9375 -1.4375,2.9375 -0.921875,0 -1.390625,-0.96875 -1.390625,-2.90625 0,-1.9375 0.46875,-2.890625 1.40625,-2.890625 z m 0,0"
             id="path43835" />
        </symbol>
      </g>
    </defs>
  </defs>
  <metadata
     id="metadata17056">
    <rdf:RDF>
      <cc:Work
         rdf:about="">
        <dc:format>image/svg+xml</dc:format>
        <dc:type
           rdf:resource="http://purl.org/dc/dcmitype/StillImage" />
        <dc:title></dc:title>
      </cc:Work>
    </rdf:RDF>
  </metadata>
  <g
     id="layer1"
     inkscape:groupmode="layer"
     inkscape:label="Layer 1">
    <path
       sodipodi:nodetypes="cc"
       inkscape:connector-curvature="0"
       id="path19157"
       d="m -623.18625,541.89655 609.862607,0"
       style="fill:none;stroke:#000000;stroke-width:10;stroke-linecap:butt;stroke-linejoin:miter;stroke-miterlimit:4;stroke-dasharray:none;stroke-opacity:1" />
    <path
       sodipodi:nodetypes="cc"
       inkscape:connector-curvature="0"
       id="path19161"
       d="m -13.323643,541.89655 621.807153,0"
       style="fill:none;stroke:#000000;stroke-width:10;stroke-linecap:butt;stroke-linejoin:miter;stroke-miterlimit:4;stroke-dasharray:none;stroke-opacity:1" />
    <path
       inkscape:connector-curvature="0"
       id="path19163"
       d="m -641.42857,430.93363 0,-122.85714"
       style="fill:none;stroke:#000000;stroke-width:4;stroke-linecap:butt;stroke-linejoin:miter;stroke-miterlimit:4;stroke-dasharray:none;stroke-opacity:1" />
    <path
       inkscape:connector-curvature="0"
       id="path19267"
       d="m -643.42857,369.54349 261.819,0"
       style="fill:none;stroke:#000000;stroke-width:4;stroke-linecap:butt;stroke-linejoin:miter;stroke-miterlimit:4;stroke-dasharray:none;stroke-opacity:1;marker-end:url(#marker19269)" />
    <circle
       r="18.93041"
       cy="543.159"
       cx="628.67639"
       id="circle20653"
       style="opacity:1;fill:#ffffff;fill-opacity:1;stroke:#010001;stroke-width:7.59332085;stroke-miterlimit:4;stroke-dasharray:none;stroke-dashoffset:0;stroke-opacity:1" />
    <circle
       id="circle43821"
       style="fill:#000000;stroke:none"
       cx="-643.10382"
       cy="542.14893"
       r="21.061823" />
    <g
       transform="matrix(11.496885,0,0,11.496885,-3246.8315,-876.93831)"
       id="g43837">
      <g
         style="fill:#000000;fill-opacity:1"
         id="g43839">
        <use
           height="100%"
           width="100%"
           xlink:href="#textext-3b5955e5-1"
           x="223.43201"
           y="134.765"
           id="use43841" />
      </g>
    </g>
    <g
       id="g44049"
       ns0:preamble="/Users/ignathanas/Documents/Contributions/Contact_1/AMA-stix/ama/figures/textext.preambleArial.tex"
       ns0:text="+1"
       transform="matrix(12.222718,0,0,11.539462,-2207.7777,-881.9508)">
      <defs
         id="defs44051">
        <g
           id="g44053">
          <symbol
             style="overflow:visible"
             id="textext-07f3cda5-0"
             overflow="visible">
            <path
               inkscape:connector-curvature="0"
               id="path44056"
               d=""
               style="stroke:none" />
          </symbol>
          <symbol
             style="overflow:visible"
             id="textext-07f3cda5-1"
             overflow="visible">
            <path
               inkscape:connector-curvature="0"
               id="path44059"
               d="m 5.328125,-2.65625 -2.0625,0 0,-2.0625 -0.703125,0 0,2.0625 -2.0625,0 0,0.6875 2.0625,0 0,2.0625 0.703125,0 0,-2.0625 2.0625,0 z m 0,0"
               style="stroke:none" />
          </symbol>
          <symbol
             style="overflow:visible"
             id="textext-07f3cda5-2"
             overflow="visible">
            <path
               inkscape:connector-curvature="0"
               id="path44062"
               d="m 2.578125,-5.03125 0,5.03125 0.875,0 0,-7.0625 -0.578125,0 c -0.296875,1.078125 -0.5,1.234375 -1.859375,1.40625 l 0,0.625 z m 0,0"
               style="stroke:none" />
          </symbol>
        </g>
      </defs>
      <g
         id="textext-07f3cda5-3">
        <g
           id="g44065"
           style="fill:#000000;fill-opacity:1">
          <use
             height="100%"
             width="100%"
             id="use44067"
             y="134.765"
             x="223.43201"
             xlink:href="#textext-07f3cda5-1" />
          <use
             height="100%"
             width="100%"
             id="use44069"
             y="134.765"
             x="229.25015"
             xlink:href="#textext-07f3cda5-2" />
        </g>
      </g>
    </g>
    <g
       transform="matrix(12.222718,0,0,11.539462,-2207.7777,-881.9508)"
       ns0:text="+1"
       ns0:preamble="/Users/ignathanas/Documents/Contributions/Contact_1/AMA-stix/ama/figures/textext.preambleArial.tex"
       id="g44209">
      <defs
         id="defs44211">
        <g
           id="g44213">
          <symbol
             style="overflow:visible"
             overflow="visible"
             id="symbol44215">
            <path
               inkscape:connector-curvature="0"
               style="stroke:none"
               d=""
               id="path44217" />
          </symbol>
          <symbol
             style="overflow:visible"
             overflow="visible"
             id="symbol44219">
            <path
               inkscape:connector-curvature="0"
               style="stroke:none"
               d="m 5.328125,-2.65625 -2.0625,0 0,-2.0625 -0.703125,0 0,2.0625 -2.0625,0 0,0.6875 2.0625,0 0,2.0625 0.703125,0 0,-2.0625 2.0625,0 z m 0,0"
               id="path44221" />
          </symbol>
          <symbol
             style="overflow:visible"
             overflow="visible"
             id="symbol44223">
            <path
               inkscape:connector-curvature="0"
               style="stroke:none"
               d="m 2.578125,-5.03125 0,5.03125 0.875,0 0,-7.0625 -0.578125,0 c -0.296875,1.078125 -0.5,1.234375 -1.859375,1.40625 l 0,0.625 z m 0,0"
               id="path44225" />
          </symbol>
        </g>
      </defs>
      <g
         id="g44227">
        <g
           style="fill:#000000;fill-opacity:1"
           id="g44229">
          <use
             height="100%"
             width="100%"
             xlink:href="#textext-07f3cda5-1"
             x="223.43201"
             y="134.765"
             id="use44231" />
          <use
             height="100%"
             width="100%"
             xlink:href="#textext-07f3cda5-2"
             x="229.25015"
             y="134.765"
             id="use44233" />
        </g>
      </g>
    </g>
    <g
       id="g44408"
       ns0:preamble="/Users/ignathanas/Documents/Contributions/Contact_1/AMA-stix/ama/figures/textext.preambleArial.tex"
       ns0:text="+1"
       transform="matrix(12.222718,0,0,11.539462,-2207.7777,-881.9508)">
      <defs
         id="defs44410">
        <g
           id="g44412">
          <symbol
             style="overflow:visible"
             id="symbol44414"
             overflow="visible">
            <path
               inkscape:connector-curvature="0"
               id="path44416"
               d=""
               style="stroke:none" />
          </symbol>
          <symbol
             style="overflow:visible"
             id="symbol44418"
             overflow="visible">
            <path
               inkscape:connector-curvature="0"
               id="path44420"
               d="m 5.328125,-2.65625 -2.0625,0 0,-2.0625 -0.703125,0 0,2.0625 -2.0625,0 0,0.6875 2.0625,0 0,2.0625 0.703125,0 0,-2.0625 2.0625,0 z m 0,0"
               style="stroke:none" />
          </symbol>
          <symbol
             style="overflow:visible"
             id="symbol44422"
             overflow="visible">
            <path
               inkscape:connector-curvature="0"
               id="path44424"
               d="m 2.578125,-5.03125 0,5.03125 0.875,0 0,-7.0625 -0.578125,0 c -0.296875,1.078125 -0.5,1.234375 -1.859375,1.40625 l 0,0.625 z m 0,0"
               style="stroke:none" />
          </symbol>
        </g>
      </defs>
      <g
         id="g44426">
        <g
           id="g44428"
           style="fill:#000000;fill-opacity:1">
          <use
             height="100%"
             width="100%"
             id="use44430"
             y="134.765"
             x="223.43201"
             xlink:href="#textext-07f3cda5-1" />
          <use
             height="100%"
             width="100%"
             id="use44432"
             y="134.765"
             x="229.25015"
             xlink:href="#textext-07f3cda5-2" />
        </g>
      </g>
    </g>
    <g
       transform="matrix(12.222718,0,0,11.539462,-2207.7777,-881.9508)"
       ns0:text="+1"
       ns0:preamble="/Users/ignathanas/Documents/Contributions/Contact_1/AMA-stix/ama/figures/textext.preambleArial.tex"
       id="g44630">
      <defs
         id="defs44632">
        <g
           id="g44634">
          <symbol
             style="overflow:visible"
             overflow="visible"
             id="symbol44636">
            <path
               inkscape:connector-curvature="0"
               style="stroke:none"
               d=""
               id="path44638" />
          </symbol>
          <symbol
             style="overflow:visible"
             overflow="visible"
             id="symbol44640">
            <path
               inkscape:connector-curvature="0"
               style="stroke:none"
               d="m 5.328125,-2.65625 -2.0625,0 0,-2.0625 -0.703125,0 0,2.0625 -2.0625,0 0,0.6875 2.0625,0 0,2.0625 0.703125,0 0,-2.0625 2.0625,0 z m 0,0"
               id="path44642" />
          </symbol>
          <symbol
             style="overflow:visible"
             overflow="visible"
             id="symbol44644">
            <path
               inkscape:connector-curvature="0"
               style="stroke:none"
               d="m 2.578125,-5.03125 0,5.03125 0.875,0 0,-7.0625 -0.578125,0 c -0.296875,1.078125 -0.5,1.234375 -1.859375,1.40625 l 0,0.625 z m 0,0"
               id="path44646" />
          </symbol>
        </g>
      </defs>
      <g
         id="g44648">
        <g
           style="fill:#000000;fill-opacity:1"
           id="g44650">
          <use
             height="100%"
             width="100%"
             xlink:href="#textext-07f3cda5-1"
             x="223.43201"
             y="134.765"
             id="use44652" />
          <use
             height="100%"
             width="100%"
             xlink:href="#textext-07f3cda5-2"
             x="229.25015"
             y="134.765"
             id="use44654" />
        </g>
      </g>
    </g>
    <g
       ns0:text="$\\xi$"
       ns0:preamble="/Users/ignathanas/Documents/Contributions/Contact_1/AMA-stix/ama/figures/textext.preamble.tex"
       transform="matrix(11.906333,0,0,11.906333,-3188.0701,-1266.4865)"
       id="g53442">
      <defs
         id="defs53444">
        <g
           id="g53446">
          <symbol
             overflow="visible"
             id="symbol53448"
             style="overflow:visible">
            <path
               style="stroke:none"
               d=""
               id="path53450"
               inkscape:connector-curvature="0" />
          </symbol>
          <symbol
             overflow="visible"
             id="symbol53452"
             style="overflow:visible">
            <path
               style="stroke:none"
               d="m 4.640625,-5.90625 c 0,-0.140625 -0.046875,-0.234375 -0.21875,-0.234375 -0.6875,0 -1.046875,0.640625 -1.4375,0.640625 -0.265625,0 -0.34375,-0.265625 -0.34375,-0.46875 0,-0.265625 0.328125,-0.46875 0.484375,-0.546875 l -0.515625,0 C 2.59375,-6.515625 2.25,-6.3125 2.25,-5.96875 c 0,0.4375 0.25,0.5 0.46875,0.609375 l 0,0.015625 c -0.015625,0 -1.6875,0.421875 -1.6875,1.46875 0,0.828125 1.015625,0.890625 1.03125,0.890625 l 0,0.03125 c -0.015625,0 -2.125,0.4375 -2.125,1.96875 0,0.9375 0.734375,1.1875 1.515625,1.1875 0.71875,0 1.375,0.03125 1.375,0.53125 0,0.625 -0.75,1.09375 -1.265625,1.09375 C 1.171875,1.828125 1.15625,1.5 1.15625,1.375 1.046875,1.421875 0.671875,1.59375 0.671875,1.8125 c 0,0.171875 0.265625,0.25 0.4375,0.25 1.1875,0 2.09375,-0.59375 2.09375,-1.6875 0,-0.6875 -0.734375,-0.765625 -1.203125,-0.765625 -0.703125,0 -1.078125,-0.3125 -1.078125,-0.828125 0,-1.078125 1.046875,-1.578125 1.6875,-1.578125 0.546875,0 0.796875,0.109375 0.953125,0.109375 0.25,0 0.5,-0.140625 0.5,-0.46875 0,-0.171875 -0.03125,-0.265625 -0.25,-0.265625 -0.28125,0 -0.578125,0.25 -1.265625,0.25 -0.59375,0 -0.65625,-0.390625 -0.65625,-0.671875 0,-0.921875 1.015625,-1.390625 1.03125,-1.390625 0.3125,0.0625 0.5625,0.078125 0.765625,0.078125 0.8125,0 0.953125,-0.390625 0.953125,-0.75 z m 0,0"
               id="path53454"
               inkscape:connector-curvature="0" />
          </symbol>
        </g>
      </defs>
      <g
         id="g53456">
        <g
           style="fill:#000000;fill-opacity:1"
           id="g53458">
          <g
             id="use53460"
             transform="translate(223.532,134.765)">
            <path
               style="stroke:none"
               d="m 4.640625,-5.90625 c 0,-0.140625 -0.046875,-0.234375 -0.21875,-0.234375 -0.6875,0 -1.046875,0.640625 -1.4375,0.640625 -0.265625,0 -0.34375,-0.265625 -0.34375,-0.46875 0,-0.265625 0.328125,-0.46875 0.484375,-0.546875 l -0.515625,0 C 2.59375,-6.515625 2.25,-6.3125 2.25,-5.96875 c 0,0.4375 0.25,0.5 0.46875,0.609375 l 0,0.015625 c -0.015625,0 -1.6875,0.421875 -1.6875,1.46875 0,0.828125 1.015625,0.890625 1.03125,0.890625 l 0,0.03125 c -0.015625,0 -2.125,0.4375 -2.125,1.96875 0,0.9375 0.734375,1.1875 1.515625,1.1875 0.71875,0 1.375,0.03125 1.375,0.53125 0,0.625 -0.75,1.09375 -1.265625,1.09375 C 1.171875,1.828125 1.15625,1.5 1.15625,1.375 1.046875,1.421875 0.671875,1.59375 0.671875,1.8125 c 0,0.171875 0.265625,0.25 0.4375,0.25 1.1875,0 2.09375,-0.59375 2.09375,-1.6875 0,-0.6875 -0.734375,-0.765625 -1.203125,-0.765625 -0.703125,0 -1.078125,-0.3125 -1.078125,-0.828125 0,-1.078125 1.046875,-1.578125 1.6875,-1.578125 0.546875,0 0.796875,0.109375 0.953125,0.109375 0.25,0 0.5,-0.140625 0.5,-0.46875 0,-0.171875 -0.03125,-0.265625 -0.25,-0.265625 -0.28125,0 -0.578125,0.25 -1.265625,0.25 -0.59375,0 -0.65625,-0.390625 -0.65625,-0.671875 0,-0.921875 1.015625,-1.390625 1.03125,-1.390625 0.3125,0.0625 0.5625,0.078125 0.765625,0.078125 0.8125,0 0.953125,-0.390625 0.953125,-0.75 z m 0,0"
               id="path53468"
               inkscape:connector-curvature="0" />
          </g>
        </g>
      </g>
    </g>
  </g>
</svg>
