<?xml version="1.0" encoding="UTF-8" standalone="no"?>
<!-- Created with Inkscape (http://www.inkscape.org/) -->

<svg
   xmlns:ns0="http://www.iki.fi/pav/software/textext/"
   xmlns:dc="http://purl.org/dc/elements/1.1/"
   xmlns:cc="http://creativecommons.org/ns#"
   xmlns:rdf="http://www.w3.org/1999/02/22-rdf-syntax-ns#"
   xmlns:svg="http://www.w3.org/2000/svg"
   xmlns="http://www.w3.org/2000/svg"
   xmlns:xlink="http://www.w3.org/1999/xlink"
   xmlns:sodipodi="http://sodipodi.sourceforge.net/DTD/sodipodi-0.dtd"
   xmlns:inkscape="http://www.inkscape.org/namespaces/inkscape"
   width="210mm"
   height="297mm"
   viewBox="0 0 210 297"
   version="1.1"
   id="svg8"
   inkscape:version="0.91 r13725"
   sodipodi:docname="Hierarchical2nd.svg">
  <sodipodi:namedview
     id="base"
     pagecolor="#ffffff"
     bordercolor="#666666"
     borderopacity="1.0"
     inkscape:pageopacity="0.0"
     inkscape:pageshadow="2"
     inkscape:zoom="0.24748738"
     inkscape:cx="144.14592"
     inkscape:cy="254.10463"
     inkscape:document-units="mm"
     inkscape:current-layer="layer1"
     showgrid="false"
     inkscape:snap-bbox="true"
     inkscape:bbox-paths="true"
     inkscape:bbox-nodes="true"
     inkscape:snap-bbox-edge-midpoints="true"
     inkscape:snap-bbox-midpoints="true"
     inkscape:snap-intersection-paths="true"
     inkscape:object-paths="true"
     inkscape:snap-smooth-nodes="true"
     inkscape:snap-midpoints="true"
     inkscape:snap-object-midpoints="true"
     inkscape:snap-center="true"
     inkscape:snap-global="false"
     inkscape:window-width="1219"
     inkscape:window-height="750"
     inkscape:window-x="66"
     inkscape:window-y="0"
     inkscape:window-maximized="0" />
  <defs
     id="defs2">
    <marker
       inkscape:stockid="Arrow2Mend"
       orient="auto"
       refY="0.0"
       refX="0.0"
       id="marker19269"
       style="overflow:visible;"
       inkscape:isstock="true">
      <path
         id="path19271"
         style="fill-rule:evenodd;stroke-width:0.625;stroke-linejoin:round;stroke:#000000;stroke-opacity:1;fill:#000000;fill-opacity:1"
         d="M 8.7185878,4.0337352 L -2.2072895,0.016013256 L 8.7185884,-4.0017078 C 6.9730900,-1.6296469 6.9831476,1.6157441 8.7185878,4.0337352 z "
         transform="scale(0.6) rotate(180) translate(0,0)" />
    </marker>
    <marker
       inkscape:stockid="Arrow2Mend"
       orient="auto"
       refY="0.0"
       refX="0.0"
       id="marker19173"
       style="overflow:visible;"
       inkscape:isstock="true">
      <path
         id="path19175"
         style="fill-rule:evenodd;stroke-width:0.625;stroke-linejoin:round;stroke:#000000;stroke-opacity:1;fill:#000000;fill-opacity:1"
         d="M 8.7185878,4.0337352 L -2.2072895,0.016013256 L 8.7185884,-4.0017078 C 6.9730900,-1.6296469 6.9831476,1.6157441 8.7185878,4.0337352 z "
         transform="scale(0.6) rotate(180) translate(0,0)" />
    </marker>
    <marker
       inkscape:stockid="Arrow2Mstart"
       orient="auto"
       refY="0.0"
       refX="0.0"
       id="marker14246"
       style="overflow:visible"
       inkscape:isstock="true">
      <path
         id="path14248"
         style="fill-rule:evenodd;stroke-width:0.625;stroke-linejoin:round;stroke:#000000;stroke-opacity:1;fill:#000000;fill-opacity:1"
         d="M 8.7185878,4.0337352 L -2.2072895,0.016013256 L 8.7185884,-4.0017078 C 6.9730900,-1.6296469 6.9831476,1.6157441 8.7185878,4.0337352 z "
         transform="scale(0.6) translate(0,0)" />
    </marker>
    <marker
       inkscape:isstock="true"
       style="overflow:visible;"
       id="marker14168"
       refX="0.0"
       refY="0.0"
       orient="auto"
       inkscape:stockid="Arrow2Mend">
      <path
         transform="scale(0.6) rotate(180) translate(0,0)"
         d="M 8.7185878,4.0337352 L -2.2072895,0.016013256 L 8.7185884,-4.0017078 C 6.9730900,-1.6296469 6.9831476,1.6157441 8.7185878,4.0337352 z "
         style="fill-rule:evenodd;stroke-width:0.625;stroke-linejoin:round;stroke:#000000;stroke-opacity:1;fill:#000000;fill-opacity:1"
         id="path14170" />
    </marker>
    <marker
       inkscape:isstock="true"
       style="overflow:visible"
       id="TriangleOutL"
       refX="0.0"
       refY="0.0"
       orient="auto"
       inkscape:stockid="TriangleOutL">
      <path
         transform="scale(0.8)"
         style="fill-rule:evenodd;stroke:#000000;stroke-width:1pt;stroke-opacity:1;fill:#000000;fill-opacity:1"
         d="M 5.77,0.0 L -2.88,5.0 L -2.88,-5.0 L 5.77,0.0 z "
         id="path9101" />
    </marker>
    <marker
       inkscape:isstock="true"
       style="overflow:visible"
       id="TriangleOutM"
       refX="0.0"
       refY="0.0"
       orient="auto"
       inkscape:stockid="TriangleOutM">
      <path
         transform="scale(0.4)"
         style="fill-rule:evenodd;stroke:#000000;stroke-width:1pt;stroke-opacity:1;fill:#000000;fill-opacity:1"
         d="M 5.77,0.0 L -2.88,5.0 L -2.88,-5.0 L 5.77,0.0 z "
         id="path9104" />
    </marker>
  </defs>
  <metadata
     id="metadata5">
    <rdf:RDF>
      <cc:Work
         rdf:about="">
        <dc:format>image/svg+xml</dc:format>
        <dc:type
           rdf:resource="http://purl.org/dc/dcmitype/StillImage" />
        <dc:title></dc:title>
      </cc:Work>
    </rdf:RDF>
  </metadata>
  <g
     id="layer1"
     inkscape:groupmode="layer"
     inkscape:label="Layer 1">
    <circle
       r="5.3849444"
       cy="208.18625"
       cx="-110.8254"
       id="path4485"
       style="opacity:1;fill:none;fill-opacity:1;stroke:#010001;stroke-width:2.15999627;stroke-miterlimit:4;stroke-dasharray:none;stroke-dashoffset:0;stroke-opacity:1" />
    <path
       inkscape:connector-curvature="0"
       id="path4489"
       d="m -105.90255,209.03013 346.73158,0"
       style="color:#000000;clip-rule:nonzero;display:inline;overflow:visible;visibility:visible;opacity:1;isolation:auto;mix-blend-mode:normal;color-interpolation:sRGB;color-interpolation-filters:linearRGB;solid-color:#000000;solid-opacity:1;fill:#0000ff;fill-opacity:1;fill-rule:evenodd;stroke:#000000;stroke-width:2.47364593;stroke-linecap:butt;stroke-linejoin:miter;stroke-miterlimit:4;stroke-dasharray:none;stroke-dashoffset:0;stroke-opacity:1;color-rendering:auto;image-rendering:auto;shape-rendering:auto;text-rendering:auto;enable-background:accumulate" />
    <g
       id="g4514"
       ns0:preamble="/Users/ignathanas/Downloads/preamble (1).tex"
       ns0:text="0"
       transform="matrix(3.0410119,0,0,3.0410119,-800.63199,-165.08695)">
      <defs
         id="defs4507">
        <g
           id="g4505">
          <symbol
             id="textext-12000d8a-0"
             overflow="visible"
             style="overflow:visible">
            <path
               id="path4499"
               d=""
               style="stroke:none"
               inkscape:connector-curvature="0" />
          </symbol>
          <symbol
             id="textext-12000d8a-1"
             overflow="visible"
             style="overflow:visible">
            <path
               id="path4502"
               d="m 2.734375,-7.0625 c -0.65625,0 -1.25,0.28125 -1.625,0.765625 -0.453125,0.625 -0.6875,1.578125 -0.6875,2.875 0,2.390625 0.796875,3.65625 2.3125,3.65625 1.5,0 2.3125,-1.265625 2.3125,-3.59375 0,-1.375 -0.21875,-2.296875 -0.6875,-2.9375 C 4,-6.78125 3.40625,-7.0625 2.734375,-7.0625 Z m 0,0.765625 c 0.953125,0 1.421875,0.96875 1.421875,2.859375 0,2 -0.453125,2.9375 -1.4375,2.9375 -0.921875,0 -1.390625,-0.96875 -1.390625,-2.90625 0,-1.9375 0.46875,-2.890625 1.40625,-2.890625 z m 0,0"
               style="stroke:none"
               inkscape:connector-curvature="0" />
          </symbol>
        </g>
      </defs>
      <g
         id="textext-12000d8a-2">
        <g
           id="g4511"
           style="fill:#000000;fill-opacity:1">
          <use
             id="use4509"
             y="134.765"
             x="223.43201"
             xlink:href="#textext-12000d8a-1"
             width="100%"
             height="100%" />
        </g>
      </g>
    </g>
    <g
       ns0:text="1"
       ns0:preamble="/Users/ignathanas/Downloads/preamble (1).tex"
       transform="matrix(3.0410119,0,0,3.0410119,-440.15987,-163.8959)"
       id="g4585">
      <defs
         id="defs4578">
        <g
           id="g4576">
          <symbol
             style="overflow:visible"
             overflow="visible"
             id="textext-aebf91a3-0">
            <path
               inkscape:connector-curvature="0"
               style="stroke:none"
               d=""
               id="path4570" />
          </symbol>
          <symbol
             style="overflow:visible"
             overflow="visible"
             id="textext-aebf91a3-1">
            <path
               inkscape:connector-curvature="0"
               style="stroke:none"
               d="m 2.578125,-5.03125 0,5.03125 0.875,0 0,-7.0625 -0.578125,0 c -0.296875,1.078125 -0.5,1.234375 -1.859375,1.40625 l 0,0.625 z m 0,0"
               id="path4573" />
          </symbol>
        </g>
      </defs>
      <g
         id="textext-aebf91a3-2">
        <g
           style="fill:#000000;fill-opacity:1"
           id="g4582">
          <use
             height="100%"
             width="100%"
             xlink:href="#textext-aebf91a3-1"
             x="223.43201"
             y="134.765"
             id="use4580" />
        </g>
      </g>
    </g>
    <path
       sodipodi:nodetypes="cc"
       style="color:#000000;clip-rule:nonzero;display:inline;overflow:visible;visibility:visible;opacity:1;isolation:auto;mix-blend-mode:normal;color-interpolation:sRGB;color-interpolation-filters:linearRGB;solid-color:#000000;solid-opacity:1;fill:none;fill-opacity:1;fill-rule:evenodd;stroke:#000000;stroke-width:1.28205454;stroke-linecap:butt;stroke-linejoin:miter;stroke-miterlimit:4;stroke-dasharray:none;stroke-dashoffset:0;stroke-opacity:1;color-rendering:auto;image-rendering:auto;shape-rendering:auto;text-rendering:auto;enable-background:accumulate"
       d="M -107.84089,203.2151 C 29.303924,47.928202 141.04341,99.336165 241.91838,205.19222"
       id="path8227"
       inkscape:connector-curvature="0" />
    <g
       id="g8281"
       transform="matrix(3.0410119,0,0,3.0410119,-629.19548,-314.38089)"
       ns0:preamble="/Users/ignathanas/Downloads/preamble (1).tex"
       ns0:text="$N_2$">
      <defs
         id="defs8270">
        <g
           id="g8268">
          <symbol
             id="textext-23c419b7-0"
             overflow="visible"
             style="overflow:visible">
            <path
               id="path8256"
               d=""
               style="stroke:none"
               inkscape:connector-curvature="0" />
          </symbol>
          <symbol
             id="textext-23c419b7-1"
             overflow="visible"
             style="overflow:visible">
            <path
               id="path8259"
               d="M 7.53125,-5.765625 C 7.640625,-6.15625 7.8125,-6.46875 8.609375,-6.5 c 0.046875,0 0.171875,-0.015625 0.171875,-0.203125 0,0 0,-0.109375 -0.125,-0.109375 -0.328125,0 -0.6875,0.03125 -1.015625,0.03125 -0.328125,0 -0.6875,-0.03125 -1.015625,-0.03125 -0.0625,0 -0.171875,0 -0.171875,0.203125 C 6.453125,-6.5 6.546875,-6.5 6.625,-6.5 c 0.578125,0.015625 0.6875,0.21875 0.6875,0.4375 0,0.03125 -0.03125,0.1875 -0.03125,0.203125 l -1.125,4.4375 L 3.953125,-6.625 C 3.875,-6.796875 3.875,-6.8125 3.640625,-6.8125 l -1.34375,0 c -0.1875,0 -0.28125,0 -0.28125,0.203125 0,0.109375 0.09375,0.109375 0.28125,0.109375 0.046875,0 0.671875,0 0.671875,0.09375 L 1.640625,-1.0625 c -0.109375,0.40625 -0.28125,0.71875 -1.078125,0.75 -0.0625,0 -0.171875,0.015625 -0.171875,0.203125 0,0.0625 0.046875,0.109375 0.125,0.109375 0.328125,0 0.671875,-0.03125 1,-0.03125 C 1.859375,-0.03125 2.21875,0 2.546875,0 2.59375,0 2.71875,0 2.71875,-0.203125 2.71875,-0.296875 2.625,-0.3125 2.515625,-0.3125 1.9375,-0.328125 1.859375,-0.546875 1.859375,-0.75 c 0,-0.0625 0.015625,-0.125 0.046875,-0.234375 l 1.3125,-5.25 C 3.265625,-6.1875 3.265625,-6.15625 3.3125,-6.0625 l 2.484375,5.875 C 5.859375,-0.015625 5.890625,0 5.984375,0 6.09375,0 6.09375,-0.03125 6.140625,-0.203125 Z m 0,0"
               style="stroke:none"
               inkscape:connector-curvature="0" />
          </symbol>
          <symbol
             id="textext-23c419b7-2"
             overflow="visible"
             style="overflow:visible">
            <path
               id="path8262"
               d=""
               style="stroke:none"
               inkscape:connector-curvature="0" />
          </symbol>
          <symbol
             id="textext-23c419b7-3"
             overflow="visible"
             style="overflow:visible">
            <path
               id="path8265"
               d="m 3.515625,-1.265625 -0.234375,0 c -0.015625,0.15625 -0.09375,0.5625 -0.1875,0.625 -0.046875,0.046875 -0.578125,0.046875 -0.6875,0.046875 l -1.28125,0 c 0.734375,-0.640625 0.984375,-0.84375 1.390625,-1.171875 0.515625,-0.40625 1,-0.84375 1,-1.5 0,-0.84375 -0.734375,-1.359375 -1.625,-1.359375 -0.859375,0 -1.453125,0.609375 -1.453125,1.25 0,0.34375 0.296875,0.390625 0.375,0.390625 0.15625,0 0.359375,-0.125 0.359375,-0.375 0,-0.125 -0.046875,-0.375 -0.40625,-0.375 C 0.984375,-4.21875 1.453125,-4.375 1.78125,-4.375 c 0.703125,0 1.0625,0.546875 1.0625,1.109375 0,0.609375 -0.4375,1.078125 -0.65625,1.328125 L 0.515625,-0.265625 C 0.4375,-0.203125 0.4375,-0.1875 0.4375,0 l 2.875,0 z m 0,0"
               style="stroke:none"
               inkscape:connector-curvature="0" />
          </symbol>
        </g>
      </defs>
      <g
         id="textext-23c419b7-4">
        <g
           id="g8274"
           style="fill:#000000;fill-opacity:1">
          <use
             id="use8272"
             y="134.765"
             x="223.43201"
             xlink:href="#textext-23c419b7-1"
             width="100%"
             height="100%" />
        </g>
        <g
           id="g8278"
           style="fill:#000000;fill-opacity:1">
          <use
             id="use8276"
             y="136.259"
             x="231.437"
             xlink:href="#textext-23c419b7-3"
             width="100%"
             height="100%" />
        </g>
      </g>
    </g>
    <g
       ns0:text="$N_0$"
       ns0:preamble="/Users/ignathanas/Downloads/preamble (1).tex"
       transform="matrix(3.0410119,0,0,3.0410119,-800.06791,-312.35321)"
       id="g4694">
      <defs
         id="defs4683">
        <g
           id="g4681">
          <symbol
             style="overflow:visible"
             overflow="visible"
             id="textext-271997cd-0">
            <path
               inkscape:connector-curvature="0"
               style="stroke:none"
               d=""
               id="path4669" />
          </symbol>
          <symbol
             style="overflow:visible"
             overflow="visible"
             id="textext-271997cd-1">
            <path
               inkscape:connector-curvature="0"
               style="stroke:none"
               d="M 7.53125,-5.765625 C 7.640625,-6.15625 7.8125,-6.46875 8.609375,-6.5 c 0.046875,0 0.171875,-0.015625 0.171875,-0.203125 0,0 0,-0.109375 -0.125,-0.109375 -0.328125,0 -0.6875,0.03125 -1.015625,0.03125 -0.328125,0 -0.6875,-0.03125 -1.015625,-0.03125 -0.0625,0 -0.171875,0 -0.171875,0.203125 C 6.453125,-6.5 6.546875,-6.5 6.625,-6.5 c 0.578125,0.015625 0.6875,0.21875 0.6875,0.4375 0,0.03125 -0.03125,0.1875 -0.03125,0.203125 l -1.125,4.4375 L 3.953125,-6.625 C 3.875,-6.796875 3.875,-6.8125 3.640625,-6.8125 l -1.34375,0 c -0.1875,0 -0.28125,0 -0.28125,0.203125 0,0.109375 0.09375,0.109375 0.28125,0.109375 0.046875,0 0.671875,0 0.671875,0.09375 L 1.640625,-1.0625 c -0.109375,0.40625 -0.28125,0.71875 -1.078125,0.75 -0.0625,0 -0.171875,0.015625 -0.171875,0.203125 0,0.0625 0.046875,0.109375 0.125,0.109375 0.328125,0 0.671875,-0.03125 1,-0.03125 C 1.859375,-0.03125 2.21875,0 2.546875,0 2.59375,0 2.71875,0 2.71875,-0.203125 2.71875,-0.296875 2.625,-0.3125 2.515625,-0.3125 1.9375,-0.328125 1.859375,-0.546875 1.859375,-0.75 c 0,-0.0625 0.015625,-0.125 0.046875,-0.234375 l 1.3125,-5.25 C 3.265625,-6.1875 3.265625,-6.15625 3.3125,-6.0625 l 2.484375,5.875 C 5.859375,-0.015625 5.890625,0 5.984375,0 6.09375,0 6.09375,-0.03125 6.140625,-0.203125 Z m 0,0"
               id="path4672" />
          </symbol>
          <symbol
             style="overflow:visible"
             overflow="visible"
             id="textext-271997cd-2">
            <path
               inkscape:connector-curvature="0"
               style="stroke:none"
               d=""
               id="path4675" />
          </symbol>
          <symbol
             style="overflow:visible"
             overflow="visible"
             id="textext-271997cd-3">
            <path
               inkscape:connector-curvature="0"
               style="stroke:none"
               d="M 3.59375,-2.21875 C 3.59375,-2.984375 3.5,-3.546875 3.1875,-4.03125 2.96875,-4.34375 2.53125,-4.625 1.984375,-4.625 c -1.625,0 -1.625,1.90625 -1.625,2.40625 0,0.5 0,2.359375 1.625,2.359375 1.609375,0 1.609375,-1.859375 1.609375,-2.359375 z M 1.984375,-0.0625 c -0.328125,0 -0.75,-0.1875 -0.890625,-0.75 C 1,-1.21875 1,-1.796875 1,-2.3125 1,-2.828125 1,-3.359375 1.09375,-3.734375 1.25,-4.28125 1.6875,-4.4375 1.984375,-4.4375 c 0.375,0 0.734375,0.234375 0.859375,0.640625 0.109375,0.375 0.125,0.875 0.125,1.484375 0,0.515625 0,1.03125 -0.09375,1.46875 -0.140625,0.640625 -0.609375,0.78125 -0.890625,0.78125 z m 0,0"
               id="path4678" />
          </symbol>
        </g>
      </defs>
      <g
         id="textext-271997cd-4">
        <g
           style="fill:#000000;fill-opacity:1"
           id="g4687">
          <use
             height="100%"
             width="100%"
             xlink:href="#textext-271997cd-1"
             x="223.43201"
             y="134.765"
             id="use4685" />
        </g>
        <g
           style="fill:#000000;fill-opacity:1"
           id="g4691">
          <use
             height="100%"
             width="100%"
             xlink:href="#textext-271997cd-3"
             x="231.437"
             y="136.259"
             id="use4689" />
        </g>
      </g>
    </g>
    <g
       id="g4843"
       transform="matrix(3.0410119,0,0,3.0410119,-457.1748,-311.96548)"
       ns0:preamble="/Users/ignathanas/Downloads/preamble (1).tex"
       ns0:text="$N_1$">
      <defs
         id="defs4832">
        <g
           id="g4830">
          <symbol
             id="textext-437e4bc1-0"
             overflow="visible"
             style="overflow:visible">
            <path
               id="path4818"
               d=""
               style="stroke:none"
               inkscape:connector-curvature="0" />
          </symbol>
          <symbol
             id="textext-437e4bc1-1"
             overflow="visible"
             style="overflow:visible">
            <path
               id="path4821"
               d="M 7.53125,-5.765625 C 7.640625,-6.15625 7.8125,-6.46875 8.609375,-6.5 c 0.046875,0 0.171875,-0.015625 0.171875,-0.203125 0,0 0,-0.109375 -0.125,-0.109375 -0.328125,0 -0.6875,0.03125 -1.015625,0.03125 -0.328125,0 -0.6875,-0.03125 -1.015625,-0.03125 -0.0625,0 -0.171875,0 -0.171875,0.203125 C 6.453125,-6.5 6.546875,-6.5 6.625,-6.5 c 0.578125,0.015625 0.6875,0.21875 0.6875,0.4375 0,0.03125 -0.03125,0.1875 -0.03125,0.203125 l -1.125,4.4375 L 3.953125,-6.625 C 3.875,-6.796875 3.875,-6.8125 3.640625,-6.8125 l -1.34375,0 c -0.1875,0 -0.28125,0 -0.28125,0.203125 0,0.109375 0.09375,0.109375 0.28125,0.109375 0.046875,0 0.671875,0 0.671875,0.09375 L 1.640625,-1.0625 c -0.109375,0.40625 -0.28125,0.71875 -1.078125,0.75 -0.0625,0 -0.171875,0.015625 -0.171875,0.203125 0,0.0625 0.046875,0.109375 0.125,0.109375 0.328125,0 0.671875,-0.03125 1,-0.03125 C 1.859375,-0.03125 2.21875,0 2.546875,0 2.59375,0 2.71875,0 2.71875,-0.203125 2.71875,-0.296875 2.625,-0.3125 2.515625,-0.3125 1.9375,-0.328125 1.859375,-0.546875 1.859375,-0.75 c 0,-0.0625 0.015625,-0.125 0.046875,-0.234375 l 1.3125,-5.25 C 3.265625,-6.1875 3.265625,-6.15625 3.3125,-6.0625 l 2.484375,5.875 C 5.859375,-0.015625 5.890625,0 5.984375,0 6.09375,0 6.09375,-0.03125 6.140625,-0.203125 Z m 0,0"
               style="stroke:none"
               inkscape:connector-curvature="0" />
          </symbol>
          <symbol
             id="textext-437e4bc1-2"
             overflow="visible"
             style="overflow:visible">
            <path
               id="path4824"
               d=""
               style="stroke:none"
               inkscape:connector-curvature="0" />
          </symbol>
          <symbol
             id="textext-437e4bc1-3"
             overflow="visible"
             style="overflow:visible">
            <path
               id="path4827"
               d="m 2.328125,-4.4375 c 0,-0.1875 0,-0.1875 -0.203125,-0.1875 -0.453125,0.4375 -1.078125,0.4375 -1.359375,0.4375 l 0,0.25 c 0.15625,0 0.625,0 1,-0.1875 l 0,3.546875 c 0,0.234375 0,0.328125 -0.6875,0.328125 l -0.265625,0 0,0.25 c 0.125,0 0.984375,-0.03125 1.234375,-0.03125 0.21875,0 1.09375,0.03125 1.25,0.03125 l 0,-0.25 -0.265625,0 c -0.703125,0 -0.703125,-0.09375 -0.703125,-0.328125 z m 0,0"
               style="stroke:none"
               inkscape:connector-curvature="0" />
          </symbol>
        </g>
      </defs>
      <g
         id="textext-437e4bc1-4">
        <g
           id="g4836"
           style="fill:#000000;fill-opacity:1">
          <use
             id="use4834"
             y="134.765"
             x="223.43201"
             xlink:href="#textext-437e4bc1-1"
             width="100%"
             height="100%" />
        </g>
        <g
           id="g4840"
           style="fill:#000000;fill-opacity:1">
          <use
             id="use4838"
             y="136.259"
             x="231.437"
             xlink:href="#textext-437e4bc1-3"
             width="100%"
             height="100%" />
        </g>
      </g>
    </g>
    <path
       sodipodi:nodetypes="cc"
       style="color:#000000;clip-rule:nonzero;display:inline;overflow:visible;visibility:visible;opacity:1;isolation:auto;mix-blend-mode:normal;color-interpolation:sRGB;color-interpolation-filters:linearRGB;solid-color:#000000;solid-opacity:1;fill:#0000ff;fill-opacity:1;fill-rule:evenodd;stroke:#000000;stroke-width:1.28205454;stroke-linecap:butt;stroke-linejoin:miter;stroke-miterlimit:4;stroke-dasharray:none;stroke-dashoffset:0;stroke-opacity:1;color-rendering:auto;image-rendering:auto;shape-rendering:auto;text-rendering:auto;enable-background:accumulate"
       d="m -111.43779,110.25452 352.5466,96.91723"
       id="path31136"
       inkscape:connector-curvature="0" />
    <path
       sodipodi:nodetypes="cc"
       style="color:#000000;clip-rule:nonzero;display:inline;overflow:visible;visibility:visible;opacity:1;isolation:auto;mix-blend-mode:normal;color-interpolation:sRGB;color-interpolation-filters:linearRGB;solid-color:#000000;solid-opacity:1;fill:#0000ff;fill-opacity:1;fill-rule:evenodd;stroke:#000000;stroke-width:1.28205454;stroke-linecap:butt;stroke-linejoin:miter;stroke-miterlimit:4;stroke-dasharray:none;stroke-dashoffset:0;stroke-opacity:1;color-rendering:auto;image-rendering:auto;shape-rendering:auto;text-rendering:auto;enable-background:accumulate"
       d="m -105.62275,207.90274 352.5466,-97.8864"
       id="path31138"
       inkscape:connector-curvature="0" />
    <circle
       style="opacity:1;fill:none;fill-opacity:1;stroke:#010001;stroke-width:2.15999627;stroke-miterlimit:4;stroke-dasharray:none;stroke-dashoffset:0;stroke-opacity:1"
       id="circle53303"
       cx="246.28651"
       cy="209.59737"
       r="5.3849444" />
  </g>
</svg>
