<?xml version="1.0" encoding="UTF-8" standalone="no"?>
<!-- Created with Inkscape (http://www.inkscape.org/) -->

<svg
   xmlns:ns0="http://www.iki.fi/pav/software/textext/"
   xmlns:dc="http://purl.org/dc/elements/1.1/"
   xmlns:cc="http://creativecommons.org/ns#"
   xmlns:rdf="http://www.w3.org/1999/02/22-rdf-syntax-ns#"
   xmlns:svg="http://www.w3.org/2000/svg"
   xmlns="http://www.w3.org/2000/svg"
   xmlns:xlink="http://www.w3.org/1999/xlink"
   xmlns:sodipodi="http://sodipodi.sourceforge.net/DTD/sodipodi-0.dtd"
   xmlns:inkscape="http://www.inkscape.org/namespaces/inkscape"
   width="210mm"
   height="297mm"
   viewBox="0 0 210 297"
   version="1.1"
   id="svg8"
   inkscape:version="0.92.0 r"
   sodipodi:docname="Hierarchical2nd.svg">
  <sodipodi:namedview
     id="base"
     pagecolor="#ffffff"
     bordercolor="#666666"
     borderopacity="1.0"
     inkscape:pageopacity="0.0"
     inkscape:pageshadow="2"
     inkscape:zoom="0.49497475"
     inkscape:cx="468.79241"
     inkscape:cy="584.10251"
     inkscape:document-units="mm"
     inkscape:current-layer="layer1"
     showgrid="false"
     inkscape:snap-bbox="true"
     inkscape:bbox-paths="true"
     inkscape:bbox-nodes="true"
     inkscape:snap-bbox-edge-midpoints="true"
     inkscape:snap-bbox-midpoints="true"
     inkscape:snap-intersection-paths="true"
     inkscape:object-paths="true"
     inkscape:snap-smooth-nodes="true"
     inkscape:snap-midpoints="true"
     inkscape:snap-object-midpoints="true"
     inkscape:snap-center="true"
     inkscape:snap-global="false"
     inkscape:window-width="1219"
     inkscape:window-height="750"
     inkscape:window-x="66"
     inkscape:window-y="0"
     inkscape:window-maximized="0" />
  <defs
     id="defs2" />
  <metadata
     id="metadata5">
    <rdf:RDF>
      <cc:Work
         rdf:about="">
        <dc:format>image/svg+xml</dc:format>
        <dc:type
           rdf:resource="http://purl.org/dc/dcmitype/StillImage" />
        <dc:title></dc:title>
      </cc:Work>
    </rdf:RDF>
  </metadata>
  <g
     id="layer1"
     inkscape:groupmode="layer"
     inkscape:label="Layer 1">
    <circle
       r="2.4930344"
       cy="92.87822"
       cx="22.740324"
       id="path4485"
       style="opacity:1;fill:none;fill-opacity:1;stroke:#010001;stroke-width:1;stroke-miterlimit:4;stroke-dasharray:none;stroke-dashoffset:0;stroke-opacity:1" />
    <path
       inkscape:connector-curvature="0"
       id="path4489"
       d="M 25.446429,92.89286 H 160.6714"
       style="color:#000000;clip-rule:nonzero;display:inline;overflow:visible;visibility:visible;opacity:1;isolation:auto;mix-blend-mode:normal;color-interpolation:sRGB;color-interpolation-filters:linearRGB;solid-color:#000000;solid-opacity:1;fill:#0000ff;fill-opacity:1;fill-rule:evenodd;stroke:#000000;stroke-width:0.96471941;stroke-linecap:butt;stroke-linejoin:miter;stroke-miterlimit:4;stroke-dasharray:none;stroke-dashoffset:0;stroke-opacity:1;color-rendering:auto;image-rendering:auto;shape-rendering:auto;text-rendering:auto;enable-background:accumulate" />
    <circle
       style="opacity:1;fill:none;fill-opacity:1;stroke:#010001;stroke-width:1;stroke-miterlimit:4;stroke-dasharray:none;stroke-dashoffset:0;stroke-opacity:1"
       id="circle4491"
       cx="162.96904"
       cy="92.87822"
       r="2.4930344" />
    <g
       id="g4514"
       ns0:preamble="/Users/ignathanas/Downloads/preamble (1).tex"
       ns0:text="0"
       transform="matrix(1.1859916,0,0,1.1859916,-245.49736,-48.169546)">
      <defs
         id="defs4507">
        <g
           id="g4505">
          <symbol
             id="textext-12000d8a-0"
             overflow="visible"
             style="overflow:visible">
            <path
               id="path4499"
               d=""
               style="stroke:none"
               inkscape:connector-curvature="0" />
          </symbol>
          <symbol
             id="textext-12000d8a-1"
             overflow="visible"
             style="overflow:visible">
            <path
               id="path4502"
               d="m 2.734375,-7.0625 c -0.65625,0 -1.25,0.28125 -1.625,0.765625 -0.453125,0.625 -0.6875,1.578125 -0.6875,2.875 0,2.390625 0.796875,3.65625 2.3125,3.65625 1.5,0 2.3125,-1.265625 2.3125,-3.59375 0,-1.375 -0.21875,-2.296875 -0.6875,-2.9375 C 4,-6.78125 3.40625,-7.0625 2.734375,-7.0625 Z m 0,0.765625 c 0.953125,0 1.421875,0.96875 1.421875,2.859375 0,2 -0.453125,2.9375 -1.4375,2.9375 -0.921875,0 -1.390625,-0.96875 -1.390625,-2.90625 0,-1.9375 0.46875,-2.890625 1.40625,-2.890625 z m 0,0"
               style="stroke:none"
               inkscape:connector-curvature="0" />
          </symbol>
        </g>
      </defs>
      <g
         id="textext-12000d8a-2">
        <g
           id="g4511"
           style="fill:#000000;fill-opacity:1">
          <use
             id="use4509"
             y="134.765"
             x="223.43201"
             xlink:href="#textext-12000d8a-1"
             width="100%"
             height="100%" />
        </g>
      </g>
    </g>
    <g
       ns0:text="1"
       ns0:preamble="/Users/ignathanas/Downloads/preamble (1).tex"
       transform="matrix(1.1859916,0,0,1.1859916,-104.91359,-47.705037)"
       id="g4585">
      <defs
         id="defs4578">
        <g
           id="g4576">
          <symbol
             style="overflow:visible"
             overflow="visible"
             id="textext-aebf91a3-0">
            <path
               inkscape:connector-curvature="0"
               style="stroke:none"
               d=""
               id="path4570" />
          </symbol>
          <symbol
             style="overflow:visible"
             overflow="visible"
             id="textext-aebf91a3-1">
            <path
               inkscape:connector-curvature="0"
               style="stroke:none"
               d="M 2.578125,-5.03125 V 0 h 0.875 V -7.0625 H 2.875 c -0.296875,1.078125 -0.5,1.234375 -1.859375,1.40625 v 0.625 z m 0,0"
               id="path4573" />
          </symbol>
        </g>
      </defs>
      <g
         id="textext-aebf91a3-2">
        <g
           style="fill:#000000;fill-opacity:1"
           id="g4582">
          <use
             height="100%"
             width="100%"
             xlink:href="#textext-aebf91a3-1"
             x="223.43201"
             y="134.765"
             id="use4580" />
        </g>
      </g>
    </g>
    <path
       sodipodi:nodetypes="cc"
       style="color:#000000;clip-rule:nonzero;display:inline;overflow:visible;visibility:visible;opacity:1;isolation:auto;mix-blend-mode:normal;color-interpolation:sRGB;color-interpolation-filters:linearRGB;solid-color:#000000;solid-opacity:1;fill:none;fill-opacity:1;fill-rule:evenodd;stroke:#000000;stroke-width:0.5;stroke-linecap:butt;stroke-linejoin:miter;stroke-miterlimit:4;stroke-dasharray:none;stroke-dashoffset:0;stroke-opacity:1;color-rendering:auto;image-rendering:auto;shape-rendering:auto;text-rendering:auto;enable-background:accumulate"
       d="M 24.690476,90.625003 C 78.176818,30.063269 121.51925,49.719229 160.86039,91.002979"
       id="path8227"
       inkscape:connector-curvature="0" />
    <g
       id="g8281"
       transform="matrix(1.1859916,0,0,1.1859916,-178.63729,-111.23692)"
       ns0:preamble="/Users/ignathanas/Downloads/preamble (1).tex"
       ns0:text="$N_2$">
      <defs
         id="defs8270">
        <g
           id="g8268">
          <symbol
             id="textext-23c419b7-0"
             overflow="visible"
             style="overflow:visible">
            <path
               id="path8256"
               d=""
               style="stroke:none"
               inkscape:connector-curvature="0" />
          </symbol>
          <symbol
             id="textext-23c419b7-1"
             overflow="visible"
             style="overflow:visible">
            <path
               id="path8259"
               d="M 7.53125,-5.765625 C 7.640625,-6.15625 7.8125,-6.46875 8.609375,-6.5 c 0.046875,0 0.171875,-0.015625 0.171875,-0.203125 0,0 0,-0.109375 -0.125,-0.109375 -0.328125,0 -0.6875,0.03125 -1.015625,0.03125 -0.328125,0 -0.6875,-0.03125 -1.015625,-0.03125 -0.0625,0 -0.171875,0 -0.171875,0.203125 C 6.453125,-6.5 6.546875,-6.5 6.625,-6.5 c 0.578125,0.015625 0.6875,0.21875 0.6875,0.4375 0,0.03125 -0.03125,0.1875 -0.03125,0.203125 l -1.125,4.4375 L 3.953125,-6.625 C 3.875,-6.796875 3.875,-6.8125 3.640625,-6.8125 h -1.34375 c -0.1875,0 -0.28125,0 -0.28125,0.203125 0,0.109375 0.09375,0.109375 0.28125,0.109375 0.046875,0 0.671875,0 0.671875,0.09375 L 1.640625,-1.0625 c -0.109375,0.40625 -0.28125,0.71875 -1.078125,0.75 -0.0625,0 -0.171875,0.015625 -0.171875,0.203125 0,0.0625 0.046875,0.109375 0.125,0.109375 0.328125,0 0.671875,-0.03125 1,-0.03125 C 1.859375,-0.03125 2.21875,0 2.546875,0 2.59375,0 2.71875,0 2.71875,-0.203125 2.71875,-0.296875 2.625,-0.3125 2.515625,-0.3125 1.9375,-0.328125 1.859375,-0.546875 1.859375,-0.75 c 0,-0.0625 0.015625,-0.125 0.046875,-0.234375 l 1.3125,-5.25 C 3.265625,-6.1875 3.265625,-6.15625 3.3125,-6.0625 l 2.484375,5.875 C 5.859375,-0.015625 5.890625,0 5.984375,0 6.09375,0 6.09375,-0.03125 6.140625,-0.203125 Z m 0,0"
               style="stroke:none"
               inkscape:connector-curvature="0" />
          </symbol>
          <symbol
             id="textext-23c419b7-2"
             overflow="visible"
             style="overflow:visible">
            <path
               id="path8262"
               d=""
               style="stroke:none"
               inkscape:connector-curvature="0" />
          </symbol>
          <symbol
             id="textext-23c419b7-3"
             overflow="visible"
             style="overflow:visible">
            <path
               id="path8265"
               d="M 3.515625,-1.265625 H 3.28125 c -0.015625,0.15625 -0.09375,0.5625 -0.1875,0.625 C 3.046875,-0.59375 2.515625,-0.59375 2.40625,-0.59375 H 1.125 c 0.734375,-0.640625 0.984375,-0.84375 1.390625,-1.171875 0.515625,-0.40625 1,-0.84375 1,-1.5 0,-0.84375 -0.734375,-1.359375 -1.625,-1.359375 -0.859375,0 -1.453125,0.609375 -1.453125,1.25 0,0.34375 0.296875,0.390625 0.375,0.390625 0.15625,0 0.359375,-0.125 0.359375,-0.375 0,-0.125 -0.046875,-0.375 -0.40625,-0.375 C 0.984375,-4.21875 1.453125,-4.375 1.78125,-4.375 c 0.703125,0 1.0625,0.546875 1.0625,1.109375 0,0.609375 -0.4375,1.078125 -0.65625,1.328125 L 0.515625,-0.265625 C 0.4375,-0.203125 0.4375,-0.1875 0.4375,0 h 2.875 z m 0,0"
               style="stroke:none"
               inkscape:connector-curvature="0" />
          </symbol>
        </g>
      </defs>
      <g
         id="textext-23c419b7-4">
        <g
           id="g8274"
           style="fill:#000000;fill-opacity:1">
          <use
             id="use8272"
             y="134.765"
             x="223.43201"
             xlink:href="#textext-23c419b7-1"
             width="100%"
             height="100%" />
        </g>
        <g
           id="g8278"
           style="fill:#000000;fill-opacity:1">
          <use
             id="use8276"
             y="136.259"
             x="231.437"
             xlink:href="#textext-23c419b7-3"
             width="100%"
             height="100%" />
        </g>
      </g>
    </g>
  </g>
</svg>
