<?xml version="1.0" encoding="UTF-8" standalone="no"?>
<!-- Created with Inkscape (http://www.inkscape.org/) -->

<svg
   xmlns:ns0="http://www.iki.fi/pav/software/textext/"
   xmlns:dc="http://purl.org/dc/elements/1.1/"
   xmlns:cc="http://creativecommons.org/ns#"
   xmlns:rdf="http://www.w3.org/1999/02/22-rdf-syntax-ns#"
   xmlns:svg="http://www.w3.org/2000/svg"
   xmlns="http://www.w3.org/2000/svg"
   xmlns:xlink="http://www.w3.org/1999/xlink"
   xmlns:sodipodi="http://sodipodi.sourceforge.net/DTD/sodipodi-0.dtd"
   xmlns:inkscape="http://www.inkscape.org/namespaces/inkscape"
   width="210mm"
   height="297mm"
   viewBox="0 0 744.09448819 1052.3622047"
   id="svg11351"
   version="1.1"
   inkscape:version="0.91 r13725"
   sodipodi:docname="QuarterPoint.svg">
  <sodipodi:namedview
     id="base"
     pagecolor="#ffffff"
     bordercolor="#666666"
     borderopacity="1.0"
     inkscape:pageopacity="0.0"
     inkscape:pageshadow="2"
     inkscape:zoom="0.24748737"
     inkscape:cx="-542.13501"
     inkscape:cy="911.3457"
     inkscape:document-units="px"
     inkscape:current-layer="layer1"
     showgrid="false"
     inkscape:snap-bbox="true"
     inkscape:bbox-paths="true"
     inkscape:bbox-nodes="true"
     inkscape:snap-bbox-edge-midpoints="true"
     inkscape:snap-bbox-midpoints="true"
     inkscape:object-paths="true"
     inkscape:snap-intersection-paths="true"
     inkscape:object-nodes="true"
     inkscape:snap-smooth-nodes="true"
     inkscape:snap-midpoints="true"
     inkscape:snap-object-midpoints="true"
     inkscape:snap-center="true"
     inkscape:snap-global="false"
     inkscape:window-width="1280"
     inkscape:window-height="755"
     inkscape:window-x="0"
     inkscape:window-y="1"
     inkscape:window-maximized="1" />
  <defs
     id="defs11353">
    <marker
       inkscape:isstock="true"
       style="overflow:visible;"
       id="marker14256"
       refX="0.0"
       refY="0.0"
       orient="auto"
       inkscape:stockid="Arrow2Mend">
      <path
         transform="scale(0.6) rotate(180) translate(0,0)"
         d="M 8.7185878,4.0337352 L -2.2072895,0.016013256 L 8.7185884,-4.0017078 C 6.9730900,-1.6296469 6.9831476,1.6157441 8.7185878,4.0337352 z "
         style="fill-rule:evenodd;stroke-width:0.625;stroke-linejoin:round;stroke:#000000;stroke-opacity:1;fill:#000000;fill-opacity:1"
         id="path14258" />
    </marker>
    <marker
       inkscape:stockid="Arrow2Mstart"
       orient="auto"
       refY="0.0"
       refX="0.0"
       id="marker14246"
       style="overflow:visible"
       inkscape:isstock="true">
      <path
         id="path14248"
         style="fill-rule:evenodd;stroke-width:0.625;stroke-linejoin:round;stroke:#000000;stroke-opacity:1;fill:#000000;fill-opacity:1"
         d="M 8.7185878,4.0337352 L -2.2072895,0.016013256 L 8.7185884,-4.0017078 C 6.9730900,-1.6296469 6.9831476,1.6157441 8.7185878,4.0337352 z "
         transform="scale(0.6) translate(0,0)" />
    </marker>
    <marker
       inkscape:collect="always"
       inkscape:isstock="true"
       style="overflow:visible"
       id="Arrow2Mstart"
       refX="0.0"
       refY="0.0"
       orient="auto"
       inkscape:stockid="Arrow2Mstart">
      <path
         transform="scale(0.6) translate(0,0)"
         d="M 8.7185878,4.0337352 L -2.2072895,0.016013256 L 8.7185884,-4.0017078 C 6.9730900,-1.6296469 6.9831476,1.6157441 8.7185878,4.0337352 z "
         style="fill-rule:evenodd;stroke-width:0.625;stroke-linejoin:round;stroke:#000000;stroke-opacity:1;fill:#000000;fill-opacity:1"
         id="path8983" />
    </marker>
    <marker
       inkscape:collect="always"
       inkscape:stockid="Arrow2Mend"
       orient="auto"
       refY="0.0"
       refX="0.0"
       id="marker14198"
       style="overflow:visible;"
       inkscape:isstock="true">
      <path
         id="path14200"
         style="fill-rule:evenodd;stroke-width:0.625;stroke-linejoin:round;stroke:#000000;stroke-opacity:1;fill:#000000;fill-opacity:1"
         d="M 8.7185878,4.0337352 L -2.2072895,0.016013256 L 8.7185884,-4.0017078 C 6.9730900,-1.6296469 6.9831476,1.6157441 8.7185878,4.0337352 z "
         transform="scale(0.6) rotate(180) translate(0,0)" />
    </marker>
    <marker
       inkscape:isstock="true"
       style="overflow:visible;"
       id="marker14168"
       refX="0.0"
       refY="0.0"
       orient="auto"
       inkscape:stockid="Arrow2Mend">
      <path
         transform="scale(0.6) rotate(180) translate(0,0)"
         d="M 8.7185878,4.0337352 L -2.2072895,0.016013256 L 8.7185884,-4.0017078 C 6.9730900,-1.6296469 6.9831476,1.6157441 8.7185878,4.0337352 z "
         style="fill-rule:evenodd;stroke-width:0.625;stroke-linejoin:round;stroke:#000000;stroke-opacity:1;fill:#000000;fill-opacity:1"
         id="path14170" />
    </marker>
    <marker
       inkscape:collect="always"
       inkscape:isstock="true"
       style="overflow:visible;"
       id="Arrow2Mend"
       refX="0.0"
       refY="0.0"
       orient="auto"
       inkscape:stockid="Arrow2Mend">
      <path
         transform="scale(0.6) rotate(180) translate(0,0)"
         d="M 8.7185878,4.0337352 L -2.2072895,0.016013256 L 8.7185884,-4.0017078 C 6.9730900,-1.6296469 6.9831476,1.6157441 8.7185878,4.0337352 z "
         style="fill-rule:evenodd;stroke-width:0.625;stroke-linejoin:round;stroke:#000000;stroke-opacity:1;fill:#000000;fill-opacity:1"
         id="path8986" />
    </marker>
    <marker
       inkscape:isstock="true"
       style="overflow:visible"
       id="TriangleOutL"
       refX="0.0"
       refY="0.0"
       orient="auto"
       inkscape:stockid="TriangleOutL">
      <path
         transform="scale(0.8)"
         style="fill-rule:evenodd;stroke:#000000;stroke-width:1pt;stroke-opacity:1;fill:#000000;fill-opacity:1"
         d="M 5.77,0.0 L -2.88,5.0 L -2.88,-5.0 L 5.77,0.0 z "
         id="path9101" />
    </marker>
    <marker
       inkscape:isstock="true"
       style="overflow:visible"
       id="TriangleOutM"
       refX="0.0"
       refY="0.0"
       orient="auto"
       inkscape:stockid="TriangleOutM">
      <path
         transform="scale(0.4)"
         style="fill-rule:evenodd;stroke:#000000;stroke-width:1pt;stroke-opacity:1;fill:#000000;fill-opacity:1"
         d="M 5.77,0.0 L -2.88,5.0 L -2.88,-5.0 L 5.77,0.0 z "
         id="path9104" />
    </marker>
  </defs>
  <metadata
     id="metadata11356">
    <rdf:RDF>
      <cc:Work
         rdf:about="">
        <dc:format>image/svg+xml</dc:format>
        <dc:type
           rdf:resource="http://purl.org/dc/dcmitype/StillImage" />
        <dc:title></dc:title>
      </cc:Work>
    </rdf:RDF>
  </metadata>
  <g
     id="layer1"
     inkscape:groupmode="layer"
     inkscape:label="Layer 1">
    <circle
       r="18.93041"
       cy="600.72705"
       cx="-315.61166"
       id="circle4491"
       style="opacity:1;fill:#ffffff;fill-opacity:1;stroke:#010001;stroke-width:7.59332085;stroke-miterlimit:4;stroke-dasharray:none;stroke-dashoffset:0;stroke-opacity:1" />
    <g
       id="g4585"
       transform="matrix(11.496885,0,0,11.496885,-2895.3171,-979.69163)"
       ns0:preamble="/Users/ignathanas/Downloads/preamble (1).tex"
       ns0:text="1">
      <defs
         id="defs4578">
        <g
           id="g4576">
          <symbol
             id="textext-aebf91a3-0"
             overflow="visible"
             style="overflow:visible">
            <path
               id="path4570"
               d=""
               style="stroke:none"
               inkscape:connector-curvature="0" />
          </symbol>
          <symbol
             id="textext-aebf91a3-1"
             overflow="visible"
             style="overflow:visible">
            <path
               id="path4573"
               d="m 2.578125,-5.03125 0,5.03125 0.875,0 0,-7.0625 -0.578125,0 c -0.296875,1.078125 -0.5,1.234375 -1.859375,1.40625 l 0,0.625 z m 0,0"
               style="stroke:none"
               inkscape:connector-curvature="0" />
          </symbol>
        </g>
      </defs>
      <g
         id="textext-aebf91a3-2">
        <g
           id="g4582"
           style="fill:#000000;fill-opacity:1">
          <use
             id="use4580"
             y="134.765"
             x="223.43201"
             xlink:href="#textext-aebf91a3-1"
             width="100%"
             height="100%" />
        </g>
      </g>
    </g>
    <circle
       style="opacity:1;fill:#ffffff;fill-opacity:1;stroke:#010001;stroke-width:7.59332085;stroke-miterlimit:4;stroke-dasharray:none;stroke-dashoffset:0;stroke-opacity:1"
       id="circle13228"
       cx="86.429047"
       cy="602.74738"
       r="18.93041" />
    <circle
       r="18.93041"
       cy="604.7677"
       cx="694.54089"
       id="circle13230"
       style="opacity:1;fill:#ffffff;fill-opacity:1;stroke:#010001;stroke-width:7.59332085;stroke-miterlimit:4;stroke-dasharray:none;stroke-dashoffset:0;stroke-opacity:1" />
    <path
       sodipodi:nodetypes="cc"
       inkscape:connector-curvature="0"
       id="path13232"
       d="m -294.39873,600.83688 358.328051,1.80067"
       style="fill:none;stroke:#000000;stroke-width:10;stroke-linecap:butt;stroke-linejoin:miter;stroke-opacity:1;stroke-miterlimit:4;stroke-dasharray:none" />
    <path
       inkscape:connector-curvature="0"
       id="path13234"
       d="m 106.0718,602.81086 569.89776,1.89336"
       style="fill:none;stroke:#000000;stroke-width:10;stroke-linecap:butt;stroke-linejoin:miter;stroke-opacity:1;stroke-miterlimit:4;stroke-dasharray:none" />
    <path
       sodipodi:nodetypes="cc"
       inkscape:connector-curvature="0"
       id="path13236"
       d="m -614.17275,528.09303 c 61.91895,7.12056 205.18857,18.35287 280.82241,60.60916"
       style="fill:none;stroke:#000000;stroke-width:10;stroke-linecap:butt;stroke-linejoin:miter;stroke-miterlimit:4;stroke-dasharray:none;stroke-opacity:1" />
    <path
       style="fill:none;stroke:#000000;stroke-width:10;stroke-linecap:butt;stroke-linejoin:miter;stroke-miterlimit:4;stroke-dasharray:none;stroke-opacity:1"
       d="m -610.63722,676.93996 c 61.91895,-7.12056 205.18857,-18.35287 280.82241,-60.60916"
       id="path13238"
       inkscape:connector-curvature="0"
       sodipodi:nodetypes="cc" />
    <g
       ns0:text="3"
       ns0:preamble="/Users/ignathanas/Documents/Contributions/Contact_1/AMA-stix/ama/figures/textext.preambleArial.tex"
       transform="matrix(11.496885,0,0,11.496885,-2476.5222,-982.54877)"
       id="g13406">
      <defs
         id="defs13408">
        <g
           id="g13410">
          <symbol
             style="overflow:visible"
             overflow="visible"
             id="textext-46b80c4c-0">
            <path
               inkscape:connector-curvature="0"
               style="stroke:none"
               d=""
               id="path13413" />
          </symbol>
          <symbol
             style="overflow:visible"
             overflow="visible"
             id="textext-46b80c4c-1">
            <path
               inkscape:connector-curvature="0"
               style="stroke:none"
               d="m 2.203125,-3.234375 0.109375,0 L 2.6875,-3.25 c 0.96875,0 1.453125,0.4375 1.453125,1.28125 0,0.890625 -0.546875,1.421875 -1.453125,1.421875 -0.96875,0 -1.4375,-0.484375 -1.484375,-1.5 l -0.890625,0 c 0.046875,0.5625 0.140625,0.9375 0.3125,1.25 0.359375,0.671875 1.0625,1.03125 2.03125,1.03125 1.453125,0 2.390625,-0.875 2.390625,-2.203125 C 5.046875,-2.875 4.6875,-3.375 3.84375,-3.65625 4.5,-3.921875 4.828125,-4.421875 4.828125,-5.125 c 0,-1.21875 -0.796875,-1.9375 -2.140625,-1.9375 -1.4375,0 -2.1875,0.765625 -2.21875,2.28125 l 0.875,0 C 1.359375,-5.21875 1.390625,-5.453125 1.5,-5.671875 c 0.203125,-0.390625 0.640625,-0.625 1.1875,-0.625 0.78125,0 1.25,0.453125 1.25,1.203125 0,0.5 -0.171875,0.796875 -0.5625,0.953125 C 3.125,-4.03125 2.828125,-4 2.203125,-3.984375 Z m 0,0"
               id="path13416" />
          </symbol>
        </g>
      </defs>
      <g
         id="textext-46b80c4c-2">
        <g
           style="fill:#000000;fill-opacity:1"
           id="g13419">
          <use
             height="100%"
             width="100%"
             xlink:href="#textext-46b80c4c-1"
             x="223.43201"
             y="134.765"
             id="use13421" />
        </g>
      </g>
    </g>
    <g
       id="g13539"
       transform="matrix(11.496885,0,0,11.496885,-1856.5222,-971.1202)"
       ns0:preamble="/Users/ignathanas/Documents/Contributions/Contact_1/AMA-stix/ama/figures/textext.preambleArial.tex"
       ns0:text="2">
      <defs
         id="defs13541">
        <g
           id="g13543">
          <symbol
             id="textext-913d634e-0"
             overflow="visible">
            <path
               id="path13546"
               d=""
               style="stroke:none;" />
          </symbol>
          <symbol
             id="textext-913d634e-1"
             overflow="visible">
            <path
               id="path13549"
               d="M 5.046875 -0.875 L 1.328125 -0.875 C 1.421875 -1.453125 1.734375 -1.8125 2.609375 -2.328125 L 3.59375 -2.859375 C 4.578125 -3.40625 5.09375 -4.125 5.09375 -5 C 5.09375 -5.578125 4.859375 -6.125 4.4375 -6.515625 C 4.015625 -6.890625 3.5 -7.0625 2.828125 -7.0625 C 1.9375 -7.0625 1.265625 -6.75 0.875 -6.15625 C 0.625 -5.765625 0.515625 -5.328125 0.5 -4.609375 L 1.375 -4.609375 C 1.40625 -5.09375 1.46875 -5.390625 1.578125 -5.609375 C 1.8125 -6.046875 2.265625 -6.296875 2.796875 -6.296875 C 3.59375 -6.296875 4.203125 -5.734375 4.203125 -4.96875 C 4.203125 -4.421875 3.875 -3.9375 3.234375 -3.578125 L 2.328125 -3.0625 C 0.84375 -2.21875 0.421875 -1.5625 0.34375 0 L 5.046875 0 Z M 5.046875 -0.875 "
               style="stroke:none;" />
          </symbol>
        </g>
      </defs>
      <g
         id="textext-913d634e-2">
        <g
           id="g13552"
           style="fill:rgb(0%,0%,0%);fill-opacity:1;">
          <use
             id="use13554"
             y="134.765"
             x="223.432"
             xlink:href="#textext-913d634e-1" />
        </g>
      </g>
    </g>
    <g
       ns0:text="$l$"
       ns0:preamble=""
       transform="matrix(11.016512,0,0,11.016512,-2301.675,-1328.3345)"
       id="g13656">
      <defs
         id="defs13658">
        <g
           id="g13660">
          <symbol
             style="overflow:visible"
             overflow="visible"
             id="textext-a305dbee-0">
            <path
               inkscape:connector-curvature="0"
               style="stroke:none"
               d=""
               id="path13663" />
          </symbol>
          <symbol
             style="overflow:visible"
             overflow="visible"
             id="textext-a305dbee-1">
            <path
               inkscape:connector-curvature="0"
               style="stroke:none"
               d="m 2.578125,-6.8125 c 0,0 0,-0.109375 -0.140625,-0.109375 -0.21875,0 -0.953125,0.078125 -1.21875,0.109375 -0.078125,0 -0.1875,0.015625 -0.1875,0.203125 0,0.109375 0.109375,0.109375 0.25,0.109375 0.484375,0 0.5,0.09375 0.5,0.171875 L 1.75,-6.125 0.484375,-1.140625 C 0.453125,-1.03125 0.4375,-0.96875 0.4375,-0.8125 c 0,0.578125 0.4375,0.921875 0.90625,0.921875 0.328125,0 0.578125,-0.203125 0.75,-0.5625 0.171875,-0.375 0.296875,-0.953125 0.296875,-0.96875 0,-0.109375 -0.09375,-0.109375 -0.125,-0.109375 -0.09375,0 -0.109375,0.046875 -0.125,0.1875 C 1.96875,-0.703125 1.78125,-0.109375 1.375,-0.109375 c -0.296875,0 -0.296875,-0.3125 -0.296875,-0.453125 0,-0.25 0.015625,-0.296875 0.0625,-0.484375 z m 0,0"
               id="path13666" />
          </symbol>
        </g>
      </defs>
      <g
         id="textext-a305dbee-2">
        <g
           style="fill:#000000;fill-opacity:1"
           id="g13669">
          <use
             height="100%"
             width="100%"
             xlink:href="#textext-a305dbee-1"
             x="223.43201"
             y="134.765"
             id="use13671" />
        </g>
      </g>
    </g>
    <g
       id="g13797"
       transform="matrix(11.016512,0,0,11.016512,-2620.7207,-1110.1416)"
       ns0:preamble="/Users/ignathanas/Documents/Contributions/Contact_1/AMA-stix/ama/figures/textext.preambleArial.tex"
       ns0:text="$\\kappa l$">
      <defs
         id="defs13799">
        <g
           id="g13801">
          <symbol
             id="textext-d0f51293-0"
             overflow="visible"
             style="overflow:visible">
            <path
               id="path13804"
               d=""
               style="stroke:none"
               inkscape:connector-curvature="0" />
          </symbol>
          <symbol
             id="textext-d0f51293-1"
             overflow="visible"
             style="overflow:visible">
            <path
               id="path13807"
               d="M 0.59375,-0.390625 C 0.546875,-0.25 0.546875,-0.234375 0.546875,-0.15625 c 0,0.171875 0.140625,0.265625 0.296875,0.265625 0.296875,0 0.359375,-0.234375 0.4375,-0.5625 C 1.375,-0.8125 1.3125,-0.625 1.75,-2.296875 c 0.828125,0.03125 1.703125,0.203125 1.703125,0.84375 0,0.078125 0,0.125 -0.03125,0.234375 C 3.390625,-1.0625 3.375,-0.953125 3.375,-0.875 c 0,0.578125 0.40625,0.984375 0.921875,0.984375 0.3125,0 0.578125,-0.171875 0.78125,-0.515625 0.25,-0.421875 0.359375,-1 0.359375,-1.015625 0,-0.109375 -0.078125,-0.109375 -0.109375,-0.109375 -0.109375,0 -0.109375,0.046875 -0.140625,0.1875 C 5,-0.65625 4.765625,-0.109375 4.3125,-0.109375 4.109375,-0.109375 4,-0.234375 4,-0.59375 4,-0.734375 4.03125,-0.984375 4.078125,-1.140625 4.09375,-1.234375 4.125,-1.359375 4.125,-1.46875 4.125,-2.40625 2.75,-2.484375 2.1875,-2.5 c 0.328125,-0.1875 0.65625,-0.453125 0.921875,-0.6875 0.453125,-0.375 0.75,-0.625 1.140625,-0.796875 -0.015625,0.0625 -0.046875,0.171875 -0.046875,0.21875 0,0.125 0.078125,0.359375 0.375,0.359375 0.328125,0 0.546875,-0.296875 0.546875,-0.546875 0,-0.078125 -0.046875,-0.34375 -0.40625,-0.34375 -0.609375,0 -1.1875,0.5 -1.625,0.875 -0.6875,0.578125 -0.921875,0.71875 -1.28125,0.84375 C 1.84375,-2.6875 1.96875,-3.1875 2.015625,-3.359375 2.078125,-3.625 2.1875,-4.09375 2.1875,-4.140625 2.1875,-4.3125 2.078125,-4.40625 1.90625,-4.40625 c -0.03125,0 -0.3125,0 -0.40625,0.359375 z m 0,0"
               style="stroke:none"
               inkscape:connector-curvature="0" />
          </symbol>
          <symbol
             id="textext-d0f51293-2"
             overflow="visible"
             style="overflow:visible">
            <path
               id="path13810"
               d="m 2.578125,-6.8125 c 0,0 0,-0.109375 -0.140625,-0.109375 -0.21875,0 -0.953125,0.078125 -1.21875,0.109375 -0.078125,0 -0.1875,0.015625 -0.1875,0.203125 0,0.109375 0.109375,0.109375 0.25,0.109375 0.484375,0 0.5,0.09375 0.5,0.171875 L 1.75,-6.125 0.484375,-1.140625 C 0.453125,-1.03125 0.4375,-0.96875 0.4375,-0.8125 c 0,0.578125 0.4375,0.921875 0.90625,0.921875 0.328125,0 0.578125,-0.203125 0.75,-0.5625 0.171875,-0.375 0.296875,-0.953125 0.296875,-0.96875 0,-0.109375 -0.09375,-0.109375 -0.125,-0.109375 -0.09375,0 -0.109375,0.046875 -0.125,0.1875 C 1.96875,-0.703125 1.78125,-0.109375 1.375,-0.109375 c -0.296875,0 -0.296875,-0.3125 -0.296875,-0.453125 0,-0.25 0.015625,-0.296875 0.0625,-0.484375 z m 0,0"
               style="stroke:none"
               inkscape:connector-curvature="0" />
          </symbol>
        </g>
      </defs>
      <g
         id="textext-d0f51293-3">
        <g
           id="g13813"
           style="fill:#000000;fill-opacity:1">
          <use
             id="use13815"
             y="134.765"
             x="223.43201"
             xlink:href="#textext-d0f51293-1"
             width="100%"
             height="100%" />
          <use
             id="use13817"
             y="134.765"
             x="229.17245"
             xlink:href="#textext-d0f51293-2"
             width="100%"
             height="100%" />
        </g>
      </g>
    </g>
    <g
       ns0:text="$r$"
       ns0:preamble="/Users/ignathanas/Documents/Contributions/Contact_1/AMA-stix/ama/figures/textext.preambleArial.tex"
       transform="matrix(11.016512,0,0,11.016512,-2491.4212,-742.24302)"
       id="g13975">
      <defs
         id="defs13977">
        <g
           id="g13979">
          <symbol
             style="overflow:visible"
             overflow="visible"
             id="textext-bb1e5020-0">
            <path
               inkscape:connector-curvature="0"
               style="stroke:none"
               d=""
               id="path13982" />
          </symbol>
          <symbol
             style="overflow:visible"
             overflow="visible"
             id="textext-bb1e5020-1">
            <path
               inkscape:connector-curvature="0"
               style="stroke:none"
               d="m 0.875,-0.59375 c -0.03125,0.15625 -0.09375,0.390625 -0.09375,0.4375 0,0.171875 0.140625,0.265625 0.296875,0.265625 0.125,0 0.296875,-0.078125 0.375,-0.28125 C 1.46875,-0.203125 1.796875,-1.5625 1.84375,-1.75 c 0.078125,-0.328125 0.265625,-1.015625 0.3125,-1.296875 0.046875,-0.125 0.328125,-0.59375 0.5625,-0.8125 0.078125,-0.0625 0.375,-0.328125 0.796875,-0.328125 0.265625,0 0.40625,0.125 0.421875,0.125 -0.296875,0.046875 -0.515625,0.28125 -0.515625,0.546875 0,0.15625 0.109375,0.34375 0.375,0.34375 0.265625,0 0.546875,-0.234375 0.546875,-0.59375 0,-0.34375 -0.3125,-0.640625 -0.828125,-0.640625 C 2.875,-4.40625 2.4375,-3.921875 2.25,-3.640625 2.15625,-4.09375 1.796875,-4.40625 1.328125,-4.40625 0.875,-4.40625 0.6875,-4.015625 0.59375,-3.84375 0.421875,-3.5 0.296875,-2.90625 0.296875,-2.875 c 0,0.109375 0.09375,0.109375 0.109375,0.109375 0.109375,0 0.109375,-0.015625 0.171875,-0.234375 0.171875,-0.703125 0.375,-1.1875 0.734375,-1.1875 0.15625,0 0.296875,0.078125 0.296875,0.453125 0,0.21875 -0.03125,0.328125 -0.15625,0.84375 z m 0,0"
               id="path13985" />
          </symbol>
        </g>
      </defs>
      <g
         id="textext-bb1e5020-2">
        <g
           style="fill:#000000;fill-opacity:1"
           id="g13988">
          <use
             height="100%"
             width="100%"
             xlink:href="#textext-bb1e5020-1"
             x="223.43201"
             y="134.765"
             id="use13990" />
        </g>
      </g>
    </g>
    <path
       inkscape:connector-curvature="0"
       id="path14066"
       d="m -315.16759,623.04734 0,166.67517"
       style="fill:none;stroke:#000000;stroke-width:7.5;stroke-linecap:butt;stroke-linejoin:miter;stroke-miterlimit:4;stroke-dasharray:none;stroke-opacity:1" />
    <path
       inkscape:connector-curvature="0"
       id="path14068"
       d="m -315.35714,723.61218 261.819055,0"
       style="fill:none;stroke:#000000;stroke-width:4;stroke-linecap:butt;stroke-linejoin:miter;stroke-miterlimit:4;stroke-dasharray:none;stroke-opacity:1;marker-end:url(#Arrow2Mend)" />
    <path
       inkscape:connector-curvature="0"
       id="path14160"
       d="m -316.42857,538.79075 0,-397.58616"
       style="fill:none;stroke:#000000;stroke-width:4.90136862;stroke-linecap:butt;stroke-linejoin:miter;stroke-miterlimit:4;stroke-dasharray:none;stroke-opacity:1" />
    <path
       inkscape:connector-curvature="0"
       id="path14162"
       d="m 694.98495,559.40774 0,-416.18285"
       style="fill:none;stroke:#000000;stroke-width:5;stroke-linecap:butt;stroke-linejoin:miter;stroke-opacity:1;stroke-miterlimit:4;stroke-dasharray:none" />
    <path
       inkscape:connector-curvature="0"
       id="path14164"
       d="m 83.842661,540.71992 0,-176.92917"
       style="fill:none;stroke:#000000;stroke-width:5;stroke-linecap:butt;stroke-linejoin:miter;stroke-opacity:1;stroke-miterlimit:4;stroke-dasharray:none" />
    <path
       inkscape:connector-curvature="0"
       id="path14166"
       d="m -311.42857,192.36218 1002.37291,0"
       style="fill:none;stroke:#000000;stroke-width:5;stroke-linecap:butt;stroke-linejoin:miter;stroke-opacity:1;stroke-miterlimit:4;stroke-dasharray:none;marker-end:url(#marker14198);marker-start:url(#Arrow2Mstart)" />
    <path
       style="fill:none;stroke:#000000;stroke-width:4.97765684;stroke-linecap:butt;stroke-linejoin:miter;stroke-miterlimit:4;stroke-dasharray:none;stroke-opacity:1;marker-start:url(#marker14246);marker-end:url(#marker14256)"
       d="m -306.51653,428.77849 381.947515,0"
       id="path14244"
       inkscape:connector-curvature="0" />
    <g
       id="g15837"
       transform="matrix(11.166079,0,0,11.166079,-3686.0416,-737.74824)"
       ns0:preamble="/Users/ignathanas/Documents/Contributions/Contact_1/AMA-stix/ama/figures/textext.preambleArial.tex"
       ns0:text="surfaces">
      <defs
         id="defs15839">
        <g
           id="g15841">
          <symbol
             id="textext-e9600879-0"
             overflow="visible"
             style="overflow:visible">
            <path
               id="path15844"
               d=""
               style="stroke:none"
               inkscape:connector-curvature="0" />
          </symbol>
          <symbol
             id="textext-e9600879-1"
             overflow="visible"
             style="overflow:visible">
            <path
               id="path15847"
               d="m 4.359375,-3.765625 c 0,-1.03125 -0.6875,-1.609375 -1.890625,-1.609375 -1.21875,0 -2,0.625 -2,1.59375 0,0.828125 0.421875,1.203125 1.65625,1.515625 l 0.78125,0.1875 c 0.578125,0.140625 0.796875,0.34375 0.796875,0.71875 0,0.484375 -0.484375,0.828125 -1.203125,0.828125 -0.453125,0 -0.828125,-0.140625 -1.046875,-0.359375 C 1.328125,-1.03125 1.265625,-1.1875 1.21875,-1.5625 l -0.875,0 c 0.03125,1.21875 0.71875,1.796875 2.078125,1.796875 1.3125,0 2.15625,-0.65625 2.15625,-1.65625 0,-0.78125 -0.4375,-1.203125 -1.484375,-1.453125 L 2.296875,-3.078125 c -0.671875,-0.15625 -0.96875,-0.375 -0.96875,-0.734375 0,-0.484375 0.4375,-0.796875 1.109375,-0.796875 0.671875,0 1.03125,0.296875 1.046875,0.84375 z m 0,0"
               style="stroke:none"
               inkscape:connector-curvature="0" />
          </symbol>
          <symbol
             id="textext-e9600879-2"
             overflow="visible"
             style="overflow:visible">
            <path
               id="path15850"
               d="m 4.8125,0 0,-5.21875 -0.828125,0 0,2.953125 c 0,1.0625 -0.5625,1.765625 -1.4375,1.765625 -0.65625,0 -1.078125,-0.390625 -1.078125,-1.03125 l 0,-3.6875 -0.828125,0 0,4.015625 c 0,0.875 0.65625,1.4375 1.671875,1.4375 0.765625,0 1.25,-0.28125 1.75,-0.96875 L 4.0625,0 Z m 0,0"
               style="stroke:none"
               inkscape:connector-curvature="0" />
          </symbol>
          <symbol
             id="textext-e9600879-3"
             overflow="visible"
             style="overflow:visible">
            <path
               id="path15853"
               d="m 0.6875,-5.21875 0,5.21875 0.84375,0 0,-2.71875 c 0,-0.734375 0.1875,-1.234375 0.578125,-1.515625 C 2.375,-4.421875 2.625,-4.484375 3.203125,-4.5 l 0,-0.84375 C 3.0625,-5.359375 2.984375,-5.375 2.875,-5.375 c -0.53125,0 -0.9375,0.328125 -1.421875,1.09375 l 0,-0.9375 z m 0,0"
               style="stroke:none"
               inkscape:connector-curvature="0" />
          </symbol>
          <symbol
             id="textext-e9600879-4"
             overflow="visible"
             style="overflow:visible">
            <path
               id="path15856"
               d="m 2.578125,-5.21875 -0.875,0 0,-0.828125 c 0,-0.34375 0.203125,-0.515625 0.578125,-0.515625 0.078125,0 0.09375,0 0.296875,0 l 0,-0.6875 C 2.375,-7.28125 2.265625,-7.296875 2.109375,-7.296875 c -0.78125,0 -1.234375,0.4375 -1.234375,1.1875 l 0,0.890625 -0.703125,0 0,0.671875 0.703125,0 0,4.546875 0.828125,0 0,-4.546875 0.875,0 z m 0,0"
               style="stroke:none"
               inkscape:connector-curvature="0" />
          </symbol>
          <symbol
             id="textext-e9600879-5"
             overflow="visible"
             style="overflow:visible">
            <path
               id="path15859"
               d="M 5.328125,-0.484375 C 5.25,-0.46875 5.203125,-0.46875 5.15625,-0.46875 4.859375,-0.46875 4.703125,-0.625 4.703125,-0.875 l 0,-3.078125 C 4.703125,-4.875 4.03125,-5.375 2.734375,-5.375 c -0.75,0 -1.375,0.21875 -1.734375,0.609375 -0.234375,0.265625 -0.328125,0.5625 -0.359375,1.09375 l 0.84375,0 C 1.5625,-4.3125 1.9375,-4.609375 2.71875,-4.609375 c 0.734375,0 1.15625,0.28125 1.15625,0.78125 l 0,0.21875 c 0,0.34375 -0.203125,0.5 -0.859375,0.578125 -1.1875,0.15625 -1.359375,0.1875 -1.6875,0.3125 -0.59375,0.25 -0.90625,0.71875 -0.90625,1.40625 0,0.9375 0.65625,1.546875 1.71875,1.546875 0.65625,0 1.171875,-0.234375 1.765625,-0.765625 0.0625,0.515625 0.328125,0.765625 0.859375,0.765625 0.171875,0 0.296875,-0.03125 0.5625,-0.09375 z M 3.875,-1.640625 c 0,0.28125 -0.078125,0.4375 -0.328125,0.671875 -0.34375,0.3125 -0.75,0.46875 -1.234375,0.46875 -0.640625,0 -1.03125,-0.3125 -1.03125,-0.828125 0,-0.5625 0.375,-0.828125 1.265625,-0.96875 0.875,-0.109375 1.046875,-0.15625 1.328125,-0.28125 z m 0,0"
               style="stroke:none"
               inkscape:connector-curvature="0" />
          </symbol>
          <symbol
             id="textext-e9600879-6"
             overflow="visible"
             style="overflow:visible">
            <path
               id="path15862"
               d="M 4.6875,-3.46875 C 4.65625,-3.984375 4.546875,-4.3125 4.34375,-4.59375 3.984375,-5.078125 3.359375,-5.375 2.625,-5.375 c -1.40625,0 -2.3125,1.125 -2.3125,2.859375 0,1.671875 0.890625,2.75 2.3125,2.75 1.25,0 2.03125,-0.75 2.125,-2.03125 l -0.828125,0 c -0.140625,0.84375 -0.578125,1.265625 -1.28125,1.265625 -0.921875,0 -1.46875,-0.75 -1.46875,-1.984375 0,-1.3125 0.546875,-2.09375 1.453125,-2.09375 0.6875,0 1.140625,0.40625 1.234375,1.140625 z m 0,0"
               style="stroke:none"
               inkscape:connector-curvature="0" />
          </symbol>
          <symbol
             id="textext-e9600879-7"
             overflow="visible"
             style="overflow:visible">
            <path
               id="path15865"
               d="M 5.109375,-2.328125 C 5.109375,-3.125 5.046875,-3.609375 4.90625,-4 4.5625,-4.859375 3.765625,-5.375 2.796875,-5.375 c -1.46875,0 -2.390625,1.125 -2.390625,2.828125 0,1.71875 0.90625,2.78125 2.359375,2.78125 1.203125,0 2.03125,-0.6875 2.234375,-1.8125 l -0.828125,0 c -0.234375,0.6875 -0.703125,1.046875 -1.375,1.046875 -0.53125,0 -0.96875,-0.25 -1.25,-0.6875 C 1.34375,-1.515625 1.28125,-1.8125 1.265625,-2.328125 Z m -3.828125,-0.6875 c 0.078125,-0.96875 0.65625,-1.59375 1.5,-1.59375 0.8125,0 1.453125,0.6875 1.453125,1.53125 0,0.03125 0,0.046875 -0.015625,0.0625 z m 0,0"
               style="stroke:none"
               inkscape:connector-curvature="0" />
          </symbol>
        </g>
      </defs>
      <g
         id="textext-e9600879-8">
        <g
           id="g15868"
           style="fill:#000000;fill-opacity:1">
          <use
             id="use15870"
             y="134.765"
             x="223.43201"
             xlink:href="#textext-e9600879-1"
             width="100%"
             height="100%" />
          <use
             id="use15872"
             y="134.765"
             x="228.4133"
             xlink:href="#textext-e9600879-2"
             width="100%"
             height="100%" />
          <use
             id="use15874"
             y="134.765"
             x="233.9525"
             xlink:href="#textext-e9600879-3"
             width="100%"
             height="100%" />
          <use
             id="use15876"
             y="134.765"
             x="237.27005"
             xlink:href="#textext-e9600879-4"
             width="100%"
             height="100%" />
        </g>
        <g
           id="g15878"
           style="fill:#000000;fill-opacity:1">
          <use
             id="use15880"
             y="134.765"
             x="239.74077"
             xlink:href="#textext-e9600879-5"
             width="100%"
             height="100%" />
          <use
             id="use15882"
             y="134.765"
             x="245.27998"
             xlink:href="#textext-e9600879-6"
             width="100%"
             height="100%" />
          <use
             id="use15884"
             y="134.765"
             x="250.26128"
             xlink:href="#textext-e9600879-7"
             width="100%"
             height="100%" />
          <use
             id="use15886"
             y="134.765"
             x="255.80049"
             xlink:href="#textext-e9600879-1"
             width="100%"
             height="100%" />
        </g>
      </g>
    </g>
    <g
       ns0:text="crack"
       ns0:preamble="/Users/ignathanas/Documents/Contributions/Contact_1/AMA-stix/ama/figures/textext.preambleArial.tex"
       transform="matrix(11.166079,0,0,11.166079,-3688.8988,-867.46254)"
       id="g16382">
      <defs
         id="defs16384">
        <g
           id="g16386">
          <symbol
             overflow="visible"
             id="textext-47efccf8-0"
             style="overflow:visible">
            <path
               style="stroke:none"
               d=""
               id="path16389"
               inkscape:connector-curvature="0" />
          </symbol>
          <symbol
             overflow="visible"
             id="textext-47efccf8-1"
             style="overflow:visible">
            <path
               style="stroke:none"
               d="M 4.6875,-3.46875 C 4.65625,-3.984375 4.546875,-4.3125 4.34375,-4.59375 3.984375,-5.078125 3.359375,-5.375 2.625,-5.375 c -1.40625,0 -2.3125,1.125 -2.3125,2.859375 0,1.671875 0.890625,2.75 2.3125,2.75 1.25,0 2.03125,-0.75 2.125,-2.03125 l -0.828125,0 c -0.140625,0.84375 -0.578125,1.265625 -1.28125,1.265625 -0.921875,0 -1.46875,-0.75 -1.46875,-1.984375 0,-1.3125 0.546875,-2.09375 1.453125,-2.09375 0.6875,0 1.140625,0.40625 1.234375,1.140625 z m 0,0"
               id="path16392"
               inkscape:connector-curvature="0" />
          </symbol>
          <symbol
             overflow="visible"
             id="textext-47efccf8-2"
             style="overflow:visible">
            <path
               style="stroke:none"
               d="m 0.6875,-5.21875 0,5.21875 0.84375,0 0,-2.71875 c 0,-0.734375 0.1875,-1.234375 0.578125,-1.515625 C 2.375,-4.421875 2.625,-4.484375 3.203125,-4.5 l 0,-0.84375 C 3.0625,-5.359375 2.984375,-5.375 2.875,-5.375 c -0.53125,0 -0.9375,0.328125 -1.421875,1.09375 l 0,-0.9375 z m 0,0"
               id="path16395"
               inkscape:connector-curvature="0" />
          </symbol>
          <symbol
             overflow="visible"
             id="textext-47efccf8-3"
             style="overflow:visible">
            <path
               style="stroke:none"
               d="M 5.328125,-0.484375 C 5.25,-0.46875 5.203125,-0.46875 5.15625,-0.46875 4.859375,-0.46875 4.703125,-0.625 4.703125,-0.875 l 0,-3.078125 C 4.703125,-4.875 4.03125,-5.375 2.734375,-5.375 c -0.75,0 -1.375,0.21875 -1.734375,0.609375 -0.234375,0.265625 -0.328125,0.5625 -0.359375,1.09375 l 0.84375,0 C 1.5625,-4.3125 1.9375,-4.609375 2.71875,-4.609375 c 0.734375,0 1.15625,0.28125 1.15625,0.78125 l 0,0.21875 c 0,0.34375 -0.203125,0.5 -0.859375,0.578125 -1.1875,0.15625 -1.359375,0.1875 -1.6875,0.3125 -0.59375,0.25 -0.90625,0.71875 -0.90625,1.40625 0,0.9375 0.65625,1.546875 1.71875,1.546875 0.65625,0 1.171875,-0.234375 1.765625,-0.765625 0.0625,0.515625 0.328125,0.765625 0.859375,0.765625 0.171875,0 0.296875,-0.03125 0.5625,-0.09375 z M 3.875,-1.640625 c 0,0.28125 -0.078125,0.4375 -0.328125,0.671875 -0.34375,0.3125 -0.75,0.46875 -1.234375,0.46875 -0.640625,0 -1.03125,-0.3125 -1.03125,-0.828125 0,-0.5625 0.375,-0.828125 1.265625,-0.96875 0.875,-0.109375 1.046875,-0.15625 1.328125,-0.28125 z m 0,0"
               id="path16398"
               inkscape:connector-curvature="0" />
          </symbol>
          <symbol
             overflow="visible"
             id="textext-47efccf8-4"
             style="overflow:visible">
            <path
               style="stroke:none"
               d="m 1.40625,-7.265625 -0.828125,0 0,7.265625 0.828125,0 0,-2.03125 0.8125,-0.796875 L 3.984375,0 5,0 2.875,-3.421875 4.6875,-5.21875 l -1.0625,0 -2.21875,2.203125 z m 0,0"
               id="path16401"
               inkscape:connector-curvature="0" />
          </symbol>
        </g>
      </defs>
      <g
         id="textext-47efccf8-5">
        <g
           style="fill:#000000;fill-opacity:1"
           id="g16404">
          <use
             xlink:href="#textext-47efccf8-1"
             x="223.43201"
             y="134.765"
             id="use16406"
             width="100%"
             height="100%" />
          <use
             xlink:href="#textext-47efccf8-2"
             x="228.4133"
             y="134.765"
             id="use16408"
             width="100%"
             height="100%" />
        </g>
        <g
           style="fill:#000000;fill-opacity:1"
           id="g16410">
          <use
             xlink:href="#textext-47efccf8-3"
             x="231.63123"
             y="134.765"
             id="use16412"
             width="100%"
             height="100%" />
          <use
             xlink:href="#textext-47efccf8-1"
             x="237.17043"
             y="134.765"
             id="use16414"
             width="100%"
             height="100%" />
        </g>
        <g
           style="fill:#000000;fill-opacity:1"
           id="g16416">
          <use
             xlink:href="#textext-47efccf8-4"
             x="241.95247"
             y="134.765"
             id="use16418"
             width="100%"
             height="100%" />
        </g>
      </g>
    </g>
    <g
       id="g16781"
       transform="matrix(11.166079,0,0,11.166079,-3686.0416,-996.3196)"
       ns0:preamble="/Users/ignathanas/Documents/Contributions/Contact_1/AMA-stix/ama/figures/textext.preambleArial.tex"
       ns0:text="Opposite">
      <defs
         id="defs16783">
        <g
           id="g16785">
          <symbol
             id="textext-0192b0b4-0"
             overflow="visible"
             style="overflow:visible">
            <path
               id="path16788"
               d=""
               style="stroke:none"
               inkscape:connector-curvature="0" />
          </symbol>
          <symbol
             id="textext-0192b0b4-1"
             overflow="visible"
             style="overflow:visible">
            <path
               id="path16791"
               d="m 3.875,-7.390625 c -2.078125,0 -3.5,1.53125 -3.5,3.8125 0,2.265625 1.421875,3.8125 3.515625,3.8125 0.875,0 1.65625,-0.28125 2.25,-0.765625 0.78125,-0.671875 1.25,-1.796875 1.25,-2.984375 0,-2.34375 -1.375,-3.875 -3.515625,-3.875 z m 0,0.828125 c 1.578125,0 2.59375,1.1875 2.59375,3.03125 0,1.75 -1.046875,2.9375 -2.578125,2.9375 C 2.34375,-0.59375 1.3125,-1.78125 1.3125,-3.578125 1.3125,-5.375 2.34375,-6.5625 3.875,-6.5625 Z m 0,0"
               style="stroke:none"
               inkscape:connector-curvature="0" />
          </symbol>
          <symbol
             id="textext-0192b0b4-2"
             overflow="visible"
             style="overflow:visible">
            <path
               id="path16794"
               d="m 0.53125,2.171875 0.84375,0 0,-2.71875 c 0.4375,0.53125 0.921875,0.78125 1.609375,0.78125 1.34375,0 2.234375,-1.09375 2.234375,-2.75 0,-1.765625 -0.859375,-2.859375 -2.25,-2.859375 -0.703125,0 -1.28125,0.328125 -1.65625,0.9375 l 0,-0.78125 -0.78125,0 z M 2.828125,-4.59375 c 0.921875,0 1.515625,0.8125 1.515625,2.046875 0,1.1875 -0.609375,2 -1.515625,2 -0.875,0 -1.453125,-0.796875 -1.453125,-2.03125 0,-1.21875 0.578125,-2.015625 1.453125,-2.015625 z m 0,0"
               style="stroke:none"
               inkscape:connector-curvature="0" />
          </symbol>
          <symbol
             id="textext-0192b0b4-3"
             overflow="visible"
             style="overflow:visible">
            <path
               id="path16797"
               d="m 2.71875,-5.375 c -1.46875,0 -2.359375,1.046875 -2.359375,2.796875 0,1.765625 0.875,2.8125 2.359375,2.8125 1.46875,0 2.359375,-1.046875 2.359375,-2.765625 0,-1.8125 -0.859375,-2.84375 -2.359375,-2.84375 z m 0,0.765625 c 0.9375,0 1.5,0.765625 1.5,2.0625 0,1.234375 -0.578125,2.015625 -1.5,2.015625 -0.921875,0 -1.5,-0.78125 -1.5,-2.046875 0,-1.25 0.578125,-2.03125 1.5,-2.03125 z m 0,0"
               style="stroke:none"
               inkscape:connector-curvature="0" />
          </symbol>
          <symbol
             id="textext-0192b0b4-4"
             overflow="visible"
             style="overflow:visible">
            <path
               id="path16800"
               d="m 4.359375,-3.765625 c 0,-1.03125 -0.6875,-1.609375 -1.890625,-1.609375 -1.21875,0 -2,0.625 -2,1.59375 0,0.828125 0.421875,1.203125 1.65625,1.515625 l 0.78125,0.1875 c 0.578125,0.140625 0.796875,0.34375 0.796875,0.71875 0,0.484375 -0.484375,0.828125 -1.203125,0.828125 -0.453125,0 -0.828125,-0.140625 -1.046875,-0.359375 C 1.328125,-1.03125 1.265625,-1.1875 1.21875,-1.5625 l -0.875,0 c 0.03125,1.21875 0.71875,1.796875 2.078125,1.796875 1.3125,0 2.15625,-0.65625 2.15625,-1.65625 0,-0.78125 -0.4375,-1.203125 -1.484375,-1.453125 L 2.296875,-3.078125 c -0.671875,-0.15625 -0.96875,-0.375 -0.96875,-0.734375 0,-0.484375 0.4375,-0.796875 1.109375,-0.796875 0.671875,0 1.03125,0.296875 1.046875,0.84375 z m 0,0"
               style="stroke:none"
               inkscape:connector-curvature="0" />
          </symbol>
          <symbol
             id="textext-0192b0b4-5"
             overflow="visible"
             style="overflow:visible">
            <path
               id="path16803"
               d="m 1.5,-5.21875 -0.828125,0 0,5.21875 L 1.5,0 Z m 0,-2.046875 -0.84375,0 0,1.046875 0.84375,0 z m 0,0"
               style="stroke:none"
               inkscape:connector-curvature="0" />
          </symbol>
          <symbol
             id="textext-0192b0b4-6"
             overflow="visible"
             style="overflow:visible">
            <path
               id="path16806"
               d="m 2.53125,-5.21875 -0.859375,0 0,-1.4375 -0.828125,0 0,1.4375 -0.703125,0 0,0.671875 0.703125,0 0,3.953125 c 0,0.53125 0.359375,0.828125 1.015625,0.828125 0.1875,0 0.390625,-0.03125 0.671875,-0.078125 l 0,-0.6875 C 2.421875,-0.515625 2.296875,-0.5 2.140625,-0.5 1.78125,-0.5 1.671875,-0.59375 1.671875,-0.96875 l 0,-3.578125 0.859375,0 z m 0,0"
               style="stroke:none"
               inkscape:connector-curvature="0" />
          </symbol>
          <symbol
             id="textext-0192b0b4-7"
             overflow="visible"
             style="overflow:visible">
            <path
               id="path16809"
               d="M 5.109375,-2.328125 C 5.109375,-3.125 5.046875,-3.609375 4.90625,-4 4.5625,-4.859375 3.765625,-5.375 2.796875,-5.375 c -1.46875,0 -2.390625,1.125 -2.390625,2.828125 0,1.71875 0.90625,2.78125 2.359375,2.78125 1.203125,0 2.03125,-0.6875 2.234375,-1.8125 l -0.828125,0 c -0.234375,0.6875 -0.703125,1.046875 -1.375,1.046875 -0.53125,0 -0.96875,-0.25 -1.25,-0.6875 C 1.34375,-1.515625 1.28125,-1.8125 1.265625,-2.328125 Z m -3.828125,-0.6875 c 0.078125,-0.96875 0.65625,-1.59375 1.5,-1.59375 0.8125,0 1.453125,0.6875 1.453125,1.53125 0,0.03125 0,0.046875 -0.015625,0.0625 z m 0,0"
               style="stroke:none"
               inkscape:connector-curvature="0" />
          </symbol>
        </g>
      </defs>
      <g
         id="textext-0192b0b4-8">
        <g
           id="g16812"
           style="fill:#000000;fill-opacity:1">
          <use
             id="use16814"
             y="134.765"
             x="223.43201"
             xlink:href="#textext-0192b0b4-1"
             width="100%"
             height="100%" />
          <use
             id="use16816"
             y="134.765"
             x="231.18291"
             xlink:href="#textext-0192b0b4-2"
             width="100%"
             height="100%" />
          <use
             id="use16818"
             y="134.765"
             x="236.72211"
             xlink:href="#textext-0192b0b4-2"
             width="100%"
             height="100%" />
          <use
             id="use16820"
             y="134.765"
             x="242.26131"
             xlink:href="#textext-0192b0b4-3"
             width="100%"
             height="100%" />
          <use
             id="use16822"
             y="134.765"
             x="247.80052"
             xlink:href="#textext-0192b0b4-4"
             width="100%"
             height="100%" />
          <use
             id="use16824"
             y="134.765"
             x="252.78181"
             xlink:href="#textext-0192b0b4-5"
             width="100%"
             height="100%" />
          <use
             id="use16826"
             y="134.765"
             x="254.99352"
             xlink:href="#textext-0192b0b4-6"
             width="100%"
             height="100%" />
          <use
             id="use16828"
             y="134.765"
             x="257.76312"
             xlink:href="#textext-0192b0b4-7"
             width="100%"
             height="100%" />
        </g>
      </g>
    </g>
    <path
       style="fill:none;stroke:#000000;stroke-width:5;stroke-linecap:butt;stroke-linejoin:miter;stroke-miterlimit:4;stroke-dasharray:10, 5;stroke-dashoffset:0;stroke-opacity:1"
       d="m -624.52504,676.43902 -116.28562,50.26976"
       id="path17009"
       inkscape:connector-curvature="0"
       sodipodi:nodetypes="cc" />
    <path
       sodipodi:nodetypes="cc"
       inkscape:connector-curvature="0"
       id="path17011"
       d="M -627.6679,522.99445 -736.81066,475.58184"
       style="fill:none;stroke:#000000;stroke-width:5;stroke-linecap:butt;stroke-linejoin:miter;stroke-miterlimit:4;stroke-dasharray:10, 5;stroke-dashoffset:0;stroke-opacity:1" />
  </g>
</svg>
