<?xml version="1.0" encoding="UTF-8" standalone="no"?>
<!-- Created with Inkscape (http://www.inkscape.org/) -->

<svg
   xmlns:ns0="http://www.iki.fi/pav/software/textext/"
   xmlns:dc="http://purl.org/dc/elements/1.1/"
   xmlns:cc="http://creativecommons.org/ns#"
   xmlns:rdf="http://www.w3.org/1999/02/22-rdf-syntax-ns#"
   xmlns:svg="http://www.w3.org/2000/svg"
   xmlns="http://www.w3.org/2000/svg"
   xmlns:xlink="http://www.w3.org/1999/xlink"
   xmlns:sodipodi="http://sodipodi.sourceforge.net/DTD/sodipodi-0.dtd"
   xmlns:inkscape="http://www.inkscape.org/namespaces/inkscape"
   width="210mm"
   height="297mm"
   viewBox="0 0 744.09448819 1052.3622047"
   id="svg8014"
   version="1.1"
   inkscape:version="0.91 r13725"
   sodipodi:docname="weighs.svg">
  <sodipodi:namedview
     id="base"
     pagecolor="#ffffff"
     bordercolor="#666666"
     borderopacity="1.0"
     inkscape:pageopacity="0.0"
     inkscape:pageshadow="2"
     inkscape:zoom="1.979899"
     inkscape:cx="369.36694"
     inkscape:cy="561.72928"
     inkscape:document-units="px"
     inkscape:current-layer="layer1"
     showgrid="false"
     inkscape:snap-bbox="true"
     inkscape:bbox-paths="true"
     inkscape:bbox-nodes="true"
     inkscape:snap-bbox-edge-midpoints="true"
     inkscape:snap-bbox-midpoints="true"
     inkscape:object-paths="true"
     inkscape:snap-intersection-paths="true"
     inkscape:object-nodes="true"
     inkscape:snap-smooth-nodes="true"
     inkscape:snap-midpoints="true"
     inkscape:snap-object-midpoints="true"
     inkscape:snap-center="true"
     inkscape:snap-global="false"
     inkscape:window-width="1280"
     inkscape:window-height="755"
     inkscape:window-x="18"
     inkscape:window-y="98"
     inkscape:window-maximized="0" />
  <defs
     id="defs8016">
    <marker
       inkscape:stockid="TriangleOutL"
       orient="auto"
       refY="0.0"
       refX="0.0"
       id="marker19375"
       style="overflow:visible"
       inkscape:isstock="true">
      <path
         id="path19377"
         d="M 5.77,0.0 L -2.88,5.0 L -2.88,-5.0 L 5.77,0.0 z "
         style="fill-rule:evenodd;stroke:#000000;stroke-width:1pt;stroke-opacity:1;fill:#000000;fill-opacity:1"
         transform="scale(0.8)" />
    </marker>
    <marker
       inkscape:isstock="true"
       style="overflow:visible"
       id="marker19323"
       refX="0.0"
       refY="0.0"
       orient="auto"
       inkscape:stockid="TriangleOutL">
      <path
         transform="scale(0.8)"
         style="fill-rule:evenodd;stroke:#000000;stroke-width:1pt;stroke-opacity:1;fill:#000000;fill-opacity:1"
         d="M 5.77,0.0 L -2.88,5.0 L -2.88,-5.0 L 5.77,0.0 z "
         id="path19325" />
    </marker>
    <marker
       inkscape:isstock="true"
       style="overflow:visible"
       id="marker18340"
       refX="0.0"
       refY="0.0"
       orient="auto"
       inkscape:stockid="TriangleOutL">
      <path
         transform="scale(0.8)"
         style="fill-rule:evenodd;stroke:#000000;stroke-width:1pt;stroke-opacity:1;fill:#000000;fill-opacity:1"
         d="M 5.77,0.0 L -2.88,5.0 L -2.88,-5.0 L 5.77,0.0 z "
         id="path18342" />
    </marker>
    <marker
       inkscape:stockid="TriangleOutL"
       orient="auto"
       refY="0.0"
       refX="0.0"
       id="marker18302"
       style="overflow:visible"
       inkscape:isstock="true">
      <path
         id="path18304"
         d="M 5.77,0.0 L -2.88,5.0 L -2.88,-5.0 L 5.77,0.0 z "
         style="fill-rule:evenodd;stroke:#000000;stroke-width:1pt;stroke-opacity:1;fill:#000000;fill-opacity:1"
         transform="scale(0.8)" />
    </marker>
    <marker
       inkscape:isstock="true"
       style="overflow:visible"
       id="marker15557"
       refX="0.0"
       refY="0.0"
       orient="auto"
       inkscape:stockid="TriangleOutL">
      <path
         transform="scale(0.8)"
         style="fill-rule:evenodd;stroke:#000300;stroke-width:1pt;stroke-opacity:1;fill:#000300;fill-opacity:1"
         d="M 5.77,0.0 L -2.88,5.0 L -2.88,-5.0 L 5.77,0.0 z "
         id="path15559" />
    </marker>
    <linearGradient
       inkscape:collect="always"
       id="linearGradient14914">
      <stop
         style="stop-color:#00fe00;stop-opacity:1;"
         offset="0"
         id="stop14916" />
      <stop
         id="stop14936"
         offset="0.43057972"
         style="stop-color:#00fe00;stop-opacity:0.47058824;" />
      <stop
         id="stop14934"
         offset="0.53982341"
         style="stop-color:#00fe00;stop-opacity:0.3372549;" />
      <stop
         id="stop14932"
         offset="0.65747041"
         style="stop-color:#00fe00;stop-opacity:0.22745098;" />
      <stop
         id="stop14930"
         offset="0.90536958"
         style="stop-color:#00fe00;stop-opacity:0.09411765;" />
      <stop
         style="stop-color:#00fe00;stop-opacity:0;"
         offset="1"
         id="stop14918" />
    </linearGradient>
    <marker
       inkscape:stockid="TriangleOutL"
       orient="auto"
       refY="0.0"
       refX="0.0"
       id="marker9017"
       style="overflow:visible"
       inkscape:isstock="true">
      <path
         id="path9019"
         d="M 5.77,0.0 L -2.88,5.0 L -2.88,-5.0 L 5.77,0.0 z "
         style="fill-rule:evenodd;stroke:#000300;stroke-width:1pt;stroke-opacity:1;fill:#000300;fill-opacity:1"
         transform="scale(0.8)" />
    </marker>
    <marker
       inkscape:stockid="TriangleOutL"
       orient="auto"
       refY="0.0"
       refX="0.0"
       id="marker8787"
       style="overflow:visible"
       inkscape:isstock="true">
      <path
         id="path8789"
         d="M 5.77,0.0 L -2.88,5.0 L -2.88,-5.0 L 5.77,0.0 z "
         style="fill-rule:evenodd;stroke:#000000;stroke-width:1pt;stroke-opacity:1;fill:#000000;fill-opacity:1"
         transform="scale(0.8)" />
    </marker>
    <marker
       inkscape:collect="always"
       inkscape:isstock="true"
       style="overflow:visible"
       id="TriangleOutL"
       refX="0.0"
       refY="0.0"
       orient="auto"
       inkscape:stockid="TriangleOutL">
      <path
         transform="scale(0.8)"
         style="fill-rule:evenodd;stroke:#000000;stroke-width:1pt;stroke-opacity:1;fill:#000000;fill-opacity:1"
         d="M 5.77,0.0 L -2.88,5.0 L -2.88,-5.0 L 5.77,0.0 z "
         id="path4529" />
    </marker>
    <filter
       inkscape:collect="always"
       style="color-interpolation-filters:sRGB"
       id="filter14926"
       x="-0.021397303"
       width="1.0427946"
       y="-0.027323545"
       height="1.0546471">
      <feGaussianBlur
         inkscape:collect="always"
         stdDeviation="7.7657991"
         id="feGaussianBlur14928" />
    </filter>
    <linearGradient
       y2="1099.568"
       x2="-1263.5275"
       y1="419.56799"
       x1="-1263.5275"
       gradientTransform="translate(1501.4286,-478.57142)"
       gradientUnits="userSpaceOnUse"
       id="linearGradient4708"
       xlink:href="#linearGradient14914"
       inkscape:collect="always" />
  </defs>
  <metadata
     id="metadata8019">
    <rdf:RDF>
      <cc:Work
         rdf:about="">
        <dc:format>image/svg+xml</dc:format>
        <dc:type
           rdf:resource="http://purl.org/dc/dcmitype/StillImage" />
        <dc:title></dc:title>
      </cc:Work>
    </rdf:RDF>
  </metadata>
  <g
     id="layer1"
     inkscape:groupmode="layer"
     inkscape:label="Layer 1">
    <circle
       id="circle8629"
       style="fill:#fc00b9;fill-opacity:1;stroke:none"
       cx="387.7616"
       cy="570.95465"
       r="3.3823314" />
    <circle
       id="circle8633"
       style="fill:#fc00b9;fill-opacity:1;stroke:none"
       cx="534.70618"
       cy="492.80075"
       r="3.3823314" />
    <circle
       id="circle8637"
       style="fill:#fc00b9;fill-opacity:1;stroke:none"
       cx="373.50452"
       cy="621.57489"
       r="3.3823314" />
    <circle
       r="3.3823314"
       cy="652.95239"
       cx="310.36108"
       style="fill:#fc00b9;fill-opacity:1;stroke:none"
       id="circle8643" />
    <circle
       id="circle8645"
       style="fill:#fc00b9;fill-opacity:1;stroke:none"
       cx="467.67273"
       cy="648.1413"
       r="3.3823314" />
    <circle
       r="3.3823314"
       cy="672.82007"
       cx="513.77917"
       style="fill:#fc00b9;fill-opacity:1;stroke:none"
       id="circle8647" />
    <circle
       id="circle8653"
       style="fill:#fc00b9;fill-opacity:1;stroke:none"
       cx="630.45459"
       cy="590.56281"
       r="3.3823314" />
    <circle
       id="circle8657"
       style="fill:#fc00b9;fill-opacity:1;stroke:none"
       cx="442.07794"
       cy="621.40302"
       r="3.3823314" />
    <circle
       r="3.3823314"
       cy="568.42346"
       cx="433.27856"
       style="fill:#fc00b9;fill-opacity:1;stroke:none"
       id="circle8659" />
    <circle
       id="circle8661"
       style="fill:#fc00b9;fill-opacity:1;stroke:none"
       cx="501.73322"
       cy="585.62671"
       r="3.3823314" />
    <circle
       r="3.3823314"
       cy="557.96753"
       cx="484.21271"
       style="fill:#fc00b9;fill-opacity:1;stroke:none"
       id="circle8665" />
    <circle
       id="circle8667"
       style="fill:#fc00b9;fill-opacity:1;stroke:none"
       cx="323.53937"
       cy="562.52924"
       r="3.3823314" />
    <circle
       r="3.3823314"
       cy="503.63461"
       cx="660.45148"
       style="fill:#fc00b9;fill-opacity:1;stroke:none"
       id="circle8669" />
    <circle
       id="circle8671"
       style="fill:#fc00b9;fill-opacity:1;stroke:none"
       cx="306.33609"
       cy="597.65259"
       r="3.3823314" />
    <circle
       id="circle8677"
       style="fill:#fc00b9;fill-opacity:1;stroke:none"
       cx="264.2565"
       cy="604.10199"
       r="3.3823314" />
    <circle
       id="circle8681"
       style="fill:#fc00b9;fill-opacity:1;stroke:none"
       cx="405.16245"
       cy="665.43158"
       r="3.3823314" />
    <circle
       id="circle8687"
       style="fill:#fc00b9;fill-opacity:1;stroke:none"
       cx="514.13647"
       cy="563.55353"
       r="3.3823314" />
    <circle
       id="circle8691"
       style="fill:#fc00b9;fill-opacity:1;stroke:none"
       cx="253.41135"
       cy="640.64661"
       r="3.3823314" />
    <circle
       r="3.3823314"
       cy="678.2478"
       cx="275.02164"
       style="fill:#fc00b9;fill-opacity:1;stroke:none"
       id="circle8709" />
    <circle
       id="circle8711"
       style="fill:#fc00b9;fill-opacity:1;stroke:none"
       cx="189.25749"
       cy="701.71783"
       r="3.3823314" />
    <circle
       r="3.3823314"
       cy="612.83429"
       cx="213.98721"
       style="fill:#fc00b9;fill-opacity:1;stroke:none"
       id="circle8713" />
    <circle
       id="circle8715"
       style="fill:#fc00b9;fill-opacity:1;stroke:none"
       cx="438.34641"
       cy="713.18665"
       r="3.3823314" />
    <circle
       id="circle8719"
       style="fill:#fc00b9;fill-opacity:1;stroke:none"
       cx="237.64169"
       cy="550.11407"
       r="3.3823314" />
    <circle
       r="3.3823314"
       cy="584.58209"
       cx="288.07254"
       style="fill:#fc00b9;fill-opacity:1;stroke:none"
       id="circle8721" />
    <circle
       id="circle8727"
       style="fill:#fc00b9;fill-opacity:1;stroke:none"
       cx="386.01981"
       cy="492.41141"
       r="3.3823314" />
    <circle
       r="3.3823314"
       cy="494.92026"
       cx="326.16678"
       style="fill:#fc00b9;fill-opacity:1;stroke:none"
       id="circle8729" />
    <circle
       id="circle8731"
       style="fill:#fc00b9;fill-opacity:1;stroke:none"
       cx="452.68243"
       cy="515.70752"
       r="3.3823314" />
    <circle
       id="circle8735"
       style="fill:#fc00b9;fill-opacity:1;stroke:none"
       cx="404.94739"
       cy="695.1181"
       r="3.3823314" />
    <circle
       r="3.3823314"
       cy="713.54504"
       cx="375.98456"
       style="fill:#fc00b9;fill-opacity:1;stroke:none"
       id="circle8737" />
    <circle
       id="circle8739"
       style="fill:#fc00b9;fill-opacity:1;stroke:none"
       cx="317.56516"
       cy="704.94342"
       r="3.3823314" />
    <circle
       r="3.3823314"
       cy="708.56348"
       cx="488.30286"
       style="fill:#fc00b9;fill-opacity:1;stroke:none"
       id="circle8743" />
    <circle
       id="circle8745"
       style="fill:#fc00b9;fill-opacity:1;stroke:none"
       cx="535.98334"
       cy="708.21558"
       r="3.3823314" />
    <circle
       r="3.3823314"
       cy="654.29382"
       cx="606.7605"
       style="fill:#fc00b9;fill-opacity:1;stroke:none"
       id="circle8747" />
    <circle
       id="circle8749"
       style="fill:#fc00b9;fill-opacity:1;stroke:none"
       cx="598.9837"
       cy="700.54071"
       r="3.3823314" />
    <circle
       r="3.3823314"
       cy="557.47815"
       cx="630.51685"
       style="fill:#fc00b9;fill-opacity:1;stroke:none"
       id="circle8751" />
    <circle
       id="circle8753"
       style="fill:#fc00b9;fill-opacity:1;stroke:none"
       cx="506.69873"
       cy="515.81781"
       r="3.3823314" />
    <circle
       id="circle8757"
       style="fill:#fc00b9;fill-opacity:1;stroke:none"
       cx="565.11389"
       cy="594.76068"
       r="3.3823314" />
    <circle
       r="3.3823314"
       cy="520.75354"
       cx="564.26538"
       style="fill:#fc00b9;fill-opacity:1;stroke:none"
       id="circle8759" />
    <path
       inkscape:connector-curvature="0"
       id="path8763"
       d="m 229.11089,702.43048 45.40523,0"
       style="fill:none;stroke:#000000;stroke-width:0.93930262;stroke-linecap:butt;stroke-linejoin:miter;stroke-miterlimit:4;stroke-dasharray:none;stroke-opacity:1;marker-end:url(#marker8787)" />
    <path
       inkscape:connector-curvature="0"
       id="path8765"
       d="m 229.11089,702.43048 14.03444,-42.03411"
       style="fill:none;stroke:#000000;stroke-width:0.96972179;stroke-linecap:butt;stroke-linejoin:miter;stroke-miterlimit:4;stroke-dasharray:none;stroke-opacity:1;marker-end:url(#TriangleOutL)" />
    <path
       style="fill:none;stroke:#010101;stroke-width:1.5;stroke-linecap:butt;stroke-linejoin:miter;stroke-miterlimit:4;stroke-dasharray:none;stroke-dashoffset:0;stroke-opacity:1"
       d="m 408.62818,399.7412 c -34.22586,3.06264 -42.91969,63.59615 -63.42938,103.922 -19.62647,38.58927 -70.14768,68.25268 -90.66797,100.9307"
       id="path9111"
       inkscape:connector-curvature="0"
       sodipodi:nodetypes="csc" />
    <ellipse
       ry="40.477341"
       rx="155.44475"
       cy="603.58643"
       cx="409.39081"
       id="path9119"
       style="opacity:1;fill:none;fill-opacity:1;stroke:#00cb00;stroke-width:2.9822247;stroke-linejoin:miter;stroke-miterlimit:4;stroke-dasharray:8.94667404, 2.98222468;stroke-dashoffset:0;stroke-opacity:1" />
    <g
       id="g9800"
       transform="matrix(2.782191,0,0,2.782191,-45.551138,248.37007)"
       ns0:preamble="/Users/ignathanas/Documents/Contributions/Contact_1/AMA-stix/ama/figures/textext.preamble.tex"
       ns0:text="$r$">
      <defs
         id="defs9802">
        <g
           id="g9804">
          <symbol
             style="overflow:visible"
             id="textext-bdc2e617-0"
             overflow="visible">
            <path
               inkscape:connector-curvature="0"
               id="path9807"
               d=""
               style="stroke:none" />
          </symbol>
          <symbol
             style="overflow:visible"
             id="textext-bdc2e617-1"
             overflow="visible">
            <path
               inkscape:connector-curvature="0"
               id="path9810"
               d="M 1.203125,0 C 1.71875,-1.6875 1.890625,-2.125 2.359375,-2.875 2.6875,-3.4375 2.953125,-3.75 3.125,-3.75 c 0.0625,0 0.109375,0.046875 0.171875,0.140625 0.078125,0.171875 0.15625,0.21875 0.359375,0.21875 0.28125,0 0.453125,-0.171875 0.453125,-0.484375 0,-0.3125 -0.1875,-0.515625 -0.46875,-0.515625 -0.234375,0 -0.5,0.140625 -0.765625,0.40625 C 2.46875,-3.5625 2.078125,-2.96875 1.90625,-2.578125 L 1.78125,-2.21875 2.296875,-4.375 2.265625,-4.390625 c -0.71875,0.125 -0.8125,0.140625 -1.53125,0.265625 l 0,0.171875 C 0.96875,-4 1,-4 1.0625,-4 c 0.21875,0 0.359375,0.09375 0.359375,0.265625 0,0.140625 0,0.140625 -0.171875,0.828125 L 0.453125,0 Z m 0,0"
               style="stroke:none" />
          </symbol>
        </g>
      </defs>
      <g
         id="textext-bdc2e617-2">
        <g
           id="g9813"
           style="fill:#000000;fill-opacity:1">
          <use
             height="100%"
             width="100%"
             id="use9815"
             y="134.765"
             x="223.27299"
             xlink:href="#textext-bdc2e617-1" />
        </g>
      </g>
    </g>
    <g
       ns0:text="$w$"
       ns0:preamble="/Users/ignathanas/Documents/Contributions/Contact_1/AMA-stix/ama/figures/textext.preamble.tex"
       transform="matrix(2.782191,0,0,2.782191,-249.09213,16.517167)"
       id="g10073">
      <defs
         id="defs10075">
        <g
           id="g10077">
          <symbol
             style="overflow:visible"
             overflow="visible"
             id="textext-c5c41a69-0">
            <path
               inkscape:connector-curvature="0"
               style="stroke:none"
               d=""
               id="path10080" />
          </symbol>
          <symbol
             style="overflow:visible"
             overflow="visible"
             id="textext-c5c41a69-1">
            <path
               inkscape:connector-curvature="0"
               style="stroke:none"
               d="m 6.453125,-3.875 c 0,-0.296875 -0.21875,-0.515625 -0.515625,-0.515625 -0.234375,0 -0.390625,0.125 -0.390625,0.328125 0,0.140625 0.0625,0.21875 0.21875,0.359375 0.15625,0.15625 0.21875,0.25 0.21875,0.375 0,0.421875 -0.34375,0.953125 -1.640625,2.59375 L 4.015625,-4.25 C 4.015625,-4.359375 4,-4.390625 3.9375,-4.390625 c -0.046875,0 -0.078125,0.03125 -0.125,0.109375 L 1.890625,-1.25 C 1.859375,-2.140625 1.71875,-3.34375 1.578125,-4.0625 1.515625,-4.375 1.5,-4.390625 1.390625,-4.390625 0.875,-4.28125 0.15625,-4.15625 0.15625,-4.15625 l 0,0.125 0.296875,0 c 0.28125,0 0.359375,0.0625 0.4375,0.421875 C 1,-3.125 1.125,-1.96875 1.171875,-1.171875 l 0.03125,0.875 C 1.21875,0.09375 1.25,0.171875 1.328125,0.171875 1.453125,0.171875 2.5,-1.75 2.5,-1.75 L 3.375,-3.15625 3.703125,-0.125 C 3.71875,0.15625 3.734375,0.171875 3.8125,0.171875 3.890625,0.171875 4,0.078125 4.25,-0.25 L 4.34375,-0.359375 C 5.734375,-2.03125 6.453125,-3.234375 6.453125,-3.875 Z m 0,0"
               id="path10083" />
          </symbol>
        </g>
      </defs>
      <g
         id="textext-c5c41a69-2">
        <g
           style="fill:#000000;fill-opacity:1"
           id="g10086">
          <use
             height="100%"
             width="100%"
             xlink:href="#textext-c5c41a69-1"
             x="223.562"
             y="134.765"
             id="use10088" />
        </g>
      </g>
    </g>
    <g
       id="g10396"
       transform="matrix(2.782191,0,0,2.782191,-365.96183,343.70481)"
       ns0:preamble="/Users/ignathanas/Documents/Contributions/Contact_1/AMA-stix/ama/figures/textext.preamble.tex"
       ns0:text="$x$">
      <defs
         id="defs10398">
        <g
           id="g10400">
          <symbol
             style="overflow:visible"
             id="textext-05e2de28-0"
             overflow="visible">
            <path
               inkscape:connector-curvature="0"
               id="path10403"
               d=""
               style="stroke:none" />
          </symbol>
          <symbol
             style="overflow:visible"
             id="textext-05e2de28-1"
             overflow="visible">
            <path
               inkscape:connector-curvature="0"
               id="path10406"
               d="M 4,-1.109375 C 3.921875,-1.015625 3.875,-0.953125 3.78125,-0.84375 3.5625,-0.53125 3.4375,-0.4375 3.328125,-0.4375 3.1875,-0.4375 3.09375,-0.5625 3.015625,-0.84375 3,-0.921875 2.984375,-0.984375 2.984375,-1.015625 2.734375,-2.03125 2.625,-2.484375 2.625,-2.625 c 0.4375,-0.78125 0.796875,-1.21875 0.96875,-1.21875 0.0625,0 0.140625,0.03125 0.25,0.078125 0.109375,0.078125 0.1875,0.09375 0.265625,0.09375 0.203125,0 0.34375,-0.140625 0.34375,-0.359375 0,-0.203125 -0.171875,-0.359375 -0.40625,-0.359375 -0.4375,0 -0.8125,0.359375 -1.5,1.421875 L 2.4375,-3.515625 c -0.140625,-0.6875 -0.25,-0.875 -0.53125,-0.875 -0.21875,0 -0.546875,0.078125 -1.15625,0.28125 L 0.640625,-4.0625 0.671875,-3.921875 C 1.0625,-4 1.140625,-4.03125 1.234375,-4.03125 c 0.25,0 0.3125,0.09375 0.453125,0.6875 l 0.28125,1.234375 -0.8125,1.15625 C 0.953125,-0.640625 0.75,-0.46875 0.640625,-0.46875 0.59375,-0.46875 0.484375,-0.5 0.390625,-0.5625 0.265625,-0.625 0.15625,-0.65625 0.0625,-0.65625 c -0.1875,0 -0.328125,0.140625 -0.328125,0.34375 0,0.265625 0.203125,0.421875 0.5,0.421875 0.296875,0 0.421875,-0.09375 0.921875,-0.703125 0.265625,-0.3125 0.484375,-0.578125 0.890625,-1.15625 l 0.3125,1.1875 c 0.125,0.515625 0.25,0.671875 0.578125,0.671875 0.375,0 0.625,-0.234375 1.203125,-1.140625 z m 0,0"
               style="stroke:none" />
          </symbol>
        </g>
      </defs>
      <g
         id="textext-05e2de28-2">
        <g
           id="g10409"
           style="fill:#000000;fill-opacity:1">
          <use
             height="100%"
             width="100%"
             id="use10411"
             y="134.765"
             x="223.98"
             xlink:href="#textext-05e2de28-1" />
        </g>
      </g>
    </g>
    <g
       ns0:text="$y$"
       ns0:preamble="/Users/ignathanas/Documents/Contributions/Contact_1/AMA-stix/ama/figures/textext.preamble.tex"
       transform="matrix(2.782191,0,0,2.782191,-402.16043,299.26305)"
       id="g10699">
      <defs
         id="defs10701">
        <g
           id="g10703">
          <symbol
             style="overflow:visible"
             overflow="visible"
             id="textext-d1431137-0">
            <path
               inkscape:connector-curvature="0"
               style="stroke:none"
               d=""
               id="path10706" />
          </symbol>
          <symbol
             style="overflow:visible"
             overflow="visible"
             id="textext-d1431137-1">
            <path
               inkscape:connector-curvature="0"
               style="stroke:none"
               d="M 4.25,-3.84375 C 4.25,-4.140625 4,-4.390625 3.703125,-4.390625 3.46875,-4.390625 3.3125,-4.25 3.3125,-4.03125 c 0,0.15625 0.078125,0.265625 0.28125,0.390625 0.1875,0.109375 0.25,0.203125 0.25,0.34375 0,0.390625 -0.359375,1.15625 -1.21875,2.578125 L 2.4375,-1.875 C 2.28125,-2.765625 1.71875,-4.390625 1.578125,-4.390625 l -0.125,0 -0.984375,0.171875 -0.3125,0.0625 0,0.171875 c 0.109375,-0.03125 0.1875,-0.046875 0.296875,-0.046875 0.40625,0 0.578125,0.15625 0.765625,0.640625 0.28125,0.671875 0.828125,2.90625 0.828125,3.3125 C 2.046875,0.03125 2,0.15625 1.9375,0.265625 1.859375,0.40625 1.421875,0.984375 1.234375,1.171875 1,1.421875 0.890625,1.5 0.75,1.5 0.6875,1.5 0.625,1.46875 0.515625,1.390625 0.375,1.28125 0.265625,1.21875 0.15625,1.21875 c -0.21875,0 -0.390625,0.171875 -0.390625,0.390625 0,0.265625 0.203125,0.4375 0.5,0.4375 C 0.84375,2.046875 1.90625,0.90625 2.9375,-0.8125 3.78125,-2.1875 4.25,-3.28125 4.25,-3.84375 Z m 0,0"
               id="path10709" />
          </symbol>
        </g>
      </defs>
      <g
         id="textext-d1431137-2">
        <g
           style="fill:#000000;fill-opacity:1"
           id="g10712">
          <use
             height="100%"
             width="100%"
             xlink:href="#textext-d1431137-1"
             x="223.95"
             y="134.765"
             id="use10714" />
        </g>
      </g>
    </g>
    <path
       sodipodi:nodetypes="cc"
       inkscape:connector-curvature="0"
       id="path12901"
       d="M 406.73758,528.4225 319.6576,446.9242"
       style="fill:none;stroke:#000000;stroke-width:0.42772368px;stroke-linecap:butt;stroke-linejoin:miter;stroke-opacity:1" />
    <circle
       r="3.3823314"
       cy="604.13"
       cx="486.76465"
       style="fill:#fc00b9;fill-opacity:1;stroke:none"
       id="circle14227" />
    <path
       sodipodi:nodetypes="csc"
       inkscape:connector-curvature="0"
       id="path19435"
       d="m 408.62818,399.7412 c 34.22587,3.06264 42.91969,63.59615 63.42938,103.922 19.62647,38.58927 70.14768,68.25268 90.66797,100.9307"
       style="fill:none;stroke:#000000;stroke-width:4.43498945;stroke-linecap:butt;stroke-linejoin:miter;stroke-miterlimit:4;stroke-dasharray:none;stroke-dashoffset:0;stroke-opacity:1" />
    <g
       id="g19453">
      <path
         inkscape:connector-curvature="0"
         id="path19455"
         d="m 407.95521,602.9392 194.90703,1.61617"
         style="fill:none;stroke:#000300;stroke-width:1.63147521;stroke-linecap:butt;stroke-linejoin:miter;stroke-miterlimit:4;stroke-dasharray:none;stroke-opacity:1;marker-end:url(#marker9017)" />
      <path
         style="fill:none;stroke:#000300;stroke-width:1.63147521;stroke-linecap:butt;stroke-linejoin:miter;stroke-miterlimit:4;stroke-dasharray:none;stroke-opacity:1;marker-end:url(#marker15557)"
         d="m 407.95521,602.9392 0,-218.63982"
         id="path19457"
         inkscape:connector-curvature="0" />
    </g>
    <g
       id="g19851"
       transform="matrix(2.782191,0,0,2.782191,-328.91629,23.14407)"
       ns0:preamble="/Users/ignathanas/Documents/Contributions/Contact_1/AMA-stix/ama/figures/textext.preamble.tex"
       ns0:text="$w({\\boldsymbol{\\rm{x}}_i})$">
      <defs
         id="defs19853">
        <g
           id="g19855">
          <symbol
             id="symbol19857"
             overflow="visible"
             style="overflow:visible">
            <path
               id="path19859"
               d=""
               style="stroke:none"
               inkscape:connector-curvature="0" />
          </symbol>
          <symbol
             id="symbol19861"
             overflow="visible"
             style="overflow:visible">
            <path
               id="path19863"
               d="m 6.453125,-3.875 c 0,-0.296875 -0.21875,-0.515625 -0.515625,-0.515625 -0.234375,0 -0.390625,0.125 -0.390625,0.328125 0,0.140625 0.0625,0.21875 0.21875,0.359375 0.15625,0.15625 0.21875,0.25 0.21875,0.375 0,0.421875 -0.34375,0.953125 -1.640625,2.59375 L 4.015625,-4.25 C 4.015625,-4.359375 4,-4.390625 3.9375,-4.390625 c -0.046875,0 -0.078125,0.03125 -0.125,0.109375 L 1.890625,-1.25 C 1.859375,-2.140625 1.71875,-3.34375 1.578125,-4.0625 1.515625,-4.375 1.5,-4.390625 1.390625,-4.390625 0.875,-4.28125 0.15625,-4.15625 0.15625,-4.15625 l 0,0.125 0.296875,0 c 0.28125,0 0.359375,0.0625 0.4375,0.421875 C 1,-3.125 1.125,-1.96875 1.171875,-1.171875 l 0.03125,0.875 C 1.21875,0.09375 1.25,0.171875 1.328125,0.171875 1.453125,0.171875 2.5,-1.75 2.5,-1.75 L 3.375,-3.15625 3.703125,-0.125 C 3.71875,0.15625 3.734375,0.171875 3.8125,0.171875 3.890625,0.171875 4,0.078125 4.25,-0.25 L 4.34375,-0.359375 C 5.734375,-2.03125 6.453125,-3.234375 6.453125,-3.875 Z m 0,0"
               style="stroke:none"
               inkscape:connector-curvature="0" />
          </symbol>
          <symbol
             id="symbol19865"
             overflow="visible"
             style="overflow:visible">
            <path
               id="path19867"
               d=""
               style="stroke:none"
               inkscape:connector-curvature="0" />
          </symbol>
          <symbol
             id="symbol19869"
             overflow="visible"
             style="overflow:visible">
            <path
               id="path19871"
               d="M 2.9375,-7.140625 C 1.5,-6.203125 0.484375,-4.59375 0.484375,-2.5625 c 0,1.859375 1.046875,3.734375 2.421875,4.578125 l 0.125,-0.15625 C 1.71875,0.8125 1.328125,-0.390625 1.328125,-2.59375 1.328125,-4.8125 1.75,-5.953125 3.03125,-6.984375 Z m 0,0"
               style="stroke:none"
               inkscape:connector-curvature="0" />
          </symbol>
          <symbol
             id="symbol19873"
             overflow="visible"
             style="overflow:visible">
            <path
               id="path19875"
               d="m 0.375,-7.140625 -0.078125,0.15625 c 1.28125,1.03125 1.6875,2.171875 1.6875,4.390625 0,2.203125 -0.375,3.40625 -1.6875,4.453125 l 0.109375,0.15625 c 1.375,-0.84375 2.4375,-2.71875 2.4375,-4.578125 0,-2.03125 -1.015625,-3.640625 -2.46875,-4.578125 z m 0,0"
               style="stroke:none"
               inkscape:connector-curvature="0" />
          </symbol>
          <symbol
             id="symbol19877"
             overflow="visible"
             style="overflow:visible">
            <path
               id="path19879"
               d=""
               style="stroke:none"
               inkscape:connector-curvature="0" />
          </symbol>
          <symbol
             id="symbol19881"
             overflow="visible"
             style="overflow:visible">
            <path
               id="path19883"
               d="m 4.828125,0 0,-0.234375 C 4.671875,-0.296875 4.59375,-0.328125 4.53125,-0.4375 L 3.046875,-2.71875 4.0625,-3.96875 C 4.25,-4.203125 4.453125,-4.3125 4.75,-4.359375 l 0,-0.234375 -1.671875,0 0,0.234375 C 3.171875,-4.34375 3.25,-4.34375 3.28125,-4.34375 c 0.234375,0.015625 0.3125,0.078125 0.3125,0.234375 0,0.140625 -0.109375,0.3125 -0.390625,0.625 C 3.15625,-3.421875 3,-3.234375 2.84375,-3.015625 2.796875,-3.09375 2.75,-3.15625 2.71875,-3.1875 2.40625,-3.609375 2.140625,-4.03125 2.140625,-4.171875 c 0,-0.109375 0.140625,-0.171875 0.46875,-0.1875 l 0,-0.234375 -2.484375,0 0,0.234375 c 0.25,0.046875 0.3125,0.09375 0.515625,0.390625 L 1.90625,-2 c -0.28125,0.359375 -0.546875,0.6875 -0.640625,0.828125 -0.5625,0.75 -0.75,0.90625 -1.125,0.9375 l 0,0.234375 1.6875,0 0,-0.234375 c -0.359375,-0.03125 -0.5,-0.09375 -0.5,-0.25 0,-0.140625 0.25,-0.5625 0.640625,-1.015625 0.015625,-0.03125 0.078125,-0.109375 0.15625,-0.203125 l 0.421875,0.625 C 2.765625,-0.75 2.875,-0.5625 2.875,-0.4375 c 0,0.125 -0.140625,0.171875 -0.453125,0.203125 l 0,0.234375 z m 0,0"
               style="stroke:none"
               inkscape:connector-curvature="0" />
          </symbol>
          <symbol
             id="symbol19885"
             overflow="visible"
             style="overflow:visible">
            <path
               id="path19887"
               d=""
               style="stroke:none"
               inkscape:connector-curvature="0" />
          </symbol>
          <symbol
             id="symbol19889"
             overflow="visible"
             style="overflow:visible">
            <path
               id="path19891"
               d="M 1.9375,-0.75 1.828125,-0.828125 c -0.34375,0.40625 -0.515625,0.5625 -0.65625,0.5625 -0.078125,0 -0.140625,-0.046875 -0.140625,-0.109375 0,-0.109375 0.078125,-0.328125 0.109375,-0.46875 L 1.734375,-3.1875 1.78125,-3.203125 C 0.921875,-3.0625 0.75,-3.046875 0.421875,-3.015625 l 0,0.109375 c 0.4375,0 0.515625,0.03125 0.515625,0.171875 0,0.0625 -0.015625,0.1875 -0.0625,0.328125 L 0.546875,-1.125 c -0.109375,0.4375 -0.15625,0.640625 -0.15625,0.796875 0.015625,0.265625 0.15625,0.40625 0.40625,0.40625 0.390625,0 0.6875,-0.21875 1.140625,-0.828125 z m 0.21875,-3.53125 c 0,-0.203125 -0.1875,-0.390625 -0.421875,-0.390625 -0.21875,0 -0.390625,0.15625 -0.390625,0.390625 0.015625,0.234375 0.1875,0.375 0.421875,0.375 0.21875,0 0.40625,-0.171875 0.390625,-0.375 z m 0,0"
               style="stroke:none"
               inkscape:connector-curvature="0" />
          </symbol>
        </g>
      </defs>
      <g
         transform="translate(-26.507002,12.205973)"
         ns0:text="$w(||{\\boldsymbol{\\rm x}}_{\\rm t} - {\\boldsymbol{\\rm x}}_i||)$"
         ns0:preamble="/Users/ignathanas/Documents/Contributions/Contact_1/AMA-stix/ama/figures/textext.preamble.tex"
         id="g19893">
        <defs
           id="defs19895">
          <g
             id="g19897">
            <symbol
               style="overflow:visible"
               overflow="visible"
               id="symbol19899">
              <path
                 inkscape:connector-curvature="0"
                 style="stroke:none"
                 d=""
                 id="path19901" />
            </symbol>
            <symbol
               style="overflow:visible"
               overflow="visible"
               id="symbol19903">
              <path
                 inkscape:connector-curvature="0"
                 style="stroke:none"
                 d="m 6.453125,-3.875 c 0,-0.296875 -0.21875,-0.515625 -0.515625,-0.515625 -0.234375,0 -0.390625,0.125 -0.390625,0.328125 0,0.140625 0.0625,0.21875 0.21875,0.359375 0.15625,0.15625 0.21875,0.25 0.21875,0.375 0,0.421875 -0.34375,0.953125 -1.640625,2.59375 L 4.015625,-4.25 C 4.015625,-4.359375 4,-4.390625 3.9375,-4.390625 c -0.046875,0 -0.078125,0.03125 -0.125,0.109375 L 1.890625,-1.25 C 1.859375,-2.140625 1.71875,-3.34375 1.578125,-4.0625 1.515625,-4.375 1.5,-4.390625 1.390625,-4.390625 0.875,-4.28125 0.15625,-4.15625 0.15625,-4.15625 l 0,0.125 0.296875,0 c 0.28125,0 0.359375,0.0625 0.4375,0.421875 C 1,-3.125 1.125,-1.96875 1.171875,-1.171875 l 0.03125,0.875 C 1.21875,0.09375 1.25,0.171875 1.328125,0.171875 1.453125,0.171875 2.5,-1.75 2.5,-1.75 L 3.375,-3.15625 3.703125,-0.125 C 3.71875,0.15625 3.734375,0.171875 3.8125,0.171875 3.890625,0.171875 4,0.078125 4.25,-0.25 L 4.34375,-0.359375 C 5.734375,-2.03125 6.453125,-3.234375 6.453125,-3.875 Z m 0,0"
                 id="path19905" />
            </symbol>
            <symbol
               style="overflow:visible"
               overflow="visible"
               id="symbol19907">
              <path
                 inkscape:connector-curvature="0"
                 style="stroke:none"
                 d=""
                 id="path19909" />
            </symbol>
            <symbol
               style="overflow:visible"
               overflow="visible"
               id="symbol19911">
              <path
                 inkscape:connector-curvature="0"
                 style="stroke:none"
                 d="M 2.9375,-7.140625 C 1.5,-6.203125 0.484375,-4.59375 0.484375,-2.5625 c 0,1.859375 1.046875,3.734375 2.421875,4.578125 l 0.125,-0.15625 C 1.71875,0.8125 1.328125,-0.390625 1.328125,-2.59375 1.328125,-4.8125 1.75,-5.953125 3.03125,-6.984375 Z m 0,0"
                 id="path19913" />
            </symbol>
            <symbol
               style="overflow:visible"
               overflow="visible"
               id="symbol19915">
              <path
                 inkscape:connector-curvature="0"
                 style="stroke:none"
                 d="m 1.28125,1.921875 0,-8.96875 -0.5625,0 0,8.96875 z m 0,0"
                 id="path19917" />
            </symbol>
            <symbol
               style="overflow:visible"
               overflow="visible"
               id="symbol19919">
              <path
                 inkscape:connector-curvature="0"
                 style="stroke:none"
                 d="m 5.71875,-2.28125 0,-0.5625 -5.09375,0 0,0.5625 z m 0,0"
                 id="path19921" />
            </symbol>
            <symbol
               style="overflow:visible"
               overflow="visible"
               id="symbol19923">
              <path
                 inkscape:connector-curvature="0"
                 style="stroke:none"
                 d="m 0.375,-7.140625 -0.078125,0.15625 c 1.28125,1.03125 1.6875,2.171875 1.6875,4.390625 0,2.203125 -0.375,3.40625 -1.6875,4.453125 l 0.109375,0.15625 c 1.375,-0.84375 2.4375,-2.71875 2.4375,-4.578125 0,-2.03125 -1.015625,-3.640625 -2.46875,-4.578125 z m 0,0"
                 id="path19925" />
            </symbol>
            <symbol
               style="overflow:visible"
               overflow="visible"
               id="symbol19927">
              <path
                 inkscape:connector-curvature="0"
                 style="stroke:none"
                 d=""
                 id="path19929" />
            </symbol>
            <symbol
               style="overflow:visible"
               overflow="visible"
               id="symbol19931">
              <path
                 inkscape:connector-curvature="0"
                 style="stroke:none"
                 d="m 4.828125,0 0,-0.234375 C 4.671875,-0.296875 4.59375,-0.328125 4.53125,-0.4375 L 3.046875,-2.71875 4.0625,-3.96875 C 4.25,-4.203125 4.453125,-4.3125 4.75,-4.359375 l 0,-0.234375 -1.671875,0 0,0.234375 C 3.171875,-4.34375 3.25,-4.34375 3.28125,-4.34375 c 0.234375,0.015625 0.3125,0.078125 0.3125,0.234375 0,0.140625 -0.109375,0.3125 -0.390625,0.625 C 3.15625,-3.421875 3,-3.234375 2.84375,-3.015625 2.796875,-3.09375 2.75,-3.15625 2.71875,-3.1875 2.40625,-3.609375 2.140625,-4.03125 2.140625,-4.171875 c 0,-0.109375 0.140625,-0.171875 0.46875,-0.1875 l 0,-0.234375 -2.484375,0 0,0.234375 c 0.25,0.046875 0.3125,0.09375 0.515625,0.390625 L 1.90625,-2 c -0.28125,0.359375 -0.546875,0.6875 -0.640625,0.828125 -0.5625,0.75 -0.75,0.90625 -1.125,0.9375 l 0,0.234375 1.6875,0 0,-0.234375 c -0.359375,-0.03125 -0.5,-0.09375 -0.5,-0.25 0,-0.140625 0.25,-0.5625 0.640625,-1.015625 0.015625,-0.03125 0.078125,-0.109375 0.15625,-0.203125 l 0.421875,0.625 C 2.765625,-0.75 2.875,-0.5625 2.875,-0.4375 c 0,0.125 -0.140625,0.171875 -0.453125,0.203125 l 0,0.234375 z m 0,0"
                 id="path19933" />
            </symbol>
            <symbol
               style="overflow:visible"
               overflow="visible"
               id="symbol19935">
              <path
                 inkscape:connector-curvature="0"
                 style="stroke:none"
                 d=""
                 id="path19937" />
            </symbol>
            <symbol
               style="overflow:visible"
               overflow="visible"
               id="symbol19939">
              <path
                 inkscape:connector-curvature="0"
                 style="stroke:none"
                 d="M 2.03125,-0.484375 1.9375,-0.5625 c -0.171875,0.1875 -0.28125,0.25 -0.4375,0.25 -0.265625,0 -0.375,-0.1875 -0.375,-0.640625 l 0,-2.078125 0.734375,0 0,-0.234375 -0.734375,0 0,-0.84375 C 1.125,-4.1875 1.109375,-4.203125 1.0625,-4.203125 1.03125,-4.140625 0.96875,-4.0625 0.921875,-4 0.65625,-3.609375 0.40625,-3.328125 0.21875,-3.21875 c -0.078125,0.046875 -0.125,0.09375 -0.125,0.125 0,0.03125 0.015625,0.046875 0.03125,0.0625 l 0.390625,0 0,2.1875 c 0,0.609375 0.203125,0.921875 0.625,0.921875 0.375,0 0.640625,-0.1875 0.890625,-0.5625 z m 0,0"
                 id="path19941" />
            </symbol>
            <symbol
               style="overflow:visible"
               overflow="visible"
               id="symbol19943">
              <path
                 inkscape:connector-curvature="0"
                 style="stroke:none"
                 d=""
                 id="path19945" />
            </symbol>
            <symbol
               style="overflow:visible"
               overflow="visible"
               id="symbol19947">
              <path
                 inkscape:connector-curvature="0"
                 style="stroke:none"
                 d="M 1.9375,-0.75 1.828125,-0.828125 c -0.34375,0.40625 -0.515625,0.5625 -0.65625,0.5625 -0.078125,0 -0.140625,-0.046875 -0.140625,-0.109375 0,-0.109375 0.078125,-0.328125 0.109375,-0.46875 L 1.734375,-3.1875 1.78125,-3.203125 C 0.921875,-3.0625 0.75,-3.046875 0.421875,-3.015625 l 0,0.109375 c 0.4375,0 0.515625,0.03125 0.515625,0.171875 0,0.0625 -0.015625,0.1875 -0.0625,0.328125 L 0.546875,-1.125 c -0.109375,0.4375 -0.15625,0.640625 -0.15625,0.796875 0.015625,0.265625 0.15625,0.40625 0.40625,0.40625 0.390625,0 0.6875,-0.21875 1.140625,-0.828125 z m 0.21875,-3.53125 c 0,-0.203125 -0.1875,-0.390625 -0.421875,-0.390625 -0.21875,0 -0.390625,0.15625 -0.390625,0.390625 0.015625,0.234375 0.1875,0.375 0.421875,0.375 0.21875,0 0.40625,-0.171875 0.390625,-0.375 z m 0,0"
                 id="path19949" />
            </symbol>
          </g>
        </defs>
        <g
           id="g19951">
          <g
             style="fill:#000000;fill-opacity:1"
             id="g19953">
            <g
               transform="translate(223.562,134.765)"
               id="g19955">
              <path
                 inkscape:connector-curvature="0"
                 style="stroke:none"
                 d="m 6.453125,-3.875 c 0,-0.296875 -0.21875,-0.515625 -0.515625,-0.515625 -0.234375,0 -0.390625,0.125 -0.390625,0.328125 0,0.140625 0.0625,0.21875 0.21875,0.359375 0.15625,0.15625 0.21875,0.25 0.21875,0.375 0,0.421875 -0.34375,0.953125 -1.640625,2.59375 L 4.015625,-4.25 C 4.015625,-4.359375 4,-4.390625 3.9375,-4.390625 c -0.046875,0 -0.078125,0.03125 -0.125,0.109375 L 1.890625,-1.25 C 1.859375,-2.140625 1.71875,-3.34375 1.578125,-4.0625 1.515625,-4.375 1.5,-4.390625 1.390625,-4.390625 0.875,-4.28125 0.15625,-4.15625 0.15625,-4.15625 l 0,0.125 0.296875,0 c 0.28125,0 0.359375,0.0625 0.4375,0.421875 C 1,-3.125 1.125,-1.96875 1.171875,-1.171875 l 0.03125,0.875 C 1.21875,0.09375 1.25,0.171875 1.328125,0.171875 1.453125,0.171875 2.5,-1.75 2.5,-1.75 L 3.375,-3.15625 3.703125,-0.125 C 3.71875,0.15625 3.734375,0.171875 3.8125,0.171875 3.890625,0.171875 4,0.078125 4.25,-0.25 L 4.34375,-0.359375 C 5.734375,-2.03125 6.453125,-3.234375 6.453125,-3.875 Z m 0,0"
                 id="path19957" />
            </g>
          </g>
          <g
             style="fill:#000000;fill-opacity:1"
             id="g19959">
            <g
               transform="translate(230.535,134.765)"
               id="g19961">
              <path
                 inkscape:connector-curvature="0"
                 style="stroke:none"
                 d="M 2.9375,-7.140625 C 1.5,-6.203125 0.484375,-4.59375 0.484375,-2.5625 c 0,1.859375 1.046875,3.734375 2.421875,4.578125 l 0.125,-0.15625 C 1.71875,0.8125 1.328125,-0.390625 1.328125,-2.59375 1.328125,-4.8125 1.75,-5.953125 3.03125,-6.984375 Z m 0,0"
                 id="path19963" />
            </g>
          </g>
          <g
             style="fill:#000000;fill-opacity:1"
             id="g19965">
            <g
               transform="translate(234.25105,134.765)"
               id="g19967">
              <path
                 inkscape:connector-curvature="0"
                 style="stroke:none"
                 d="m 1.28125,1.921875 0,-8.96875 -0.5625,0 0,8.96875 z m 0,0"
                 id="path19969" />
            </g>
          </g>
          <g
             style="fill:#000000;fill-opacity:1"
             id="g19971">
            <g
               transform="translate(237.04057,134.765)"
               id="g19973">
              <path
                 inkscape:connector-curvature="0"
                 style="stroke:none"
                 d="m 1.28125,1.921875 0,-8.96875 -0.5625,0 0,8.96875 z m 0,0"
                 id="path19975" />
            </g>
          </g>
          <g
             style="fill:#000000;fill-opacity:1"
             id="g19977">
            <g
               transform="translate(239.43201,134.765)"
               id="g19979">
              <path
                 inkscape:connector-curvature="0"
                 style="stroke:none"
                 d="m 4.828125,0 0,-0.234375 C 4.671875,-0.296875 4.59375,-0.328125 4.53125,-0.4375 L 3.046875,-2.71875 4.0625,-3.96875 C 4.25,-4.203125 4.453125,-4.3125 4.75,-4.359375 l 0,-0.234375 -1.671875,0 0,0.234375 C 3.171875,-4.34375 3.25,-4.34375 3.28125,-4.34375 c 0.234375,0.015625 0.3125,0.078125 0.3125,0.234375 0,0.140625 -0.109375,0.3125 -0.390625,0.625 C 3.15625,-3.421875 3,-3.234375 2.84375,-3.015625 2.796875,-3.09375 2.75,-3.15625 2.71875,-3.1875 2.40625,-3.609375 2.140625,-4.03125 2.140625,-4.171875 c 0,-0.109375 0.140625,-0.171875 0.46875,-0.1875 l 0,-0.234375 -2.484375,0 0,0.234375 c 0.25,0.046875 0.3125,0.09375 0.515625,0.390625 L 1.90625,-2 c -0.28125,0.359375 -0.546875,0.6875 -0.640625,0.828125 -0.5625,0.75 -0.75,0.90625 -1.125,0.9375 l 0,0.234375 1.6875,0 0,-0.234375 c -0.359375,-0.03125 -0.5,-0.09375 -0.5,-0.25 0,-0.140625 0.25,-0.5625 0.640625,-1.015625 0.015625,-0.03125 0.078125,-0.109375 0.15625,-0.203125 l 0.421875,0.625 C 2.765625,-0.75 2.875,-0.5625 2.875,-0.4375 c 0,0.125 -0.140625,0.171875 -0.453125,0.203125 l 0,0.234375 z m 0,0"
                 id="path19981" />
            </g>
          </g>
          <g
             style="fill:#000000;fill-opacity:1"
             id="g19983">
            <g
               transform="translate(244.41299,136.259)"
               id="g19985">
              <path
                 inkscape:connector-curvature="0"
                 style="stroke:none"
                 d="M 2.03125,-0.484375 1.9375,-0.5625 c -0.171875,0.1875 -0.28125,0.25 -0.4375,0.25 -0.265625,0 -0.375,-0.1875 -0.375,-0.640625 l 0,-2.078125 0.734375,0 0,-0.234375 -0.734375,0 0,-0.84375 C 1.125,-4.1875 1.109375,-4.203125 1.0625,-4.203125 1.03125,-4.140625 0.96875,-4.0625 0.921875,-4 0.65625,-3.609375 0.40625,-3.328125 0.21875,-3.21875 c -0.078125,0.046875 -0.125,0.09375 -0.125,0.125 0,0.03125 0.015625,0.046875 0.03125,0.0625 l 0.390625,0 0,2.1875 c 0,0.609375 0.203125,0.921875 0.625,0.921875 0.375,0 0.640625,-0.1875 0.890625,-0.5625 z m 0,0"
                 id="path19987" />
            </g>
          </g>
          <g
             style="fill:#000000;fill-opacity:1"
             id="g19989">
            <g
               transform="translate(249.15401,134.765)"
               id="g19991">
              <path
                 inkscape:connector-curvature="0"
                 style="stroke:none"
                 d="m 5.71875,-2.28125 0,-0.5625 -5.09375,0 0,0.5625 z m 0,0"
                 id="path19993" />
            </g>
          </g>
          <g
             style="fill:#000000;fill-opacity:1"
             id="g19995">
            <g
               transform="translate(257.70499,134.765)"
               id="g19997">
              <path
                 inkscape:connector-curvature="0"
                 style="stroke:none"
                 d="m 4.828125,0 0,-0.234375 C 4.671875,-0.296875 4.59375,-0.328125 4.53125,-0.4375 L 3.046875,-2.71875 4.0625,-3.96875 C 4.25,-4.203125 4.453125,-4.3125 4.75,-4.359375 l 0,-0.234375 -1.671875,0 0,0.234375 C 3.171875,-4.34375 3.25,-4.34375 3.28125,-4.34375 c 0.234375,0.015625 0.3125,0.078125 0.3125,0.234375 0,0.140625 -0.109375,0.3125 -0.390625,0.625 C 3.15625,-3.421875 3,-3.234375 2.84375,-3.015625 2.796875,-3.09375 2.75,-3.15625 2.71875,-3.1875 2.40625,-3.609375 2.140625,-4.03125 2.140625,-4.171875 c 0,-0.109375 0.140625,-0.171875 0.46875,-0.1875 l 0,-0.234375 -2.484375,0 0,0.234375 c 0.25,0.046875 0.3125,0.09375 0.515625,0.390625 L 1.90625,-2 c -0.28125,0.359375 -0.546875,0.6875 -0.640625,0.828125 -0.5625,0.75 -0.75,0.90625 -1.125,0.9375 l 0,0.234375 1.6875,0 0,-0.234375 c -0.359375,-0.03125 -0.5,-0.09375 -0.5,-0.25 0,-0.140625 0.25,-0.5625 0.640625,-1.015625 0.015625,-0.03125 0.078125,-0.109375 0.15625,-0.203125 l 0.421875,0.625 C 2.765625,-0.75 2.875,-0.5625 2.875,-0.4375 c 0,0.125 -0.140625,0.171875 -0.453125,0.203125 l 0,0.234375 z m 0,0"
                 id="path19999" />
            </g>
          </g>
          <g
             style="fill:#000000;fill-opacity:1"
             id="g20001">
            <g
               transform="translate(262.686,136.259)"
               id="g20003">
              <path
                 inkscape:connector-curvature="0"
                 style="stroke:none"
                 d="M 1.9375,-0.75 1.828125,-0.828125 c -0.34375,0.40625 -0.515625,0.5625 -0.65625,0.5625 -0.078125,0 -0.140625,-0.046875 -0.140625,-0.109375 0,-0.109375 0.078125,-0.328125 0.109375,-0.46875 L 1.734375,-3.1875 1.78125,-3.203125 C 0.921875,-3.0625 0.75,-3.046875 0.421875,-3.015625 l 0,0.109375 c 0.4375,0 0.515625,0.03125 0.515625,0.171875 0,0.0625 -0.015625,0.1875 -0.0625,0.328125 L 0.546875,-1.125 c -0.109375,0.4375 -0.15625,0.640625 -0.15625,0.796875 0.015625,0.265625 0.15625,0.40625 0.40625,0.40625 0.390625,0 0.6875,-0.21875 1.140625,-0.828125 z m 0.21875,-3.53125 c 0,-0.203125 -0.1875,-0.390625 -0.421875,-0.390625 -0.21875,0 -0.390625,0.15625 -0.390625,0.390625 0.015625,0.234375 0.1875,0.375 0.421875,0.375 0.21875,0 0.40625,-0.171875 0.390625,-0.375 z m 0,0"
                 id="path20005" />
            </g>
          </g>
          <g
             style="fill:#000000;fill-opacity:1"
             id="g20007">
            <g
               transform="translate(266.20099,134.765)"
               id="g20009">
              <path
                 inkscape:connector-curvature="0"
                 style="stroke:none"
                 d="m 1.28125,1.921875 0,-8.96875 -0.5625,0 0,8.96875 z m 0,0"
                 id="path20011" />
            </g>
          </g>
          <g
             style="fill:#000000;fill-opacity:1"
             id="g20013">
            <g
               transform="translate(268.99054,134.765)"
               id="g20015">
              <path
                 inkscape:connector-curvature="0"
                 style="stroke:none"
                 d="m 1.28125,1.921875 0,-8.96875 -0.5625,0 0,8.96875 z m 0,0"
                 id="path20017" />
            </g>
          </g>
          <g
             style="fill:#000000;fill-opacity:1"
             id="g20019">
            <g
               transform="translate(271.38156,134.765)"
               id="g20021">
              <path
                 inkscape:connector-curvature="0"
                 style="stroke:none"
                 d="m 0.375,-7.140625 -0.078125,0.15625 c 1.28125,1.03125 1.6875,2.171875 1.6875,4.390625 0,2.203125 -0.375,3.40625 -1.6875,4.453125 l 0.109375,0.15625 c 1.375,-0.84375 2.4375,-2.71875 2.4375,-4.578125 0,-2.03125 -1.015625,-3.640625 -2.46875,-4.578125 z m 0,0"
                 id="path20023" />
            </g>
          </g>
        </g>
      </g>
    </g>
    <g
       id="g20025"
       transform="matrix(2.782191,0,0,2.782191,-103.42051,246.32149)"
       ns0:preamble="/Users/ignathanas/Documents/Contributions/Contact_1/AMA-stix/ama/figures/textext.preamble.tex"
       ns0:text="${\\boldsymbol {\\rm x}}_i$">
      <defs
         id="defs20027">
        <g
           id="g20029">
          <symbol
             id="symbol20031"
             overflow="visible"
             style="overflow:visible">
            <path
               id="path20033"
               d=""
               style="stroke:none"
               inkscape:connector-curvature="0" />
          </symbol>
          <symbol
             id="symbol20035"
             overflow="visible"
             style="overflow:visible">
            <path
               id="path20037"
               d="m 4.828125,0 0,-0.234375 C 4.671875,-0.296875 4.59375,-0.328125 4.53125,-0.4375 L 3.046875,-2.71875 4.0625,-3.96875 C 4.25,-4.203125 4.453125,-4.3125 4.75,-4.359375 l 0,-0.234375 -1.671875,0 0,0.234375 C 3.171875,-4.34375 3.25,-4.34375 3.28125,-4.34375 c 0.234375,0.015625 0.3125,0.078125 0.3125,0.234375 0,0.140625 -0.109375,0.3125 -0.390625,0.625 C 3.15625,-3.421875 3,-3.234375 2.84375,-3.015625 2.796875,-3.09375 2.75,-3.15625 2.71875,-3.1875 2.40625,-3.609375 2.140625,-4.03125 2.140625,-4.171875 c 0,-0.109375 0.140625,-0.171875 0.46875,-0.1875 l 0,-0.234375 -2.484375,0 0,0.234375 c 0.25,0.046875 0.3125,0.09375 0.515625,0.390625 L 1.90625,-2 c -0.28125,0.359375 -0.546875,0.6875 -0.640625,0.828125 -0.5625,0.75 -0.75,0.90625 -1.125,0.9375 l 0,0.234375 1.6875,0 0,-0.234375 c -0.359375,-0.03125 -0.5,-0.09375 -0.5,-0.25 0,-0.140625 0.25,-0.5625 0.640625,-1.015625 0.015625,-0.03125 0.078125,-0.109375 0.15625,-0.203125 l 0.421875,0.625 C 2.765625,-0.75 2.875,-0.5625 2.875,-0.4375 c 0,0.125 -0.140625,0.171875 -0.453125,0.203125 l 0,0.234375 z m 0,0"
               style="stroke:none"
               inkscape:connector-curvature="0" />
          </symbol>
          <symbol
             id="symbol20039"
             overflow="visible"
             style="overflow:visible">
            <path
               id="path20041"
               d=""
               style="stroke:none"
               inkscape:connector-curvature="0" />
          </symbol>
          <symbol
             id="symbol20043"
             overflow="visible"
             style="overflow:visible">
            <path
               id="path20045"
               d="M 1.9375,-0.75 1.828125,-0.828125 c -0.34375,0.40625 -0.515625,0.5625 -0.65625,0.5625 -0.078125,0 -0.140625,-0.046875 -0.140625,-0.109375 0,-0.109375 0.078125,-0.328125 0.109375,-0.46875 L 1.734375,-3.1875 1.78125,-3.203125 C 0.921875,-3.0625 0.75,-3.046875 0.421875,-3.015625 l 0,0.109375 c 0.4375,0 0.515625,0.03125 0.515625,0.171875 0,0.0625 -0.015625,0.1875 -0.0625,0.328125 L 0.546875,-1.125 c -0.109375,0.4375 -0.15625,0.640625 -0.15625,0.796875 0.015625,0.265625 0.15625,0.40625 0.40625,0.40625 0.390625,0 0.6875,-0.21875 1.140625,-0.828125 z m 0.21875,-3.53125 c 0,-0.203125 -0.1875,-0.390625 -0.421875,-0.390625 -0.21875,0 -0.390625,0.15625 -0.390625,0.390625 0.015625,0.234375 0.1875,0.375 0.421875,0.375 0.21875,0 0.40625,-0.171875 0.390625,-0.375 z m 0,0"
               style="stroke:none"
               inkscape:connector-curvature="0" />
          </symbol>
        </g>
      </defs>
      <g
         id="g20047">
        <g
           id="g20049"
           style="fill:#000000;fill-opacity:1">
          <g
             id="g20051"
             transform="translate(223.43201,134.765)">
            <path
               id="path20053"
               d="m 4.828125,0 0,-0.234375 C 4.671875,-0.296875 4.59375,-0.328125 4.53125,-0.4375 L 3.046875,-2.71875 4.0625,-3.96875 C 4.25,-4.203125 4.453125,-4.3125 4.75,-4.359375 l 0,-0.234375 -1.671875,0 0,0.234375 C 3.171875,-4.34375 3.25,-4.34375 3.28125,-4.34375 c 0.234375,0.015625 0.3125,0.078125 0.3125,0.234375 0,0.140625 -0.109375,0.3125 -0.390625,0.625 C 3.15625,-3.421875 3,-3.234375 2.84375,-3.015625 2.796875,-3.09375 2.75,-3.15625 2.71875,-3.1875 2.40625,-3.609375 2.140625,-4.03125 2.140625,-4.171875 c 0,-0.109375 0.140625,-0.171875 0.46875,-0.1875 l 0,-0.234375 -2.484375,0 0,0.234375 c 0.25,0.046875 0.3125,0.09375 0.515625,0.390625 L 1.90625,-2 c -0.28125,0.359375 -0.546875,0.6875 -0.640625,0.828125 -0.5625,0.75 -0.75,0.90625 -1.125,0.9375 l 0,0.234375 1.6875,0 0,-0.234375 c -0.359375,-0.03125 -0.5,-0.09375 -0.5,-0.25 0,-0.140625 0.25,-0.5625 0.640625,-1.015625 0.015625,-0.03125 0.078125,-0.109375 0.15625,-0.203125 l 0.421875,0.625 C 2.765625,-0.75 2.875,-0.5625 2.875,-0.4375 c 0,0.125 -0.140625,0.171875 -0.453125,0.203125 l 0,0.234375 z m 0,0"
               style="stroke:none"
               inkscape:connector-curvature="0" />
          </g>
        </g>
        <g
           id="g20055"
           style="fill:#000000;fill-opacity:1">
          <g
             id="g20057"
             transform="translate(228.41299,136.259)">
            <path
               id="path20059"
               d="M 1.9375,-0.75 1.828125,-0.828125 c -0.34375,0.40625 -0.515625,0.5625 -0.65625,0.5625 -0.078125,0 -0.140625,-0.046875 -0.140625,-0.109375 0,-0.109375 0.078125,-0.328125 0.109375,-0.46875 L 1.734375,-3.1875 1.78125,-3.203125 C 0.921875,-3.0625 0.75,-3.046875 0.421875,-3.015625 l 0,0.109375 c 0.4375,0 0.515625,0.03125 0.515625,0.171875 0,0.0625 -0.015625,0.1875 -0.0625,0.328125 L 0.546875,-1.125 c -0.109375,0.4375 -0.15625,0.640625 -0.15625,0.796875 0.015625,0.265625 0.15625,0.40625 0.40625,0.40625 0.390625,0 0.6875,-0.21875 1.140625,-0.828125 z m 0.21875,-3.53125 c 0,-0.203125 -0.1875,-0.390625 -0.421875,-0.390625 -0.21875,0 -0.390625,0.15625 -0.390625,0.390625 0.015625,0.234375 0.1875,0.375 0.421875,0.375 0.21875,0 0.40625,-0.171875 0.390625,-0.375 z m 0,0"
               style="stroke:none"
               inkscape:connector-curvature="0" />
          </g>
        </g>
      </g>
    </g>
    <path
       style="fill:none;stroke:#000000;stroke-width:0.48459733px;stroke-linecap:butt;stroke-linejoin:miter;stroke-opacity:1"
       d="m 389.55598,589.40048 13.89696,6.02762"
       id="path20061"
       inkscape:connector-curvature="0"
       sodipodi:nodetypes="cc" />
    <path
       style="fill:none;stroke:#000000;stroke-width:0.48459733px;stroke-linecap:butt;stroke-linejoin:miter;stroke-opacity:1"
       d="m 489.14516,606.10715 29.35607,10.84275"
       id="path20063"
       inkscape:connector-curvature="0"
       sodipodi:nodetypes="cc" />
    <g
       ns0:text="${\\boldsymbol {\\rm x}}_{\\rm t}$"
       ns0:preamble="/Users/ignathanas/Documents/Contributions/Contact_1/AMA-stix/ama/figures/textext.preamble.tex"
       transform="matrix(2.782191,0,0,2.782191,-250.38396,217.23212)"
       id="g20065">
      <defs
         id="defs20067">
        <g
           id="g20069">
          <symbol
             style="overflow:visible"
             overflow="visible"
             id="symbol20071">
            <path
               inkscape:connector-curvature="0"
               style="stroke:none"
               d=""
               id="path20073" />
          </symbol>
          <symbol
             style="overflow:visible"
             overflow="visible"
             id="symbol20075">
            <path
               inkscape:connector-curvature="0"
               style="stroke:none"
               d="m 4.828125,0 0,-0.234375 C 4.671875,-0.296875 4.59375,-0.328125 4.53125,-0.4375 L 3.046875,-2.71875 4.0625,-3.96875 C 4.25,-4.203125 4.453125,-4.3125 4.75,-4.359375 l 0,-0.234375 -1.671875,0 0,0.234375 C 3.171875,-4.34375 3.25,-4.34375 3.28125,-4.34375 c 0.234375,0.015625 0.3125,0.078125 0.3125,0.234375 0,0.140625 -0.109375,0.3125 -0.390625,0.625 C 3.15625,-3.421875 3,-3.234375 2.84375,-3.015625 2.796875,-3.09375 2.75,-3.15625 2.71875,-3.1875 2.40625,-3.609375 2.140625,-4.03125 2.140625,-4.171875 c 0,-0.109375 0.140625,-0.171875 0.46875,-0.1875 l 0,-0.234375 -2.484375,0 0,0.234375 c 0.25,0.046875 0.3125,0.09375 0.515625,0.390625 L 1.90625,-2 c -0.28125,0.359375 -0.546875,0.6875 -0.640625,0.828125 -0.5625,0.75 -0.75,0.90625 -1.125,0.9375 l 0,0.234375 1.6875,0 0,-0.234375 c -0.359375,-0.03125 -0.5,-0.09375 -0.5,-0.25 0,-0.140625 0.25,-0.5625 0.640625,-1.015625 0.015625,-0.03125 0.078125,-0.109375 0.15625,-0.203125 l 0.421875,0.625 C 2.765625,-0.75 2.875,-0.5625 2.875,-0.4375 c 0,0.125 -0.140625,0.171875 -0.453125,0.203125 l 0,0.234375 z m 0,0"
               id="path20077" />
          </symbol>
          <symbol
             style="overflow:visible"
             overflow="visible"
             id="symbol20079">
            <path
               inkscape:connector-curvature="0"
               style="stroke:none"
               d=""
               id="path20081" />
          </symbol>
          <symbol
             style="overflow:visible"
             overflow="visible"
             id="symbol20083">
            <path
               inkscape:connector-curvature="0"
               style="stroke:none"
               d="M 2.03125,-0.484375 1.9375,-0.5625 c -0.171875,0.1875 -0.28125,0.25 -0.4375,0.25 -0.265625,0 -0.375,-0.1875 -0.375,-0.640625 l 0,-2.078125 0.734375,0 0,-0.234375 -0.734375,0 0,-0.84375 C 1.125,-4.1875 1.109375,-4.203125 1.0625,-4.203125 1.03125,-4.140625 0.96875,-4.0625 0.921875,-4 0.65625,-3.609375 0.40625,-3.328125 0.21875,-3.21875 c -0.078125,0.046875 -0.125,0.09375 -0.125,0.125 0,0.03125 0.015625,0.046875 0.03125,0.0625 l 0.390625,0 0,2.1875 c 0,0.609375 0.203125,0.921875 0.625,0.921875 0.375,0 0.640625,-0.1875 0.890625,-0.5625 z m 0,0"
               id="path20085" />
          </symbol>
        </g>
      </defs>
      <g
         id="g20087">
        <g
           style="fill:#000000;fill-opacity:1"
           id="g20089">
          <g
             id="g20091"
             transform="translate(223.43201,134.765)">
            <path
               inkscape:connector-curvature="0"
               style="stroke:none"
               d="m 4.828125,0 0,-0.234375 C 4.671875,-0.296875 4.59375,-0.328125 4.53125,-0.4375 L 3.046875,-2.71875 4.0625,-3.96875 C 4.25,-4.203125 4.453125,-4.3125 4.75,-4.359375 l 0,-0.234375 -1.671875,0 0,0.234375 C 3.171875,-4.34375 3.25,-4.34375 3.28125,-4.34375 c 0.234375,0.015625 0.3125,0.078125 0.3125,0.234375 0,0.140625 -0.109375,0.3125 -0.390625,0.625 C 3.15625,-3.421875 3,-3.234375 2.84375,-3.015625 2.796875,-3.09375 2.75,-3.15625 2.71875,-3.1875 2.40625,-3.609375 2.140625,-4.03125 2.140625,-4.171875 c 0,-0.109375 0.140625,-0.171875 0.46875,-0.1875 l 0,-0.234375 -2.484375,0 0,0.234375 c 0.25,0.046875 0.3125,0.09375 0.515625,0.390625 L 1.90625,-2 c -0.28125,0.359375 -0.546875,0.6875 -0.640625,0.828125 -0.5625,0.75 -0.75,0.90625 -1.125,0.9375 l 0,0.234375 1.6875,0 0,-0.234375 c -0.359375,-0.03125 -0.5,-0.09375 -0.5,-0.25 0,-0.140625 0.25,-0.5625 0.640625,-1.015625 0.015625,-0.03125 0.078125,-0.109375 0.15625,-0.203125 l 0.421875,0.625 C 2.765625,-0.75 2.875,-0.5625 2.875,-0.4375 c 0,0.125 -0.140625,0.171875 -0.453125,0.203125 l 0,0.234375 z m 0,0"
               id="path20093" />
          </g>
        </g>
        <g
           style="fill:#000000;fill-opacity:1"
           id="g20095">
          <g
             id="g20097"
             transform="translate(228.41299,136.259)">
            <path
               inkscape:connector-curvature="0"
               style="stroke:none"
               d="M 2.03125,-0.484375 1.9375,-0.5625 c -0.171875,0.1875 -0.28125,0.25 -0.4375,0.25 -0.265625,0 -0.375,-0.1875 -0.375,-0.640625 l 0,-2.078125 0.734375,0 0,-0.234375 -0.734375,0 0,-0.84375 C 1.125,-4.1875 1.109375,-4.203125 1.0625,-4.203125 1.03125,-4.140625 0.96875,-4.0625 0.921875,-4 0.65625,-3.609375 0.40625,-3.328125 0.21875,-3.21875 c -0.078125,0.046875 -0.125,0.09375 -0.125,0.125 0,0.03125 0.015625,0.046875 0.03125,0.0625 l 0.390625,0 0,2.1875 c 0,0.609375 0.203125,0.921875 0.625,0.921875 0.375,0 0.640625,-0.1875 0.890625,-0.5625 z m 0,0"
               id="path20099" />
          </g>
        </g>
      </g>
    </g>
    <path
       inkscape:connector-curvature="0"
       id="path20101"
       d="m 503.8536,464.86317 -39.02791,13.17826"
       style="fill:none;stroke:#000000;stroke-width:0.35479918px;stroke-linecap:butt;stroke-linejoin:miter;stroke-opacity:1" />
    <path
       sodipodi:nodetypes="cc"
       inkscape:connector-curvature="0"
       id="path20139"
       d="m 486.5191,604.45633 0,-73.08682"
       style="fill:none;stroke:#000000;stroke-width:0.70959836;stroke-linecap:butt;stroke-linejoin:miter;stroke-miterlimit:4;stroke-dasharray:none;stroke-opacity:1;marker-end:url(#marker18302)" />
    <path
       style="fill:none;stroke:#000000;stroke-width:0.70959836;stroke-linecap:butt;stroke-linejoin:miter;stroke-miterlimit:4;stroke-dasharray:none;stroke-opacity:1;marker-end:url(#marker18340)"
       d="m 486.5191,527.84833 -72.47603,0.1792"
       id="path20141"
       inkscape:connector-curvature="0"
       sodipodi:nodetypes="cc" />
    <circle
       r="8.656889"
       cy="675.7265"
       cx="339.64996"
       id="path4534"
       style="opacity:1;fill:none;fill-opacity:0.09411765;fill-rule:nonzero;stroke:#000300;stroke-width:4;stroke-linejoin:miter;stroke-miterlimit:4;stroke-dasharray:none;stroke-dashoffset:0;stroke-opacity:1" />
    <circle
       style="opacity:1;fill:none;fill-opacity:0.09411765;fill-rule:nonzero;stroke:#000300;stroke-width:4;stroke-linejoin:miter;stroke-miterlimit:4;stroke-dasharray:none;stroke-dashoffset:0;stroke-opacity:1"
       id="circle4536"
       cx="331.07852"
       cy="614.29791"
       r="8.656889" />
    <circle
       r="8.656889"
       cy="675.41217"
       cx="440.68008"
       id="circle4538"
       style="opacity:1;fill:none;fill-opacity:0.09411765;fill-rule:nonzero;stroke:#000300;stroke-width:4;stroke-linejoin:miter;stroke-miterlimit:4;stroke-dasharray:none;stroke-dashoffset:0;stroke-opacity:1" />
    <circle
       style="opacity:1;fill:none;fill-opacity:0.09411765;fill-rule:nonzero;stroke:#000300;stroke-width:4;stroke-linejoin:miter;stroke-miterlimit:4;stroke-dasharray:none;stroke-dashoffset:0;stroke-opacity:1"
       id="circle4540"
       cx="608.06952"
       cy="506.71671"
       r="8.656889" />
    <circle
       style="opacity:1;fill:none;fill-opacity:0.09411765;fill-rule:nonzero;stroke:#000300;stroke-width:4;stroke-linejoin:miter;stroke-miterlimit:4;stroke-dasharray:none;stroke-dashoffset:0;stroke-opacity:1"
       id="circle4542"
       cx="561.89838"
       cy="670.36139"
       r="8.656889" />
    <circle
       r="8.656889"
       cy="500.65576"
       cx="253.80185"
       id="circle4544"
       style="opacity:1;fill:none;fill-opacity:0.09411765;fill-rule:nonzero;stroke:#000300;stroke-width:4;stroke-linejoin:miter;stroke-miterlimit:4;stroke-dasharray:none;stroke-dashoffset:0;stroke-opacity:1" />
    <circle
       r="8.656889"
       cy="602.42865"
       cx="408.35519"
       id="circle4546"
       style="opacity:1;fill:none;fill-opacity:0.09411765;fill-rule:nonzero;stroke:#000300;stroke-width:4;stroke-linejoin:miter;stroke-miterlimit:4;stroke-dasharray:none;stroke-dashoffset:0;stroke-opacity:1" />
    <path
       transform="matrix(0.35479917,0,0,0.35479917,322.47065,422.96044)"
       style="opacity:1;fill:url(#linearGradient4708);fill-opacity:1;fill-rule:nonzero;stroke:none;stroke-width:0.625;stroke-linejoin:miter;stroke-miterlimit:4;stroke-dasharray:none;stroke-dashoffset:0;stroke-opacity:1;filter:url(#filter14926)"
       d="m 124.82089,619.43758 c -77.396604,-5.8854 -165.586604,-21.0414 -216.2612,-37.1657 -54.5845,-17.3685 -94.7931,-43.4631 -98.7335,-64.07612 -2.6006,-13.60408 41.5895,-61.62754 133.566096,-145.15231 20.4286,-18.55137 48.553,-46.17811 62.4986,-61.39274 51.68,-56.38249 60.7921,-73.54737 114.804304,-216.261271 31.4394,-83.070917 56.6094,-124.795167 87.07598,-144.345477 34.1878,-21.938286 71.7364,-11.0282 101.982,29.63184 17.6206,23.6879396 41.5054,74.59109 66.562,141.856498 50.5274,135.64321 66.657,158.67975 187.07711,267.18526 83.05651,74.83875 121.17954,117.23912 117.06583,130.20032 -2.87303,9.0521 -17.25906,24.0832 -32.26692,33.7137 -48.71165,31.2582 -155.79752,55.8724 -287.35672,66.0504 -42.4059,3.2807 -191.69008,3.1261 -236.01358,-0.2443 z"
       id="path4706"
       inkscape:connector-curvature="0" />
    <g
       id="g17770"
       transform="matrix(2.782191,0,0,2.782191,-123.55728,88.187839)"
       ns0:preamble="/Users/ignathanas/Documents/Contributions/Contact_1/AMA-stix/ama/figures/textext.preamble.tex"
       ns0:text="$w(r)$">
      <defs
         id="defs17772">
        <g
           id="g17774">
          <symbol
             id="textext-eae30f64-0"
             overflow="visible">
            <path
               id="path17777"
               d=""
               style="stroke:none;" />
          </symbol>
          <symbol
             id="textext-eae30f64-1"
             overflow="visible">
            <path
               id="path17780"
               d="M 6.453125 -3.875 C 6.453125 -4.171875 6.234375 -4.390625 5.9375 -4.390625 C 5.703125 -4.390625 5.546875 -4.265625 5.546875 -4.0625 C 5.546875 -3.921875 5.609375 -3.84375 5.765625 -3.703125 C 5.921875 -3.546875 5.984375 -3.453125 5.984375 -3.328125 C 5.984375 -2.90625 5.640625 -2.375 4.34375 -0.734375 L 4.015625 -4.25 C 4.015625 -4.359375 4 -4.390625 3.9375 -4.390625 C 3.890625 -4.390625 3.859375 -4.359375 3.8125 -4.28125 L 1.890625 -1.25 C 1.859375 -2.140625 1.71875 -3.34375 1.578125 -4.0625 C 1.515625 -4.375 1.5 -4.390625 1.390625 -4.390625 C 0.875 -4.28125 0.15625 -4.15625 0.15625 -4.15625 L 0.15625 -4.03125 L 0.453125 -4.03125 C 0.734375 -4.03125 0.8125 -3.96875 0.890625 -3.609375 C 1 -3.125 1.125 -1.96875 1.171875 -1.171875 L 1.203125 -0.296875 C 1.21875 0.09375 1.25 0.171875 1.328125 0.171875 C 1.453125 0.171875 2.5 -1.75 2.5 -1.75 L 3.375 -3.15625 L 3.703125 -0.125 C 3.71875 0.15625 3.734375 0.171875 3.8125 0.171875 C 3.890625 0.171875 4 0.078125 4.25 -0.25 L 4.34375 -0.359375 C 5.734375 -2.03125 6.453125 -3.234375 6.453125 -3.875 Z M 6.453125 -3.875 "
               style="stroke:none;" />
          </symbol>
          <symbol
             id="textext-eae30f64-2"
             overflow="visible">
            <path
               id="path17783"
               d=""
               style="stroke:none;" />
          </symbol>
          <symbol
             id="textext-eae30f64-3"
             overflow="visible">
            <path
               id="path17786"
               d="M 2.9375 -7.140625 C 1.5 -6.203125 0.484375 -4.59375 0.484375 -2.5625 C 0.484375 -0.703125 1.53125 1.171875 2.90625 2.015625 L 3.03125 1.859375 C 1.71875 0.8125 1.328125 -0.390625 1.328125 -2.59375 C 1.328125 -4.8125 1.75 -5.953125 3.03125 -6.984375 Z M 2.9375 -7.140625 "
               style="stroke:none;" />
          </symbol>
          <symbol
             id="textext-eae30f64-4"
             overflow="visible">
            <path
               id="path17789"
               d="M 0.375 -7.140625 L 0.296875 -6.984375 C 1.578125 -5.953125 1.984375 -4.8125 1.984375 -2.59375 C 1.984375 -0.390625 1.609375 0.8125 0.296875 1.859375 L 0.40625 2.015625 C 1.78125 1.171875 2.84375 -0.703125 2.84375 -2.5625 C 2.84375 -4.59375 1.828125 -6.203125 0.375 -7.140625 Z M 0.375 -7.140625 "
               style="stroke:none;" />
          </symbol>
          <symbol
             id="textext-eae30f64-5"
             overflow="visible">
            <path
               id="path17792"
               d=""
               style="stroke:none;" />
          </symbol>
          <symbol
             id="textext-eae30f64-6"
             overflow="visible">
            <path
               id="path17795"
               d="M 1.203125 0 C 1.71875 -1.6875 1.890625 -2.125 2.359375 -2.875 C 2.6875 -3.4375 2.953125 -3.75 3.125 -3.75 C 3.1875 -3.75 3.234375 -3.703125 3.296875 -3.609375 C 3.375 -3.4375 3.453125 -3.390625 3.65625 -3.390625 C 3.9375 -3.390625 4.109375 -3.5625 4.109375 -3.875 C 4.109375 -4.1875 3.921875 -4.390625 3.640625 -4.390625 C 3.40625 -4.390625 3.140625 -4.25 2.875 -3.984375 C 2.46875 -3.5625 2.078125 -2.96875 1.90625 -2.578125 L 1.78125 -2.21875 L 2.296875 -4.375 L 2.265625 -4.390625 C 1.546875 -4.265625 1.453125 -4.25 0.734375 -4.125 L 0.734375 -3.953125 C 0.96875 -4 1 -4 1.0625 -4 C 1.28125 -4 1.421875 -3.90625 1.421875 -3.734375 C 1.421875 -3.59375 1.421875 -3.59375 1.25 -2.90625 L 0.453125 0 Z M 1.203125 0 "
               style="stroke:none;" />
          </symbol>
        </g>
      </defs>
      <g
         id="textext-eae30f64-7">
        <g
           id="g17798"
           style="fill:rgb(0%,0%,0%);fill-opacity:1;">
          <use
             id="use17800"
             y="134.765"
             x="223.562"
             xlink:href="#textext-eae30f64-1" />
        </g>
        <g
           id="g17802"
           style="fill:rgb(0%,0%,0%);fill-opacity:1;">
          <use
             id="use17804"
             y="134.765"
             x="230.535"
             xlink:href="#textext-eae30f64-3" />
        </g>
        <g
           id="g17806"
           style="fill:rgb(0%,0%,0%);fill-opacity:1;">
          <use
             id="use17808"
             y="134.765"
             x="233.694"
             xlink:href="#textext-eae30f64-6" />
        </g>
        <g
           id="g17810"
           style="fill:rgb(0%,0%,0%);fill-opacity:1;">
          <use
             id="use17812"
             y="134.765"
             x="238.326"
             xlink:href="#textext-eae30f64-4" />
        </g>
      </g>
    </g>
  </g>
</svg>
