<?xml version="1.0" encoding="UTF-8" standalone="no"?>
<!-- Created with Inkscape (http://www.inkscape.org/) -->

<svg
   xmlns:ns0="http://www.iki.fi/pav/software/textext/"
   xmlns:dc="http://purl.org/dc/elements/1.1/"
   xmlns:cc="http://creativecommons.org/ns#"
   xmlns:rdf="http://www.w3.org/1999/02/22-rdf-syntax-ns#"
   xmlns:svg="http://www.w3.org/2000/svg"
   xmlns="http://www.w3.org/2000/svg"
   xmlns:xlink="http://www.w3.org/1999/xlink"
   xmlns:sodipodi="http://sodipodi.sourceforge.net/DTD/sodipodi-0.dtd"
   xmlns:inkscape="http://www.inkscape.org/namespaces/inkscape"
   width="210mm"
   height="297mm"
   viewBox="0 0 744.09448819 1052.3622047"
   id="svg8014"
   version="1.1"
   inkscape:version="0.91 r13725"
   sodipodi:docname="weighs.svg">
  <sodipodi:namedview
     id="base"
     pagecolor="#ffffff"
     bordercolor="#666666"
     borderopacity="1.0"
     inkscape:pageopacity="0.0"
     inkscape:pageshadow="2"
     inkscape:zoom="1.4"
     inkscape:cx="335.649"
     inkscape:cy="452.46326"
     inkscape:document-units="px"
     inkscape:current-layer="layer1"
     showgrid="false"
     inkscape:snap-bbox="true"
     inkscape:bbox-paths="true"
     inkscape:bbox-nodes="true"
     inkscape:snap-bbox-edge-midpoints="true"
     inkscape:snap-bbox-midpoints="true"
     inkscape:object-paths="true"
     inkscape:snap-intersection-paths="true"
     inkscape:object-nodes="true"
     inkscape:snap-smooth-nodes="true"
     inkscape:snap-midpoints="true"
     inkscape:snap-object-midpoints="true"
     inkscape:snap-center="true"
     inkscape:snap-global="false"
     inkscape:window-width="1280"
     inkscape:window-height="755"
     inkscape:window-x="18"
     inkscape:window-y="98"
     inkscape:window-maximized="0" />
  <defs
     id="defs8016">
    <marker
       inkscape:isstock="true"
       style="overflow:visible"
       id="marker19375"
       refX="0.0"
       refY="0.0"
       orient="auto"
       inkscape:stockid="TriangleOutL">
      <path
         transform="scale(0.8)"
         style="fill-rule:evenodd;stroke:#000000;stroke-width:1pt;stroke-opacity:1;fill:#000000;fill-opacity:1"
         d="M 5.77,0.0 L -2.88,5.0 L -2.88,-5.0 L 5.77,0.0 z "
         id="path19377" />
    </marker>
    <marker
       inkscape:stockid="TriangleOutL"
       orient="auto"
       refY="0.0"
       refX="0.0"
       id="marker19323"
       style="overflow:visible"
       inkscape:isstock="true">
      <path
         id="path19325"
         d="M 5.77,0.0 L -2.88,5.0 L -2.88,-5.0 L 5.77,0.0 z "
         style="fill-rule:evenodd;stroke:#000000;stroke-width:1pt;stroke-opacity:1;fill:#000000;fill-opacity:1"
         transform="scale(0.8)" />
    </marker>
    <marker
       inkscape:stockid="TriangleOutL"
       orient="auto"
       refY="0.0"
       refX="0.0"
       id="marker18340"
       style="overflow:visible"
       inkscape:isstock="true">
      <path
         id="path18342"
         d="M 5.77,0.0 L -2.88,5.0 L -2.88,-5.0 L 5.77,0.0 z "
         style="fill-rule:evenodd;stroke:#000000;stroke-width:1pt;stroke-opacity:1;fill:#000000;fill-opacity:1"
         transform="scale(0.8)" />
    </marker>
    <marker
       inkscape:isstock="true"
       style="overflow:visible"
       id="marker18302"
       refX="0.0"
       refY="0.0"
       orient="auto"
       inkscape:stockid="TriangleOutL">
      <path
         transform="scale(0.8)"
         style="fill-rule:evenodd;stroke:#000000;stroke-width:1pt;stroke-opacity:1;fill:#000000;fill-opacity:1"
         d="M 5.77,0.0 L -2.88,5.0 L -2.88,-5.0 L 5.77,0.0 z "
         id="path18304" />
    </marker>
    <marker
       inkscape:stockid="TriangleOutL"
       orient="auto"
       refY="0.0"
       refX="0.0"
       id="marker15557"
       style="overflow:visible"
       inkscape:isstock="true">
      <path
         id="path15559"
         d="M 5.77,0.0 L -2.88,5.0 L -2.88,-5.0 L 5.77,0.0 z "
         style="fill-rule:evenodd;stroke:#000300;stroke-width:1pt;stroke-opacity:1;fill:#000300;fill-opacity:1"
         transform="scale(0.8)" />
    </marker>
    <linearGradient
       id="linearGradient14914"
       inkscape:collect="always">
      <stop
         id="stop14916"
         offset="0"
         style="stop-color:#00fe00;stop-opacity:1;" />
      <stop
         style="stop-color:#00fe00;stop-opacity:0.47058824;"
         offset="0.43057972"
         id="stop14936" />
      <stop
         style="stop-color:#00fe00;stop-opacity:0.3372549;"
         offset="0.53982341"
         id="stop14934" />
      <stop
         style="stop-color:#00fe00;stop-opacity:0.22745098;"
         offset="0.65747041"
         id="stop14932" />
      <stop
         style="stop-color:#00fe00;stop-opacity:0.09411765;"
         offset="0.90536958"
         id="stop14930" />
      <stop
         id="stop14918"
         offset="1"
         style="stop-color:#00fe00;stop-opacity:0;" />
    </linearGradient>
    <marker
       inkscape:isstock="true"
       style="overflow:visible"
       id="marker9017"
       refX="0.0"
       refY="0.0"
       orient="auto"
       inkscape:stockid="TriangleOutL">
      <path
         transform="scale(0.8)"
         style="fill-rule:evenodd;stroke:#000300;stroke-width:1pt;stroke-opacity:1;fill:#000300;fill-opacity:1"
         d="M 5.77,0.0 L -2.88,5.0 L -2.88,-5.0 L 5.77,0.0 z "
         id="path9019" />
    </marker>
    <marker
       inkscape:isstock="true"
       style="overflow:visible"
       id="marker8787"
       refX="0.0"
       refY="0.0"
       orient="auto"
       inkscape:stockid="TriangleOutL">
      <path
         transform="scale(0.8)"
         style="fill-rule:evenodd;stroke:#000000;stroke-width:1pt;stroke-opacity:1;fill:#000000;fill-opacity:1"
         d="M 5.77,0.0 L -2.88,5.0 L -2.88,-5.0 L 5.77,0.0 z "
         id="path8789" />
    </marker>
    <marker
       inkscape:stockid="TriangleOutL"
       orient="auto"
       refY="0.0"
       refX="0.0"
       id="TriangleOutL"
       style="overflow:visible"
       inkscape:isstock="true"
       inkscape:collect="always">
      <path
         id="path4529"
         d="M 5.77,0.0 L -2.88,5.0 L -2.88,-5.0 L 5.77,0.0 z "
         style="fill-rule:evenodd;stroke:#000000;stroke-width:1pt;stroke-opacity:1;fill:#000000;fill-opacity:1"
         transform="scale(0.8)" />
    </marker>
    <filter
       height="1.0546471"
       y="-0.027323545"
       width="1.0427946"
       x="-0.021397303"
       id="filter14926"
       style="color-interpolation-filters:sRGB"
       inkscape:collect="always">
      <feGaussianBlur
         id="feGaussianBlur14928"
         stdDeviation="7.7657991"
         inkscape:collect="always" />
    </filter>
    <linearGradient
       inkscape:collect="always"
       xlink:href="#linearGradient14914"
       id="linearGradient4708"
       gradientUnits="userSpaceOnUse"
       gradientTransform="translate(1501.4286,-478.57142)"
       x1="-1263.5275"
       y1="419.56799"
       x2="-1263.5275"
       y2="1099.568" />
  </defs>
  <metadata
     id="metadata8019">
    <rdf:RDF>
      <cc:Work
         rdf:about="">
        <dc:format>image/svg+xml</dc:format>
        <dc:type
           rdf:resource="http://purl.org/dc/dcmitype/StillImage" />
        <dc:title></dc:title>
      </cc:Work>
    </rdf:RDF>
  </metadata>
  <g
     inkscape:label="Layer 1"
     inkscape:groupmode="layer"
     id="layer1">
    <circle
       r="3.3823314"
       cy="570.95465"
       cx="387.7616"
       style="fill:#fc00b9;fill-opacity:1;stroke:none"
       id="circle8629" />
    <circle
       r="3.3823314"
       cy="492.80075"
       cx="534.70618"
       style="fill:#fc00b9;fill-opacity:1;stroke:none"
       id="circle8633" />
    <circle
       r="3.3823314"
       cy="621.57489"
       cx="373.50452"
       style="fill:#fc00b9;fill-opacity:1;stroke:none"
       id="circle8637" />
    <circle
       id="circle8643"
       style="fill:#fc00b9;fill-opacity:1;stroke:none"
       cx="310.36108"
       cy="652.95239"
       r="3.3823314" />
    <circle
       r="3.3823314"
       cy="648.1413"
       cx="467.67273"
       style="fill:#fc00b9;fill-opacity:1;stroke:none"
       id="circle8645" />
    <circle
       id="circle8647"
       style="fill:#fc00b9;fill-opacity:1;stroke:none"
       cx="513.77917"
       cy="672.82007"
       r="3.3823314" />
    <circle
       r="3.3823314"
       cy="590.56281"
       cx="630.45459"
       style="fill:#fc00b9;fill-opacity:1;stroke:none"
       id="circle8653" />
    <circle
       r="3.3823314"
       cy="621.40302"
       cx="442.07794"
       style="fill:#fc00b9;fill-opacity:1;stroke:none"
       id="circle8657" />
    <circle
       id="circle8659"
       style="fill:#fc00b9;fill-opacity:1;stroke:none"
       cx="433.27856"
       cy="568.42346"
       r="3.3823314" />
    <circle
       r="3.3823314"
       cy="585.62671"
       cx="501.73322"
       style="fill:#fc00b9;fill-opacity:1;stroke:none"
       id="circle8661" />
    <circle
       id="circle8665"
       style="fill:#fc00b9;fill-opacity:1;stroke:none"
       cx="484.21271"
       cy="557.96753"
       r="3.3823314" />
    <circle
       r="3.3823314"
       cy="562.52924"
       cx="323.53937"
       style="fill:#fc00b9;fill-opacity:1;stroke:none"
       id="circle8667" />
    <circle
       id="circle8669"
       style="fill:#fc00b9;fill-opacity:1;stroke:none"
       cx="660.45148"
       cy="503.63461"
       r="3.3823314" />
    <circle
       r="3.3823314"
       cy="597.65259"
       cx="306.33609"
       style="fill:#fc00b9;fill-opacity:1;stroke:none"
       id="circle8671" />
    <circle
       r="3.3823314"
       cy="604.10199"
       cx="264.2565"
       style="fill:#fc00b9;fill-opacity:1;stroke:none"
       id="circle8677" />
    <circle
       r="3.3823314"
       cy="665.43158"
       cx="405.16245"
       style="fill:#fc00b9;fill-opacity:1;stroke:none"
       id="circle8681" />
    <circle
       r="3.3823314"
       cy="563.55353"
       cx="514.13647"
       style="fill:#fc00b9;fill-opacity:1;stroke:none"
       id="circle8687" />
    <circle
       r="3.3823314"
       cy="640.64661"
       cx="253.41135"
       style="fill:#fc00b9;fill-opacity:1;stroke:none"
       id="circle8691" />
    <g
       id="g12293"
       transform="matrix(0.45605694,0,0,0.45605694,311.656,369.00575)">
      <path
         inkscape:connector-curvature="0"
         id="path8695"
         d="m -191.14287,238.44776 1009.36643,0"
         style="fill:none;stroke:#000000;stroke-width:5;stroke-linecap:butt;stroke-linejoin:miter;stroke-miterlimit:4;stroke-dasharray:none;stroke-dashoffset:0;stroke-opacity:1" />
      <path
         inkscape:connector-curvature="0"
         id="path8701"
         d="M 818.22356,238.44776 669.34368,794.07505"
         style="fill:none;stroke:#000000;stroke-width:5;stroke-linecap:butt;stroke-linejoin:miter;stroke-miterlimit:4;stroke-dasharray:none;stroke-dashoffset:0;stroke-opacity:1" />
      <path
         style="fill:none;stroke:#000000;stroke-width:5;stroke-linecap:butt;stroke-linejoin:miter;stroke-miterlimit:4;stroke-dasharray:none;stroke-dashoffset:0;stroke-opacity:1"
         d="m -340.02275,794.07505 1009.36643,0"
         id="path8703"
         inkscape:connector-curvature="0" />
      <path
         style="fill:none;stroke:#000000;stroke-width:5;stroke-linecap:butt;stroke-linejoin:miter;stroke-miterlimit:4;stroke-dasharray:none;stroke-dashoffset:0;stroke-opacity:1"
         d="M -191.62583,238.00789 -340.50571,793.63518"
         id="path8705"
         inkscape:connector-curvature="0" />
    </g>
    <circle
       id="circle8709"
       style="fill:#fc00b9;fill-opacity:1;stroke:none"
       cx="275.02164"
       cy="678.2478"
       r="3.3823314" />
    <circle
       r="3.3823314"
       cy="701.71783"
       cx="189.25749"
       style="fill:#fc00b9;fill-opacity:1;stroke:none"
       id="circle8711" />
    <circle
       id="circle8713"
       style="fill:#fc00b9;fill-opacity:1;stroke:none"
       cx="213.98721"
       cy="612.83429"
       r="3.3823314" />
    <circle
       r="3.3823314"
       cy="713.18665"
       cx="438.34641"
       style="fill:#fc00b9;fill-opacity:1;stroke:none"
       id="circle8715" />
    <circle
       r="3.3823314"
       cy="550.11407"
       cx="237.64169"
       style="fill:#fc00b9;fill-opacity:1;stroke:none"
       id="circle8719" />
    <circle
       id="circle8721"
       style="fill:#fc00b9;fill-opacity:1;stroke:none"
       cx="288.07254"
       cy="584.58209"
       r="3.3823314" />
    <circle
       r="3.3823314"
       cy="492.41141"
       cx="386.01981"
       style="fill:#fc00b9;fill-opacity:1;stroke:none"
       id="circle8727" />
    <circle
       id="circle8729"
       style="fill:#fc00b9;fill-opacity:1;stroke:none"
       cx="326.16678"
       cy="494.92026"
       r="3.3823314" />
    <circle
       r="3.3823314"
       cy="515.70752"
       cx="452.68243"
       style="fill:#fc00b9;fill-opacity:1;stroke:none"
       id="circle8731" />
    <circle
       r="3.3823314"
       cy="695.1181"
       cx="404.94739"
       style="fill:#fc00b9;fill-opacity:1;stroke:none"
       id="circle8735" />
    <circle
       id="circle8737"
       style="fill:#fc00b9;fill-opacity:1;stroke:none"
       cx="375.98456"
       cy="713.54504"
       r="3.3823314" />
    <circle
       r="3.3823314"
       cy="704.94342"
       cx="317.56516"
       style="fill:#fc00b9;fill-opacity:1;stroke:none"
       id="circle8739" />
    <circle
       id="circle8743"
       style="fill:#fc00b9;fill-opacity:1;stroke:none"
       cx="488.30286"
       cy="708.56348"
       r="3.3823314" />
    <circle
       r="3.3823314"
       cy="708.21558"
       cx="535.98334"
       style="fill:#fc00b9;fill-opacity:1;stroke:none"
       id="circle8745" />
    <circle
       id="circle8747"
       style="fill:#fc00b9;fill-opacity:1;stroke:none"
       cx="606.7605"
       cy="654.29382"
       r="3.3823314" />
    <circle
       r="3.3823314"
       cy="700.54071"
       cx="598.9837"
       style="fill:#fc00b9;fill-opacity:1;stroke:none"
       id="circle8749" />
    <circle
       id="circle8751"
       style="fill:#fc00b9;fill-opacity:1;stroke:none"
       cx="630.51685"
       cy="557.47815"
       r="3.3823314" />
    <circle
       r="3.3823314"
       cy="515.81781"
       cx="506.69873"
       style="fill:#fc00b9;fill-opacity:1;stroke:none"
       id="circle8753" />
    <circle
       r="3.3823314"
       cy="594.76068"
       cx="565.11389"
       style="fill:#fc00b9;fill-opacity:1;stroke:none"
       id="circle8757" />
    <circle
       id="circle8759"
       style="fill:#fc00b9;fill-opacity:1;stroke:none"
       cx="564.26538"
       cy="520.75354"
       r="3.3823314" />
    <path
       style="fill:none;stroke:#000000;stroke-width:0.93930262;stroke-linecap:butt;stroke-linejoin:miter;stroke-miterlimit:4;stroke-dasharray:none;stroke-opacity:1;marker-end:url(#marker8787)"
       d="m 229.11089,702.43048 45.40523,0"
       id="path8763"
       inkscape:connector-curvature="0" />
    <path
       style="fill:none;stroke:#000000;stroke-width:0.96972179;stroke-linecap:butt;stroke-linejoin:miter;stroke-miterlimit:4;stroke-dasharray:none;stroke-opacity:1;marker-end:url(#TriangleOutL)"
       d="m 229.11089,702.43048 14.03444,-42.03411"
       id="path8765"
       inkscape:connector-curvature="0" />
    <path
       sodipodi:nodetypes="csc"
       inkscape:connector-curvature="0"
       id="path9111"
       d="m 408.62818,399.7412 c -34.22586,3.06264 -42.91969,63.59615 -63.42938,103.922 -19.62647,38.58927 -70.14768,68.25268 -90.66797,100.9307"
       style="fill:none;stroke:#00cb00;stroke-width:2.38577986;stroke-linecap:butt;stroke-linejoin:miter;stroke-miterlimit:4;stroke-dasharray:7.15733924, 2.38577974;stroke-dashoffset:0;stroke-opacity:1" />
    <ellipse
       style="opacity:1;fill:none;fill-opacity:1;stroke:#00cb00;stroke-width:2.9822247;stroke-linejoin:miter;stroke-miterlimit:4;stroke-dasharray:8.94667404, 2.98222468;stroke-dashoffset:0;stroke-opacity:1"
       id="path9119"
       cx="409.39081"
       cy="603.58643"
       rx="155.44475"
       ry="40.477341" />
    <g
       ns0:text="$r$"
       ns0:preamble="/Users/ignathanas/Documents/Contributions/Contact_1/AMA-stix/ama/figures/textext.preamble.tex"
       transform="matrix(2.782191,0,0,2.782191,-45.551138,248.37007)"
       id="g9800">
      <defs
         id="defs9802">
        <g
           id="g9804">
          <symbol
             overflow="visible"
             id="textext-bdc2e617-0"
             style="overflow:visible">
            <path
               style="stroke:none"
               d=""
               id="path9807"
               inkscape:connector-curvature="0" />
          </symbol>
          <symbol
             overflow="visible"
             id="textext-bdc2e617-1"
             style="overflow:visible">
            <path
               style="stroke:none"
               d="M 1.203125,0 C 1.71875,-1.6875 1.890625,-2.125 2.359375,-2.875 2.6875,-3.4375 2.953125,-3.75 3.125,-3.75 c 0.0625,0 0.109375,0.046875 0.171875,0.140625 0.078125,0.171875 0.15625,0.21875 0.359375,0.21875 0.28125,0 0.453125,-0.171875 0.453125,-0.484375 0,-0.3125 -0.1875,-0.515625 -0.46875,-0.515625 -0.234375,0 -0.5,0.140625 -0.765625,0.40625 C 2.46875,-3.5625 2.078125,-2.96875 1.90625,-2.578125 L 1.78125,-2.21875 2.296875,-4.375 2.265625,-4.390625 c -0.71875,0.125 -0.8125,0.140625 -1.53125,0.265625 l 0,0.171875 C 0.96875,-4 1,-4 1.0625,-4 c 0.21875,0 0.359375,0.09375 0.359375,0.265625 0,0.140625 0,0.140625 -0.171875,0.828125 L 0.453125,0 Z m 0,0"
               id="path9810"
               inkscape:connector-curvature="0" />
          </symbol>
        </g>
      </defs>
      <g
         id="textext-bdc2e617-2">
        <g
           style="fill:#000000;fill-opacity:1"
           id="g9813">
          <use
             xlink:href="#textext-bdc2e617-1"
             x="223.27299"
             y="134.765"
             id="use9815"
             width="100%"
             height="100%" />
        </g>
      </g>
    </g>
    <g
       id="g10073"
       transform="matrix(2.782191,0,0,2.782191,-249.09213,16.517167)"
       ns0:preamble="/Users/ignathanas/Documents/Contributions/Contact_1/AMA-stix/ama/figures/textext.preamble.tex"
       ns0:text="$w$">
      <defs
         id="defs10075">
        <g
           id="g10077">
          <symbol
             id="textext-c5c41a69-0"
             overflow="visible"
             style="overflow:visible">
            <path
               id="path10080"
               d=""
               style="stroke:none"
               inkscape:connector-curvature="0" />
          </symbol>
          <symbol
             id="textext-c5c41a69-1"
             overflow="visible"
             style="overflow:visible">
            <path
               id="path10083"
               d="m 6.453125,-3.875 c 0,-0.296875 -0.21875,-0.515625 -0.515625,-0.515625 -0.234375,0 -0.390625,0.125 -0.390625,0.328125 0,0.140625 0.0625,0.21875 0.21875,0.359375 0.15625,0.15625 0.21875,0.25 0.21875,0.375 0,0.421875 -0.34375,0.953125 -1.640625,2.59375 L 4.015625,-4.25 C 4.015625,-4.359375 4,-4.390625 3.9375,-4.390625 c -0.046875,0 -0.078125,0.03125 -0.125,0.109375 L 1.890625,-1.25 C 1.859375,-2.140625 1.71875,-3.34375 1.578125,-4.0625 1.515625,-4.375 1.5,-4.390625 1.390625,-4.390625 0.875,-4.28125 0.15625,-4.15625 0.15625,-4.15625 l 0,0.125 0.296875,0 c 0.28125,0 0.359375,0.0625 0.4375,0.421875 C 1,-3.125 1.125,-1.96875 1.171875,-1.171875 l 0.03125,0.875 C 1.21875,0.09375 1.25,0.171875 1.328125,0.171875 1.453125,0.171875 2.5,-1.75 2.5,-1.75 L 3.375,-3.15625 3.703125,-0.125 C 3.71875,0.15625 3.734375,0.171875 3.8125,0.171875 3.890625,0.171875 4,0.078125 4.25,-0.25 L 4.34375,-0.359375 C 5.734375,-2.03125 6.453125,-3.234375 6.453125,-3.875 Z m 0,0"
               style="stroke:none"
               inkscape:connector-curvature="0" />
          </symbol>
        </g>
      </defs>
      <g
         id="textext-c5c41a69-2">
        <g
           id="g10086"
           style="fill:#000000;fill-opacity:1">
          <use
             id="use10088"
             y="134.765"
             x="223.562"
             xlink:href="#textext-c5c41a69-1"
             width="100%"
             height="100%" />
        </g>
      </g>
    </g>
    <g
       ns0:text="$x$"
       ns0:preamble="/Users/ignathanas/Documents/Contributions/Contact_1/AMA-stix/ama/figures/textext.preamble.tex"
       transform="matrix(2.782191,0,0,2.782191,-365.96183,343.70481)"
       id="g10396">
      <defs
         id="defs10398">
        <g
           id="g10400">
          <symbol
             overflow="visible"
             id="textext-05e2de28-0"
             style="overflow:visible">
            <path
               style="stroke:none"
               d=""
               id="path10403"
               inkscape:connector-curvature="0" />
          </symbol>
          <symbol
             overflow="visible"
             id="textext-05e2de28-1"
             style="overflow:visible">
            <path
               style="stroke:none"
               d="M 4,-1.109375 C 3.921875,-1.015625 3.875,-0.953125 3.78125,-0.84375 3.5625,-0.53125 3.4375,-0.4375 3.328125,-0.4375 3.1875,-0.4375 3.09375,-0.5625 3.015625,-0.84375 3,-0.921875 2.984375,-0.984375 2.984375,-1.015625 2.734375,-2.03125 2.625,-2.484375 2.625,-2.625 c 0.4375,-0.78125 0.796875,-1.21875 0.96875,-1.21875 0.0625,0 0.140625,0.03125 0.25,0.078125 0.109375,0.078125 0.1875,0.09375 0.265625,0.09375 0.203125,0 0.34375,-0.140625 0.34375,-0.359375 0,-0.203125 -0.171875,-0.359375 -0.40625,-0.359375 -0.4375,0 -0.8125,0.359375 -1.5,1.421875 L 2.4375,-3.515625 c -0.140625,-0.6875 -0.25,-0.875 -0.53125,-0.875 -0.21875,0 -0.546875,0.078125 -1.15625,0.28125 L 0.640625,-4.0625 0.671875,-3.921875 C 1.0625,-4 1.140625,-4.03125 1.234375,-4.03125 c 0.25,0 0.3125,0.09375 0.453125,0.6875 l 0.28125,1.234375 -0.8125,1.15625 C 0.953125,-0.640625 0.75,-0.46875 0.640625,-0.46875 0.59375,-0.46875 0.484375,-0.5 0.390625,-0.5625 0.265625,-0.625 0.15625,-0.65625 0.0625,-0.65625 c -0.1875,0 -0.328125,0.140625 -0.328125,0.34375 0,0.265625 0.203125,0.421875 0.5,0.421875 0.296875,0 0.421875,-0.09375 0.921875,-0.703125 0.265625,-0.3125 0.484375,-0.578125 0.890625,-1.15625 l 0.3125,1.1875 c 0.125,0.515625 0.25,0.671875 0.578125,0.671875 0.375,0 0.625,-0.234375 1.203125,-1.140625 z m 0,0"
               id="path10406"
               inkscape:connector-curvature="0" />
          </symbol>
        </g>
      </defs>
      <g
         id="textext-05e2de28-2">
        <g
           style="fill:#000000;fill-opacity:1"
           id="g10409">
          <use
             xlink:href="#textext-05e2de28-1"
             x="223.98"
             y="134.765"
             id="use10411"
             width="100%"
             height="100%" />
        </g>
      </g>
    </g>
    <g
       id="g10699"
       transform="matrix(2.782191,0,0,2.782191,-402.16043,299.26305)"
       ns0:preamble="/Users/ignathanas/Documents/Contributions/Contact_1/AMA-stix/ama/figures/textext.preamble.tex"
       ns0:text="$y$">
      <defs
         id="defs10701">
        <g
           id="g10703">
          <symbol
             id="textext-d1431137-0"
             overflow="visible"
             style="overflow:visible">
            <path
               id="path10706"
               d=""
               style="stroke:none"
               inkscape:connector-curvature="0" />
          </symbol>
          <symbol
             id="textext-d1431137-1"
             overflow="visible"
             style="overflow:visible">
            <path
               id="path10709"
               d="M 4.25,-3.84375 C 4.25,-4.140625 4,-4.390625 3.703125,-4.390625 3.46875,-4.390625 3.3125,-4.25 3.3125,-4.03125 c 0,0.15625 0.078125,0.265625 0.28125,0.390625 0.1875,0.109375 0.25,0.203125 0.25,0.34375 0,0.390625 -0.359375,1.15625 -1.21875,2.578125 L 2.4375,-1.875 C 2.28125,-2.765625 1.71875,-4.390625 1.578125,-4.390625 l -0.125,0 -0.984375,0.171875 -0.3125,0.0625 0,0.171875 c 0.109375,-0.03125 0.1875,-0.046875 0.296875,-0.046875 0.40625,0 0.578125,0.15625 0.765625,0.640625 0.28125,0.671875 0.828125,2.90625 0.828125,3.3125 C 2.046875,0.03125 2,0.15625 1.9375,0.265625 1.859375,0.40625 1.421875,0.984375 1.234375,1.171875 1,1.421875 0.890625,1.5 0.75,1.5 0.6875,1.5 0.625,1.46875 0.515625,1.390625 0.375,1.28125 0.265625,1.21875 0.15625,1.21875 c -0.21875,0 -0.390625,0.171875 -0.390625,0.390625 0,0.265625 0.203125,0.4375 0.5,0.4375 C 0.84375,2.046875 1.90625,0.90625 2.9375,-0.8125 3.78125,-2.1875 4.25,-3.28125 4.25,-3.84375 Z m 0,0"
               style="stroke:none"
               inkscape:connector-curvature="0" />
          </symbol>
        </g>
      </defs>
      <g
         id="textext-d1431137-2">
        <g
           id="g10712"
           style="fill:#000000;fill-opacity:1">
          <use
             id="use10714"
             y="134.765"
             x="223.95"
             xlink:href="#textext-d1431137-1"
             width="100%"
             height="100%" />
        </g>
      </g>
    </g>
    <path
       style="fill:none;stroke:#000000;stroke-width:0.35479918px;stroke-linecap:butt;stroke-linejoin:miter;stroke-opacity:1"
       d="M 210.02764,525.01108 137.04039,458.1061"
       id="path12901"
       inkscape:connector-curvature="0"
       sodipodi:nodetypes="cc" />
    <path
       style="fill:none;stroke:#000000;stroke-width:0.35479918px;stroke-linecap:butt;stroke-linejoin:miter;stroke-opacity:1"
       d="m 279.97377,476.35291 -93.2615,-30.41136"
       id="path12903"
       inkscape:connector-curvature="0"
       sodipodi:nodetypes="cc" />
    <g
       ns0:text="Boundaries of"
       ns0:preamble="/Users/ignathanas/Documents/Contributions/Contact_1/AMA-stix/ama/figures/textext.preambleArial.tex"
       transform="matrix(2.782191,0,0,2.782191,-574.37323,40.915707)"
       id="g13087">
      <defs
         id="defs13089">
        <g
           id="g13091">
          <symbol
             style="overflow:visible"
             overflow="visible"
             id="textext-6ba260bf-0">
            <path
               inkscape:connector-curvature="0"
               style="stroke:none"
               d=""
               id="path13094" />
          </symbol>
          <symbol
             style="overflow:visible"
             overflow="visible"
             id="textext-6ba260bf-1">
            <path
               inkscape:connector-curvature="0"
               style="stroke:none"
               d="M 0.78125,0 4.0625,0 C 4.75,0 5.265625,-0.1875 5.65625,-0.609375 6.015625,-0.984375 6.203125,-1.5 6.203125,-2.078125 c 0,-0.875 -0.390625,-1.40625 -1.3125,-1.765625 0.65625,-0.296875 1,-0.84375 1,-1.578125 0,-0.53125 -0.203125,-1 -0.578125,-1.34375 -0.375,-0.34375 -0.875,-0.5 -1.578125,-0.5 l -2.953125,0 z m 0.9375,-4.140625 0,-2.3125 1.796875,0 c 0.515625,0 0.796875,0.078125 1.046875,0.265625 0.265625,0.203125 0.40625,0.5 0.40625,0.890625 0,0.390625 -0.140625,0.703125 -0.40625,0.90625 -0.25,0.1875 -0.53125,0.25 -1.046875,0.25 z m 0,3.328125 0,-2.5 2.265625,0 c 0.4375,0 0.734375,0.109375 0.953125,0.34375 0.21875,0.234375 0.34375,0.546875 0.34375,0.90625 0,0.34375 -0.125,0.671875 -0.34375,0.890625 -0.21875,0.25 -0.515625,0.359375 -0.953125,0.359375 z m 0,0"
               id="path13097" />
          </symbol>
          <symbol
             style="overflow:visible"
             overflow="visible"
             id="textext-6ba260bf-2">
            <path
               inkscape:connector-curvature="0"
               style="stroke:none"
               d="m 2.71875,-5.375 c -1.46875,0 -2.359375,1.046875 -2.359375,2.796875 0,1.765625 0.875,2.8125 2.359375,2.8125 1.46875,0 2.359375,-1.046875 2.359375,-2.765625 0,-1.8125 -0.859375,-2.84375 -2.359375,-2.84375 z m 0,0.765625 c 0.9375,0 1.5,0.765625 1.5,2.0625 0,1.234375 -0.578125,2.015625 -1.5,2.015625 -0.921875,0 -1.5,-0.78125 -1.5,-2.046875 0,-1.25 0.578125,-2.03125 1.5,-2.03125 z m 0,0"
               id="path13100" />
          </symbol>
          <symbol
             style="overflow:visible"
             overflow="visible"
             id="textext-6ba260bf-3">
            <path
               inkscape:connector-curvature="0"
               style="stroke:none"
               d="m 4.8125,0 0,-5.21875 -0.828125,0 0,2.953125 c 0,1.0625 -0.5625,1.765625 -1.4375,1.765625 -0.65625,0 -1.078125,-0.390625 -1.078125,-1.03125 l 0,-3.6875 -0.828125,0 0,4.015625 c 0,0.875 0.65625,1.4375 1.671875,1.4375 0.765625,0 1.25,-0.28125 1.75,-0.96875 L 4.0625,0 Z m 0,0"
               id="path13103" />
          </symbol>
          <symbol
             style="overflow:visible"
             overflow="visible"
             id="textext-6ba260bf-4">
            <path
               inkscape:connector-curvature="0"
               style="stroke:none"
               d="m 0.703125,-5.21875 0,5.21875 0.828125,0 0,-2.875 c 0,-1.078125 0.5625,-1.765625 1.421875,-1.765625 0.65625,0 1.078125,0.390625 1.078125,1.015625 l 0,3.625 0.828125,0 0,-3.953125 c 0,-0.859375 -0.65625,-1.421875 -1.65625,-1.421875 -0.78125,0 -1.28125,0.296875 -1.734375,1.03125 l 0,-0.875 z m 0,0"
               id="path13106" />
          </symbol>
          <symbol
             style="overflow:visible"
             overflow="visible"
             id="textext-6ba260bf-5">
            <path
               inkscape:connector-curvature="0"
               style="stroke:none"
               d="m 4.9375,-7.265625 -0.828125,0 0,2.703125 C 3.765625,-5.09375 3.203125,-5.375 2.5,-5.375 c -1.359375,0 -2.234375,1.09375 -2.234375,2.75 0,1.765625 0.859375,2.859375 2.265625,2.859375 0.71875,0 1.21875,-0.28125 1.671875,-0.921875 L 4.203125,0 4.9375,0 Z M 2.640625,-4.59375 c 0.890625,0 1.46875,0.796875 1.46875,2.046875 0,1.203125 -0.578125,2 -1.453125,2 -0.921875,0 -1.53125,-0.8125 -1.53125,-2.03125 0,-1.203125 0.609375,-2.015625 1.515625,-2.015625 z m 0,0"
               id="path13109" />
          </symbol>
          <symbol
             style="overflow:visible"
             overflow="visible"
             id="textext-6ba260bf-6">
            <path
               inkscape:connector-curvature="0"
               style="stroke:none"
               d="M 5.328125,-0.484375 C 5.25,-0.46875 5.203125,-0.46875 5.15625,-0.46875 4.859375,-0.46875 4.703125,-0.625 4.703125,-0.875 l 0,-3.078125 C 4.703125,-4.875 4.03125,-5.375 2.734375,-5.375 c -0.75,0 -1.375,0.21875 -1.734375,0.609375 -0.234375,0.265625 -0.328125,0.5625 -0.359375,1.09375 l 0.84375,0 C 1.5625,-4.3125 1.9375,-4.609375 2.71875,-4.609375 c 0.734375,0 1.15625,0.28125 1.15625,0.78125 l 0,0.21875 c 0,0.34375 -0.203125,0.5 -0.859375,0.578125 -1.1875,0.15625 -1.359375,0.1875 -1.6875,0.3125 -0.59375,0.25 -0.90625,0.71875 -0.90625,1.40625 0,0.9375 0.65625,1.546875 1.71875,1.546875 0.65625,0 1.171875,-0.234375 1.765625,-0.765625 0.0625,0.515625 0.328125,0.765625 0.859375,0.765625 0.171875,0 0.296875,-0.03125 0.5625,-0.09375 z M 3.875,-1.640625 c 0,0.28125 -0.078125,0.4375 -0.328125,0.671875 -0.34375,0.3125 -0.75,0.46875 -1.234375,0.46875 -0.640625,0 -1.03125,-0.3125 -1.03125,-0.828125 0,-0.5625 0.375,-0.828125 1.265625,-0.96875 0.875,-0.109375 1.046875,-0.15625 1.328125,-0.28125 z m 0,0"
               id="path13112" />
          </symbol>
          <symbol
             style="overflow:visible"
             overflow="visible"
             id="textext-6ba260bf-7">
            <path
               inkscape:connector-curvature="0"
               style="stroke:none"
               d="m 0.6875,-5.21875 0,5.21875 0.84375,0 0,-2.71875 c 0,-0.734375 0.1875,-1.234375 0.578125,-1.515625 C 2.375,-4.421875 2.625,-4.484375 3.203125,-4.5 l 0,-0.84375 C 3.0625,-5.359375 2.984375,-5.375 2.875,-5.375 c -0.53125,0 -0.9375,0.328125 -1.421875,1.09375 l 0,-0.9375 z m 0,0"
               id="path13115" />
          </symbol>
          <symbol
             style="overflow:visible"
             overflow="visible"
             id="textext-6ba260bf-8">
            <path
               inkscape:connector-curvature="0"
               style="stroke:none"
               d="m 1.5,-5.21875 -0.828125,0 0,5.21875 L 1.5,0 Z m 0,-2.046875 -0.84375,0 0,1.046875 0.84375,0 z m 0,0"
               id="path13118" />
          </symbol>
          <symbol
             style="overflow:visible"
             overflow="visible"
             id="textext-6ba260bf-9">
            <path
               inkscape:connector-curvature="0"
               style="stroke:none"
               d="M 5.109375,-2.328125 C 5.109375,-3.125 5.046875,-3.609375 4.90625,-4 4.5625,-4.859375 3.765625,-5.375 2.796875,-5.375 c -1.46875,0 -2.390625,1.125 -2.390625,2.828125 0,1.71875 0.90625,2.78125 2.359375,2.78125 1.203125,0 2.03125,-0.6875 2.234375,-1.8125 l -0.828125,0 c -0.234375,0.6875 -0.703125,1.046875 -1.375,1.046875 -0.53125,0 -0.96875,-0.25 -1.25,-0.6875 C 1.34375,-1.515625 1.28125,-1.8125 1.265625,-2.328125 Z m -3.828125,-0.6875 c 0.078125,-0.96875 0.65625,-1.59375 1.5,-1.59375 0.8125,0 1.453125,0.6875 1.453125,1.53125 0,0.03125 0,0.046875 -0.015625,0.0625 z m 0,0"
               id="path13121" />
          </symbol>
          <symbol
             style="overflow:visible"
             overflow="visible"
             id="textext-6ba260bf-10">
            <path
               inkscape:connector-curvature="0"
               style="stroke:none"
               d="m 4.359375,-3.765625 c 0,-1.03125 -0.6875,-1.609375 -1.890625,-1.609375 -1.21875,0 -2,0.625 -2,1.59375 0,0.828125 0.421875,1.203125 1.65625,1.515625 l 0.78125,0.1875 c 0.578125,0.140625 0.796875,0.34375 0.796875,0.71875 0,0.484375 -0.484375,0.828125 -1.203125,0.828125 -0.453125,0 -0.828125,-0.140625 -1.046875,-0.359375 C 1.328125,-1.03125 1.265625,-1.1875 1.21875,-1.5625 l -0.875,0 c 0.03125,1.21875 0.71875,1.796875 2.078125,1.796875 1.3125,0 2.15625,-0.65625 2.15625,-1.65625 0,-0.78125 -0.4375,-1.203125 -1.484375,-1.453125 L 2.296875,-3.078125 c -0.671875,-0.15625 -0.96875,-0.375 -0.96875,-0.734375 0,-0.484375 0.4375,-0.796875 1.109375,-0.796875 0.671875,0 1.03125,0.296875 1.046875,0.84375 z m 0,0"
               id="path13124" />
          </symbol>
          <symbol
             style="overflow:visible"
             overflow="visible"
             id="textext-6ba260bf-11">
            <path
               inkscape:connector-curvature="0"
               style="stroke:none"
               d="m 2.578125,-5.21875 -0.875,0 0,-0.828125 c 0,-0.34375 0.203125,-0.515625 0.578125,-0.515625 0.078125,0 0.09375,0 0.296875,0 l 0,-0.6875 C 2.375,-7.28125 2.265625,-7.296875 2.109375,-7.296875 c -0.78125,0 -1.234375,0.4375 -1.234375,1.1875 l 0,0.890625 -0.703125,0 0,0.671875 0.703125,0 0,4.546875 0.828125,0 0,-4.546875 0.875,0 z m 0,0"
               id="path13127" />
          </symbol>
        </g>
      </defs>
      <g
         id="textext-6ba260bf-12">
        <g
           style="fill:#000000;fill-opacity:1"
           id="g13130">
          <use
             height="100%"
             width="100%"
             xlink:href="#textext-6ba260bf-1"
             x="223.43201"
             y="134.765"
             id="use13132" />
          <use
             height="100%"
             width="100%"
             xlink:href="#textext-6ba260bf-2"
             x="230.07706"
             y="134.765"
             id="use13134" />
          <use
             height="100%"
             width="100%"
             xlink:href="#textext-6ba260bf-3"
             x="235.61626"
             y="134.765"
             id="use13136" />
          <use
             height="100%"
             width="100%"
             xlink:href="#textext-6ba260bf-4"
             x="241.15547"
             y="134.765"
             id="use13138" />
          <use
             height="100%"
             width="100%"
             xlink:href="#textext-6ba260bf-5"
             x="246.69467"
             y="134.765"
             id="use13140" />
          <use
             height="100%"
             width="100%"
             xlink:href="#textext-6ba260bf-6"
             x="252.23387"
             y="134.765"
             id="use13142" />
          <use
             height="100%"
             width="100%"
             xlink:href="#textext-6ba260bf-7"
             x="257.77307"
             y="134.765"
             id="use13144" />
        </g>
        <g
           style="fill:#000000;fill-opacity:1"
           id="g13146">
          <use
             height="100%"
             width="100%"
             xlink:href="#textext-6ba260bf-8"
             x="261.24008"
             y="134.765"
             id="use13148" />
          <use
             height="100%"
             width="100%"
             xlink:href="#textext-6ba260bf-9"
             x="263.45175"
             y="134.765"
             id="use13150" />
          <use
             height="100%"
             width="100%"
             xlink:href="#textext-6ba260bf-10"
             x="268.99097"
             y="134.765"
             id="use13152" />
        </g>
        <g
           style="fill:#000000;fill-opacity:1"
           id="g13154">
          <use
             height="100%"
             width="100%"
             xlink:href="#textext-6ba260bf-2"
             x="276.74188"
             y="134.765"
             id="use13156" />
          <use
             height="100%"
             width="100%"
             xlink:href="#textext-6ba260bf-11"
             x="282.28107"
             y="134.765"
             id="use13158" />
        </g>
      </g>
    </g>
    <g
       id="g13694"
       transform="matrix(2.782191,0,0,2.782191,-574.37323,69.299637)"
       ns0:preamble="/Users/ignathanas/Documents/Contributions/Contact_1/AMA-stix/ama/figures/textext.preambleArial.tex"
       ns0:text="2D domain">
      <defs
         id="defs13696">
        <g
           id="g13698">
          <symbol
             id="textext-f7215b70-0"
             overflow="visible"
             style="overflow:visible">
            <path
               id="path13701"
               d=""
               style="stroke:none"
               inkscape:connector-curvature="0" />
          </symbol>
          <symbol
             id="textext-f7215b70-1"
             overflow="visible"
             style="overflow:visible">
            <path
               id="path13704"
               d="m 5.046875,-0.875 -3.71875,0 c 0.09375,-0.578125 0.40625,-0.9375 1.28125,-1.453125 L 3.59375,-2.859375 C 4.578125,-3.40625 5.09375,-4.125 5.09375,-5 5.09375,-5.578125 4.859375,-6.125 4.4375,-6.515625 4.015625,-6.890625 3.5,-7.0625 2.828125,-7.0625 1.9375,-7.0625 1.265625,-6.75 0.875,-6.15625 0.625,-5.765625 0.515625,-5.328125 0.5,-4.609375 l 0.875,0 c 0.03125,-0.484375 0.09375,-0.78125 0.203125,-1 0.234375,-0.4375 0.6875,-0.6875 1.21875,-0.6875 0.796875,0 1.40625,0.5625 1.40625,1.328125 0,0.546875 -0.328125,1.03125 -0.96875,1.390625 L 2.328125,-3.0625 C 0.84375,-2.21875 0.421875,-1.5625 0.34375,0 l 4.703125,0 z m 0,0"
               style="stroke:none"
               inkscape:connector-curvature="0" />
          </symbol>
          <symbol
             id="textext-f7215b70-2"
             overflow="visible"
             style="overflow:visible">
            <path
               id="path13707"
               d="M 0.890625,0 3.6875,0 c 1.828125,0 2.96875,-1.375 2.96875,-3.640625 0,-2.25 -1.125,-3.625 -2.96875,-3.625 l -2.796875,0 z m 0.921875,-0.8125 0,-5.640625 1.71875,0 c 1.4375,0 2.1875,0.96875 2.1875,2.828125 0,1.828125 -0.75,2.8125 -2.1875,2.8125 z m 0,0"
               style="stroke:none"
               inkscape:connector-curvature="0" />
          </symbol>
          <symbol
             id="textext-f7215b70-3"
             overflow="visible"
             style="overflow:visible">
            <path
               id="path13710"
               d="m 4.9375,-7.265625 -0.828125,0 0,2.703125 C 3.765625,-5.09375 3.203125,-5.375 2.5,-5.375 c -1.359375,0 -2.234375,1.09375 -2.234375,2.75 0,1.765625 0.859375,2.859375 2.265625,2.859375 0.71875,0 1.21875,-0.28125 1.671875,-0.921875 L 4.203125,0 4.9375,0 Z M 2.640625,-4.59375 c 0.890625,0 1.46875,0.796875 1.46875,2.046875 0,1.203125 -0.578125,2 -1.453125,2 -0.921875,0 -1.53125,-0.8125 -1.53125,-2.03125 0,-1.203125 0.609375,-2.015625 1.515625,-2.015625 z m 0,0"
               style="stroke:none"
               inkscape:connector-curvature="0" />
          </symbol>
          <symbol
             id="textext-f7215b70-4"
             overflow="visible"
             style="overflow:visible">
            <path
               id="path13713"
               d="m 2.71875,-5.375 c -1.46875,0 -2.359375,1.046875 -2.359375,2.796875 0,1.765625 0.875,2.8125 2.359375,2.8125 1.46875,0 2.359375,-1.046875 2.359375,-2.765625 0,-1.8125 -0.859375,-2.84375 -2.359375,-2.84375 z m 0,0.765625 c 0.9375,0 1.5,0.765625 1.5,2.0625 0,1.234375 -0.578125,2.015625 -1.5,2.015625 -0.921875,0 -1.5,-0.78125 -1.5,-2.046875 0,-1.25 0.578125,-2.03125 1.5,-2.03125 z m 0,0"
               style="stroke:none"
               inkscape:connector-curvature="0" />
          </symbol>
          <symbol
             id="textext-f7215b70-5"
             overflow="visible"
             style="overflow:visible">
            <path
               id="path13716"
               d="m 0.703125,-5.21875 0,5.21875 0.828125,0 0,-3.28125 c 0,-0.75 0.546875,-1.359375 1.234375,-1.359375 0.609375,0 0.96875,0.375 0.96875,1.046875 l 0,3.59375 0.828125,0 0,-3.28125 c 0,-0.75 0.546875,-1.359375 1.234375,-1.359375 0.609375,0 0.96875,0.390625 0.96875,1.046875 l 0,3.59375 0.828125,0 0,-3.921875 c 0,-0.9375 -0.53125,-1.453125 -1.515625,-1.453125 -0.6875,0 -1.109375,0.21875 -1.609375,0.796875 C 4.171875,-5.140625 3.75,-5.375 3.078125,-5.375 2.375,-5.375 1.90625,-5.109375 1.46875,-4.484375 l 0,-0.734375 z m 0,0"
               style="stroke:none"
               inkscape:connector-curvature="0" />
          </symbol>
          <symbol
             id="textext-f7215b70-6"
             overflow="visible"
             style="overflow:visible">
            <path
               id="path13719"
               d="M 5.328125,-0.484375 C 5.25,-0.46875 5.203125,-0.46875 5.15625,-0.46875 4.859375,-0.46875 4.703125,-0.625 4.703125,-0.875 l 0,-3.078125 C 4.703125,-4.875 4.03125,-5.375 2.734375,-5.375 c -0.75,0 -1.375,0.21875 -1.734375,0.609375 -0.234375,0.265625 -0.328125,0.5625 -0.359375,1.09375 l 0.84375,0 C 1.5625,-4.3125 1.9375,-4.609375 2.71875,-4.609375 c 0.734375,0 1.15625,0.28125 1.15625,0.78125 l 0,0.21875 c 0,0.34375 -0.203125,0.5 -0.859375,0.578125 -1.1875,0.15625 -1.359375,0.1875 -1.6875,0.3125 -0.59375,0.25 -0.90625,0.71875 -0.90625,1.40625 0,0.9375 0.65625,1.546875 1.71875,1.546875 0.65625,0 1.171875,-0.234375 1.765625,-0.765625 0.0625,0.515625 0.328125,0.765625 0.859375,0.765625 0.171875,0 0.296875,-0.03125 0.5625,-0.09375 z M 3.875,-1.640625 c 0,0.28125 -0.078125,0.4375 -0.328125,0.671875 -0.34375,0.3125 -0.75,0.46875 -1.234375,0.46875 -0.640625,0 -1.03125,-0.3125 -1.03125,-0.828125 0,-0.5625 0.375,-0.828125 1.265625,-0.96875 0.875,-0.109375 1.046875,-0.15625 1.328125,-0.28125 z m 0,0"
               style="stroke:none"
               inkscape:connector-curvature="0" />
          </symbol>
          <symbol
             id="textext-f7215b70-7"
             overflow="visible"
             style="overflow:visible">
            <path
               id="path13722"
               d="m 1.5,-5.21875 -0.828125,0 0,5.21875 L 1.5,0 Z m 0,-2.046875 -0.84375,0 0,1.046875 0.84375,0 z m 0,0"
               style="stroke:none"
               inkscape:connector-curvature="0" />
          </symbol>
          <symbol
             id="textext-f7215b70-8"
             overflow="visible"
             style="overflow:visible">
            <path
               id="path13725"
               d="m 0.703125,-5.21875 0,5.21875 0.828125,0 0,-2.875 c 0,-1.078125 0.5625,-1.765625 1.421875,-1.765625 0.65625,0 1.078125,0.390625 1.078125,1.015625 l 0,3.625 0.828125,0 0,-3.953125 c 0,-0.859375 -0.65625,-1.421875 -1.65625,-1.421875 -0.78125,0 -1.28125,0.296875 -1.734375,1.03125 l 0,-0.875 z m 0,0"
               style="stroke:none"
               inkscape:connector-curvature="0" />
          </symbol>
        </g>
      </defs>
      <g
         id="textext-f7215b70-9">
        <g
           id="g13728"
           style="fill:#000000;fill-opacity:1">
          <use
             id="use13730"
             y="134.765"
             x="223.43201"
             xlink:href="#textext-f7215b70-1"
             width="100%"
             height="100%" />
          <use
             id="use13732"
             y="134.765"
             x="228.97121"
             xlink:href="#textext-f7215b70-2"
             width="100%"
             height="100%" />
        </g>
        <g
           id="g13734"
           style="fill:#000000;fill-opacity:1">
          <use
             id="use13736"
             y="134.765"
             x="238.93381"
             xlink:href="#textext-f7215b70-3"
             width="100%"
             height="100%" />
          <use
             id="use13738"
             y="134.765"
             x="244.47301"
             xlink:href="#textext-f7215b70-4"
             width="100%"
             height="100%" />
          <use
             id="use13740"
             y="134.765"
             x="250.01222"
             xlink:href="#textext-f7215b70-5"
             width="100%"
             height="100%" />
          <use
             id="use13742"
             y="134.765"
             x="258.31107"
             xlink:href="#textext-f7215b70-6"
             width="100%"
             height="100%" />
          <use
             id="use13744"
             y="134.765"
             x="263.85028"
             xlink:href="#textext-f7215b70-7"
             width="100%"
             height="100%" />
          <use
             id="use13746"
             y="134.765"
             x="266.06195"
             xlink:href="#textext-f7215b70-8"
             width="100%"
             height="100%" />
        </g>
      </g>
    </g>
    <circle
       id="circle14227"
       style="fill:#fc00b9;fill-opacity:1;stroke:none"
       cx="486.76465"
       cy="604.13"
       r="3.3823314" />
    <path
       style="fill:none;stroke:#000000;stroke-width:4.43498945;stroke-linecap:butt;stroke-linejoin:miter;stroke-miterlimit:4;stroke-dasharray:none;stroke-dashoffset:0;stroke-opacity:1"
       d="m 408.62818,399.7412 c 34.22587,3.06264 42.91969,63.59615 63.42938,103.922 19.62647,38.58927 70.14768,68.25268 90.66797,100.9307"
       id="path19435"
       inkscape:connector-curvature="0"
       sodipodi:nodetypes="csc" />
    <g
       id="g19453">
      <path
         style="fill:none;stroke:#000300;stroke-width:1.63147521;stroke-linecap:butt;stroke-linejoin:miter;stroke-miterlimit:4;stroke-dasharray:none;stroke-opacity:1;marker-end:url(#marker9017)"
         d="m 407.95521,602.9392 194.90703,1.61617"
         id="path19455"
         inkscape:connector-curvature="0" />
      <path
         inkscape:connector-curvature="0"
         id="path19457"
         d="m 407.95521,602.9392 0,-218.63982"
         style="fill:none;stroke:#000300;stroke-width:1.63147521;stroke-linecap:butt;stroke-linejoin:miter;stroke-miterlimit:4;stroke-dasharray:none;stroke-opacity:1;marker-end:url(#marker15557)" />
    </g>
    <g
       ns0:text="$w({\\boldsymbol{\\rm{x}}_i})$"
       ns0:preamble="/Users/ignathanas/Documents/Contributions/Contact_1/AMA-stix/ama/figures/textext.preamble.tex"
       transform="matrix(2.782191,0,0,2.782191,-285.47973,126.17963)"
       id="g19851">
      <defs
         id="defs19853">
        <g
           id="g19855">
          <symbol
             style="overflow:visible"
             overflow="visible"
             id="symbol19857">
            <path
               inkscape:connector-curvature="0"
               style="stroke:none"
               d=""
               id="path19859" />
          </symbol>
          <symbol
             style="overflow:visible"
             overflow="visible"
             id="symbol19861">
            <path
               inkscape:connector-curvature="0"
               style="stroke:none"
               d="m 6.453125,-3.875 c 0,-0.296875 -0.21875,-0.515625 -0.515625,-0.515625 -0.234375,0 -0.390625,0.125 -0.390625,0.328125 0,0.140625 0.0625,0.21875 0.21875,0.359375 0.15625,0.15625 0.21875,0.25 0.21875,0.375 0,0.421875 -0.34375,0.953125 -1.640625,2.59375 L 4.015625,-4.25 C 4.015625,-4.359375 4,-4.390625 3.9375,-4.390625 c -0.046875,0 -0.078125,0.03125 -0.125,0.109375 L 1.890625,-1.25 C 1.859375,-2.140625 1.71875,-3.34375 1.578125,-4.0625 1.515625,-4.375 1.5,-4.390625 1.390625,-4.390625 0.875,-4.28125 0.15625,-4.15625 0.15625,-4.15625 l 0,0.125 0.296875,0 c 0.28125,0 0.359375,0.0625 0.4375,0.421875 C 1,-3.125 1.125,-1.96875 1.171875,-1.171875 l 0.03125,0.875 C 1.21875,0.09375 1.25,0.171875 1.328125,0.171875 1.453125,0.171875 2.5,-1.75 2.5,-1.75 L 3.375,-3.15625 3.703125,-0.125 C 3.71875,0.15625 3.734375,0.171875 3.8125,0.171875 3.890625,0.171875 4,0.078125 4.25,-0.25 L 4.34375,-0.359375 C 5.734375,-2.03125 6.453125,-3.234375 6.453125,-3.875 Z m 0,0"
               id="path19863" />
          </symbol>
          <symbol
             style="overflow:visible"
             overflow="visible"
             id="symbol19865">
            <path
               inkscape:connector-curvature="0"
               style="stroke:none"
               d=""
               id="path19867" />
          </symbol>
          <symbol
             style="overflow:visible"
             overflow="visible"
             id="symbol19869">
            <path
               inkscape:connector-curvature="0"
               style="stroke:none"
               d="M 2.9375,-7.140625 C 1.5,-6.203125 0.484375,-4.59375 0.484375,-2.5625 c 0,1.859375 1.046875,3.734375 2.421875,4.578125 l 0.125,-0.15625 C 1.71875,0.8125 1.328125,-0.390625 1.328125,-2.59375 1.328125,-4.8125 1.75,-5.953125 3.03125,-6.984375 Z m 0,0"
               id="path19871" />
          </symbol>
          <symbol
             style="overflow:visible"
             overflow="visible"
             id="symbol19873">
            <path
               inkscape:connector-curvature="0"
               style="stroke:none"
               d="m 0.375,-7.140625 -0.078125,0.15625 c 1.28125,1.03125 1.6875,2.171875 1.6875,4.390625 0,2.203125 -0.375,3.40625 -1.6875,4.453125 l 0.109375,0.15625 c 1.375,-0.84375 2.4375,-2.71875 2.4375,-4.578125 0,-2.03125 -1.015625,-3.640625 -2.46875,-4.578125 z m 0,0"
               id="path19875" />
          </symbol>
          <symbol
             style="overflow:visible"
             overflow="visible"
             id="symbol19877">
            <path
               inkscape:connector-curvature="0"
               style="stroke:none"
               d=""
               id="path19879" />
          </symbol>
          <symbol
             style="overflow:visible"
             overflow="visible"
             id="symbol19881">
            <path
               inkscape:connector-curvature="0"
               style="stroke:none"
               d="m 4.828125,0 0,-0.234375 C 4.671875,-0.296875 4.59375,-0.328125 4.53125,-0.4375 L 3.046875,-2.71875 4.0625,-3.96875 C 4.25,-4.203125 4.453125,-4.3125 4.75,-4.359375 l 0,-0.234375 -1.671875,0 0,0.234375 C 3.171875,-4.34375 3.25,-4.34375 3.28125,-4.34375 c 0.234375,0.015625 0.3125,0.078125 0.3125,0.234375 0,0.140625 -0.109375,0.3125 -0.390625,0.625 C 3.15625,-3.421875 3,-3.234375 2.84375,-3.015625 2.796875,-3.09375 2.75,-3.15625 2.71875,-3.1875 2.40625,-3.609375 2.140625,-4.03125 2.140625,-4.171875 c 0,-0.109375 0.140625,-0.171875 0.46875,-0.1875 l 0,-0.234375 -2.484375,0 0,0.234375 c 0.25,0.046875 0.3125,0.09375 0.515625,0.390625 L 1.90625,-2 c -0.28125,0.359375 -0.546875,0.6875 -0.640625,0.828125 -0.5625,0.75 -0.75,0.90625 -1.125,0.9375 l 0,0.234375 1.6875,0 0,-0.234375 c -0.359375,-0.03125 -0.5,-0.09375 -0.5,-0.25 0,-0.140625 0.25,-0.5625 0.640625,-1.015625 0.015625,-0.03125 0.078125,-0.109375 0.15625,-0.203125 l 0.421875,0.625 C 2.765625,-0.75 2.875,-0.5625 2.875,-0.4375 c 0,0.125 -0.140625,0.171875 -0.453125,0.203125 l 0,0.234375 z m 0,0"
               id="path19883" />
          </symbol>
          <symbol
             style="overflow:visible"
             overflow="visible"
             id="symbol19885">
            <path
               inkscape:connector-curvature="0"
               style="stroke:none"
               d=""
               id="path19887" />
          </symbol>
          <symbol
             style="overflow:visible"
             overflow="visible"
             id="symbol19889">
            <path
               inkscape:connector-curvature="0"
               style="stroke:none"
               d="M 1.9375,-0.75 1.828125,-0.828125 c -0.34375,0.40625 -0.515625,0.5625 -0.65625,0.5625 -0.078125,0 -0.140625,-0.046875 -0.140625,-0.109375 0,-0.109375 0.078125,-0.328125 0.109375,-0.46875 L 1.734375,-3.1875 1.78125,-3.203125 C 0.921875,-3.0625 0.75,-3.046875 0.421875,-3.015625 l 0,0.109375 c 0.4375,0 0.515625,0.03125 0.515625,0.171875 0,0.0625 -0.015625,0.1875 -0.0625,0.328125 L 0.546875,-1.125 c -0.109375,0.4375 -0.15625,0.640625 -0.15625,0.796875 0.015625,0.265625 0.15625,0.40625 0.40625,0.40625 0.390625,0 0.6875,-0.21875 1.140625,-0.828125 z m 0.21875,-3.53125 c 0,-0.203125 -0.1875,-0.390625 -0.421875,-0.390625 -0.21875,0 -0.390625,0.15625 -0.390625,0.390625 0.015625,0.234375 0.1875,0.375 0.421875,0.375 0.21875,0 0.40625,-0.171875 0.390625,-0.375 z m 0,0"
               id="path19891" />
          </symbol>
        </g>
      </defs>
      <g
         id="g19893"
         ns0:preamble="/Users/ignathanas/Documents/Contributions/Contact_1/AMA-stix/ama/figures/textext.preamble.tex"
         ns0:text="$w(||{\\boldsymbol{\\rm x}}_{\\rm t} - {\\boldsymbol{\\rm x}}_i||)$"
         transform="translate(-26.507002,12.205973)">
        <defs
           id="defs19895">
          <g
             id="g19897">
            <symbol
               id="symbol19899"
               overflow="visible"
               style="overflow:visible">
              <path
                 id="path19901"
                 d=""
                 style="stroke:none"
                 inkscape:connector-curvature="0" />
            </symbol>
            <symbol
               id="symbol19903"
               overflow="visible"
               style="overflow:visible">
              <path
                 id="path19905"
                 d="m 6.453125,-3.875 c 0,-0.296875 -0.21875,-0.515625 -0.515625,-0.515625 -0.234375,0 -0.390625,0.125 -0.390625,0.328125 0,0.140625 0.0625,0.21875 0.21875,0.359375 0.15625,0.15625 0.21875,0.25 0.21875,0.375 0,0.421875 -0.34375,0.953125 -1.640625,2.59375 L 4.015625,-4.25 C 4.015625,-4.359375 4,-4.390625 3.9375,-4.390625 c -0.046875,0 -0.078125,0.03125 -0.125,0.109375 L 1.890625,-1.25 C 1.859375,-2.140625 1.71875,-3.34375 1.578125,-4.0625 1.515625,-4.375 1.5,-4.390625 1.390625,-4.390625 0.875,-4.28125 0.15625,-4.15625 0.15625,-4.15625 l 0,0.125 0.296875,0 c 0.28125,0 0.359375,0.0625 0.4375,0.421875 C 1,-3.125 1.125,-1.96875 1.171875,-1.171875 l 0.03125,0.875 C 1.21875,0.09375 1.25,0.171875 1.328125,0.171875 1.453125,0.171875 2.5,-1.75 2.5,-1.75 L 3.375,-3.15625 3.703125,-0.125 C 3.71875,0.15625 3.734375,0.171875 3.8125,0.171875 3.890625,0.171875 4,0.078125 4.25,-0.25 L 4.34375,-0.359375 C 5.734375,-2.03125 6.453125,-3.234375 6.453125,-3.875 Z m 0,0"
                 style="stroke:none"
                 inkscape:connector-curvature="0" />
            </symbol>
            <symbol
               id="symbol19907"
               overflow="visible"
               style="overflow:visible">
              <path
                 id="path19909"
                 d=""
                 style="stroke:none"
                 inkscape:connector-curvature="0" />
            </symbol>
            <symbol
               id="symbol19911"
               overflow="visible"
               style="overflow:visible">
              <path
                 id="path19913"
                 d="M 2.9375,-7.140625 C 1.5,-6.203125 0.484375,-4.59375 0.484375,-2.5625 c 0,1.859375 1.046875,3.734375 2.421875,4.578125 l 0.125,-0.15625 C 1.71875,0.8125 1.328125,-0.390625 1.328125,-2.59375 1.328125,-4.8125 1.75,-5.953125 3.03125,-6.984375 Z m 0,0"
                 style="stroke:none"
                 inkscape:connector-curvature="0" />
            </symbol>
            <symbol
               id="symbol19915"
               overflow="visible"
               style="overflow:visible">
              <path
                 id="path19917"
                 d="m 1.28125,1.921875 0,-8.96875 -0.5625,0 0,8.96875 z m 0,0"
                 style="stroke:none"
                 inkscape:connector-curvature="0" />
            </symbol>
            <symbol
               id="symbol19919"
               overflow="visible"
               style="overflow:visible">
              <path
                 id="path19921"
                 d="m 5.71875,-2.28125 0,-0.5625 -5.09375,0 0,0.5625 z m 0,0"
                 style="stroke:none"
                 inkscape:connector-curvature="0" />
            </symbol>
            <symbol
               id="symbol19923"
               overflow="visible"
               style="overflow:visible">
              <path
                 id="path19925"
                 d="m 0.375,-7.140625 -0.078125,0.15625 c 1.28125,1.03125 1.6875,2.171875 1.6875,4.390625 0,2.203125 -0.375,3.40625 -1.6875,4.453125 l 0.109375,0.15625 c 1.375,-0.84375 2.4375,-2.71875 2.4375,-4.578125 0,-2.03125 -1.015625,-3.640625 -2.46875,-4.578125 z m 0,0"
                 style="stroke:none"
                 inkscape:connector-curvature="0" />
            </symbol>
            <symbol
               id="symbol19927"
               overflow="visible"
               style="overflow:visible">
              <path
                 id="path19929"
                 d=""
                 style="stroke:none"
                 inkscape:connector-curvature="0" />
            </symbol>
            <symbol
               id="symbol19931"
               overflow="visible"
               style="overflow:visible">
              <path
                 id="path19933"
                 d="m 4.828125,0 0,-0.234375 C 4.671875,-0.296875 4.59375,-0.328125 4.53125,-0.4375 L 3.046875,-2.71875 4.0625,-3.96875 C 4.25,-4.203125 4.453125,-4.3125 4.75,-4.359375 l 0,-0.234375 -1.671875,0 0,0.234375 C 3.171875,-4.34375 3.25,-4.34375 3.28125,-4.34375 c 0.234375,0.015625 0.3125,0.078125 0.3125,0.234375 0,0.140625 -0.109375,0.3125 -0.390625,0.625 C 3.15625,-3.421875 3,-3.234375 2.84375,-3.015625 2.796875,-3.09375 2.75,-3.15625 2.71875,-3.1875 2.40625,-3.609375 2.140625,-4.03125 2.140625,-4.171875 c 0,-0.109375 0.140625,-0.171875 0.46875,-0.1875 l 0,-0.234375 -2.484375,0 0,0.234375 c 0.25,0.046875 0.3125,0.09375 0.515625,0.390625 L 1.90625,-2 c -0.28125,0.359375 -0.546875,0.6875 -0.640625,0.828125 -0.5625,0.75 -0.75,0.90625 -1.125,0.9375 l 0,0.234375 1.6875,0 0,-0.234375 c -0.359375,-0.03125 -0.5,-0.09375 -0.5,-0.25 0,-0.140625 0.25,-0.5625 0.640625,-1.015625 0.015625,-0.03125 0.078125,-0.109375 0.15625,-0.203125 l 0.421875,0.625 C 2.765625,-0.75 2.875,-0.5625 2.875,-0.4375 c 0,0.125 -0.140625,0.171875 -0.453125,0.203125 l 0,0.234375 z m 0,0"
                 style="stroke:none"
                 inkscape:connector-curvature="0" />
            </symbol>
            <symbol
               id="symbol19935"
               overflow="visible"
               style="overflow:visible">
              <path
                 id="path19937"
                 d=""
                 style="stroke:none"
                 inkscape:connector-curvature="0" />
            </symbol>
            <symbol
               id="symbol19939"
               overflow="visible"
               style="overflow:visible">
              <path
                 id="path19941"
                 d="M 2.03125,-0.484375 1.9375,-0.5625 c -0.171875,0.1875 -0.28125,0.25 -0.4375,0.25 -0.265625,0 -0.375,-0.1875 -0.375,-0.640625 l 0,-2.078125 0.734375,0 0,-0.234375 -0.734375,0 0,-0.84375 C 1.125,-4.1875 1.109375,-4.203125 1.0625,-4.203125 1.03125,-4.140625 0.96875,-4.0625 0.921875,-4 0.65625,-3.609375 0.40625,-3.328125 0.21875,-3.21875 c -0.078125,0.046875 -0.125,0.09375 -0.125,0.125 0,0.03125 0.015625,0.046875 0.03125,0.0625 l 0.390625,0 0,2.1875 c 0,0.609375 0.203125,0.921875 0.625,0.921875 0.375,0 0.640625,-0.1875 0.890625,-0.5625 z m 0,0"
                 style="stroke:none"
                 inkscape:connector-curvature="0" />
            </symbol>
            <symbol
               id="symbol19943"
               overflow="visible"
               style="overflow:visible">
              <path
                 id="path19945"
                 d=""
                 style="stroke:none"
                 inkscape:connector-curvature="0" />
            </symbol>
            <symbol
               id="symbol19947"
               overflow="visible"
               style="overflow:visible">
              <path
                 id="path19949"
                 d="M 1.9375,-0.75 1.828125,-0.828125 c -0.34375,0.40625 -0.515625,0.5625 -0.65625,0.5625 -0.078125,0 -0.140625,-0.046875 -0.140625,-0.109375 0,-0.109375 0.078125,-0.328125 0.109375,-0.46875 L 1.734375,-3.1875 1.78125,-3.203125 C 0.921875,-3.0625 0.75,-3.046875 0.421875,-3.015625 l 0,0.109375 c 0.4375,0 0.515625,0.03125 0.515625,0.171875 0,0.0625 -0.015625,0.1875 -0.0625,0.328125 L 0.546875,-1.125 c -0.109375,0.4375 -0.15625,0.640625 -0.15625,0.796875 0.015625,0.265625 0.15625,0.40625 0.40625,0.40625 0.390625,0 0.6875,-0.21875 1.140625,-0.828125 z m 0.21875,-3.53125 c 0,-0.203125 -0.1875,-0.390625 -0.421875,-0.390625 -0.21875,0 -0.390625,0.15625 -0.390625,0.390625 0.015625,0.234375 0.1875,0.375 0.421875,0.375 0.21875,0 0.40625,-0.171875 0.390625,-0.375 z m 0,0"
                 style="stroke:none"
                 inkscape:connector-curvature="0" />
            </symbol>
          </g>
        </defs>
        <g
           id="g19951">
          <g
             id="g19953"
             style="fill:#000000;fill-opacity:1">
            <g
               id="g19955"
               transform="translate(223.562,134.765)">
              <path
                 id="path19957"
                 d="m 6.453125,-3.875 c 0,-0.296875 -0.21875,-0.515625 -0.515625,-0.515625 -0.234375,0 -0.390625,0.125 -0.390625,0.328125 0,0.140625 0.0625,0.21875 0.21875,0.359375 0.15625,0.15625 0.21875,0.25 0.21875,0.375 0,0.421875 -0.34375,0.953125 -1.640625,2.59375 L 4.015625,-4.25 C 4.015625,-4.359375 4,-4.390625 3.9375,-4.390625 c -0.046875,0 -0.078125,0.03125 -0.125,0.109375 L 1.890625,-1.25 C 1.859375,-2.140625 1.71875,-3.34375 1.578125,-4.0625 1.515625,-4.375 1.5,-4.390625 1.390625,-4.390625 0.875,-4.28125 0.15625,-4.15625 0.15625,-4.15625 l 0,0.125 0.296875,0 c 0.28125,0 0.359375,0.0625 0.4375,0.421875 C 1,-3.125 1.125,-1.96875 1.171875,-1.171875 l 0.03125,0.875 C 1.21875,0.09375 1.25,0.171875 1.328125,0.171875 1.453125,0.171875 2.5,-1.75 2.5,-1.75 L 3.375,-3.15625 3.703125,-0.125 C 3.71875,0.15625 3.734375,0.171875 3.8125,0.171875 3.890625,0.171875 4,0.078125 4.25,-0.25 L 4.34375,-0.359375 C 5.734375,-2.03125 6.453125,-3.234375 6.453125,-3.875 Z m 0,0"
                 style="stroke:none"
                 inkscape:connector-curvature="0" />
            </g>
          </g>
          <g
             id="g19959"
             style="fill:#000000;fill-opacity:1">
            <g
               id="g19961"
               transform="translate(230.535,134.765)">
              <path
                 id="path19963"
                 d="M 2.9375,-7.140625 C 1.5,-6.203125 0.484375,-4.59375 0.484375,-2.5625 c 0,1.859375 1.046875,3.734375 2.421875,4.578125 l 0.125,-0.15625 C 1.71875,0.8125 1.328125,-0.390625 1.328125,-2.59375 1.328125,-4.8125 1.75,-5.953125 3.03125,-6.984375 Z m 0,0"
                 style="stroke:none"
                 inkscape:connector-curvature="0" />
            </g>
          </g>
          <g
             id="g19965"
             style="fill:#000000;fill-opacity:1">
            <g
               id="g19967"
               transform="translate(234.25105,134.765)">
              <path
                 id="path19969"
                 d="m 1.28125,1.921875 0,-8.96875 -0.5625,0 0,8.96875 z m 0,0"
                 style="stroke:none"
                 inkscape:connector-curvature="0" />
            </g>
          </g>
          <g
             id="g19971"
             style="fill:#000000;fill-opacity:1">
            <g
               id="g19973"
               transform="translate(237.04057,134.765)">
              <path
                 id="path19975"
                 d="m 1.28125,1.921875 0,-8.96875 -0.5625,0 0,8.96875 z m 0,0"
                 style="stroke:none"
                 inkscape:connector-curvature="0" />
            </g>
          </g>
          <g
             id="g19977"
             style="fill:#000000;fill-opacity:1">
            <g
               id="g19979"
               transform="translate(239.43201,134.765)">
              <path
                 id="path19981"
                 d="m 4.828125,0 0,-0.234375 C 4.671875,-0.296875 4.59375,-0.328125 4.53125,-0.4375 L 3.046875,-2.71875 4.0625,-3.96875 C 4.25,-4.203125 4.453125,-4.3125 4.75,-4.359375 l 0,-0.234375 -1.671875,0 0,0.234375 C 3.171875,-4.34375 3.25,-4.34375 3.28125,-4.34375 c 0.234375,0.015625 0.3125,0.078125 0.3125,0.234375 0,0.140625 -0.109375,0.3125 -0.390625,0.625 C 3.15625,-3.421875 3,-3.234375 2.84375,-3.015625 2.796875,-3.09375 2.75,-3.15625 2.71875,-3.1875 2.40625,-3.609375 2.140625,-4.03125 2.140625,-4.171875 c 0,-0.109375 0.140625,-0.171875 0.46875,-0.1875 l 0,-0.234375 -2.484375,0 0,0.234375 c 0.25,0.046875 0.3125,0.09375 0.515625,0.390625 L 1.90625,-2 c -0.28125,0.359375 -0.546875,0.6875 -0.640625,0.828125 -0.5625,0.75 -0.75,0.90625 -1.125,0.9375 l 0,0.234375 1.6875,0 0,-0.234375 c -0.359375,-0.03125 -0.5,-0.09375 -0.5,-0.25 0,-0.140625 0.25,-0.5625 0.640625,-1.015625 0.015625,-0.03125 0.078125,-0.109375 0.15625,-0.203125 l 0.421875,0.625 C 2.765625,-0.75 2.875,-0.5625 2.875,-0.4375 c 0,0.125 -0.140625,0.171875 -0.453125,0.203125 l 0,0.234375 z m 0,0"
                 style="stroke:none"
                 inkscape:connector-curvature="0" />
            </g>
          </g>
          <g
             id="g19983"
             style="fill:#000000;fill-opacity:1">
            <g
               id="g19985"
               transform="translate(244.41299,136.259)">
              <path
                 id="path19987"
                 d="M 2.03125,-0.484375 1.9375,-0.5625 c -0.171875,0.1875 -0.28125,0.25 -0.4375,0.25 -0.265625,0 -0.375,-0.1875 -0.375,-0.640625 l 0,-2.078125 0.734375,0 0,-0.234375 -0.734375,0 0,-0.84375 C 1.125,-4.1875 1.109375,-4.203125 1.0625,-4.203125 1.03125,-4.140625 0.96875,-4.0625 0.921875,-4 0.65625,-3.609375 0.40625,-3.328125 0.21875,-3.21875 c -0.078125,0.046875 -0.125,0.09375 -0.125,0.125 0,0.03125 0.015625,0.046875 0.03125,0.0625 l 0.390625,0 0,2.1875 c 0,0.609375 0.203125,0.921875 0.625,0.921875 0.375,0 0.640625,-0.1875 0.890625,-0.5625 z m 0,0"
                 style="stroke:none"
                 inkscape:connector-curvature="0" />
            </g>
          </g>
          <g
             id="g19989"
             style="fill:#000000;fill-opacity:1">
            <g
               id="g19991"
               transform="translate(249.15401,134.765)">
              <path
                 id="path19993"
                 d="m 5.71875,-2.28125 0,-0.5625 -5.09375,0 0,0.5625 z m 0,0"
                 style="stroke:none"
                 inkscape:connector-curvature="0" />
            </g>
          </g>
          <g
             id="g19995"
             style="fill:#000000;fill-opacity:1">
            <g
               id="g19997"
               transform="translate(257.70499,134.765)">
              <path
                 id="path19999"
                 d="m 4.828125,0 0,-0.234375 C 4.671875,-0.296875 4.59375,-0.328125 4.53125,-0.4375 L 3.046875,-2.71875 4.0625,-3.96875 C 4.25,-4.203125 4.453125,-4.3125 4.75,-4.359375 l 0,-0.234375 -1.671875,0 0,0.234375 C 3.171875,-4.34375 3.25,-4.34375 3.28125,-4.34375 c 0.234375,0.015625 0.3125,0.078125 0.3125,0.234375 0,0.140625 -0.109375,0.3125 -0.390625,0.625 C 3.15625,-3.421875 3,-3.234375 2.84375,-3.015625 2.796875,-3.09375 2.75,-3.15625 2.71875,-3.1875 2.40625,-3.609375 2.140625,-4.03125 2.140625,-4.171875 c 0,-0.109375 0.140625,-0.171875 0.46875,-0.1875 l 0,-0.234375 -2.484375,0 0,0.234375 c 0.25,0.046875 0.3125,0.09375 0.515625,0.390625 L 1.90625,-2 c -0.28125,0.359375 -0.546875,0.6875 -0.640625,0.828125 -0.5625,0.75 -0.75,0.90625 -1.125,0.9375 l 0,0.234375 1.6875,0 0,-0.234375 c -0.359375,-0.03125 -0.5,-0.09375 -0.5,-0.25 0,-0.140625 0.25,-0.5625 0.640625,-1.015625 0.015625,-0.03125 0.078125,-0.109375 0.15625,-0.203125 l 0.421875,0.625 C 2.765625,-0.75 2.875,-0.5625 2.875,-0.4375 c 0,0.125 -0.140625,0.171875 -0.453125,0.203125 l 0,0.234375 z m 0,0"
                 style="stroke:none"
                 inkscape:connector-curvature="0" />
            </g>
          </g>
          <g
             id="g20001"
             style="fill:#000000;fill-opacity:1">
            <g
               id="g20003"
               transform="translate(262.686,136.259)">
              <path
                 id="path20005"
                 d="M 1.9375,-0.75 1.828125,-0.828125 c -0.34375,0.40625 -0.515625,0.5625 -0.65625,0.5625 -0.078125,0 -0.140625,-0.046875 -0.140625,-0.109375 0,-0.109375 0.078125,-0.328125 0.109375,-0.46875 L 1.734375,-3.1875 1.78125,-3.203125 C 0.921875,-3.0625 0.75,-3.046875 0.421875,-3.015625 l 0,0.109375 c 0.4375,0 0.515625,0.03125 0.515625,0.171875 0,0.0625 -0.015625,0.1875 -0.0625,0.328125 L 0.546875,-1.125 c -0.109375,0.4375 -0.15625,0.640625 -0.15625,0.796875 0.015625,0.265625 0.15625,0.40625 0.40625,0.40625 0.390625,0 0.6875,-0.21875 1.140625,-0.828125 z m 0.21875,-3.53125 c 0,-0.203125 -0.1875,-0.390625 -0.421875,-0.390625 -0.21875,0 -0.390625,0.15625 -0.390625,0.390625 0.015625,0.234375 0.1875,0.375 0.421875,0.375 0.21875,0 0.40625,-0.171875 0.390625,-0.375 z m 0,0"
                 style="stroke:none"
                 inkscape:connector-curvature="0" />
            </g>
          </g>
          <g
             id="g20007"
             style="fill:#000000;fill-opacity:1">
            <g
               id="g20009"
               transform="translate(266.20099,134.765)">
              <path
                 id="path20011"
                 d="m 1.28125,1.921875 0,-8.96875 -0.5625,0 0,8.96875 z m 0,0"
                 style="stroke:none"
                 inkscape:connector-curvature="0" />
            </g>
          </g>
          <g
             id="g20013"
             style="fill:#000000;fill-opacity:1">
            <g
               id="g20015"
               transform="translate(268.99054,134.765)">
              <path
                 id="path20017"
                 d="m 1.28125,1.921875 0,-8.96875 -0.5625,0 0,8.96875 z m 0,0"
                 style="stroke:none"
                 inkscape:connector-curvature="0" />
            </g>
          </g>
          <g
             id="g20019"
             style="fill:#000000;fill-opacity:1">
            <g
               id="g20021"
               transform="translate(271.38156,134.765)">
              <path
                 id="path20023"
                 d="m 0.375,-7.140625 -0.078125,0.15625 c 1.28125,1.03125 1.6875,2.171875 1.6875,4.390625 0,2.203125 -0.375,3.40625 -1.6875,4.453125 l 0.109375,0.15625 c 1.375,-0.84375 2.4375,-2.71875 2.4375,-4.578125 0,-2.03125 -1.015625,-3.640625 -2.46875,-4.578125 z m 0,0"
                 style="stroke:none"
                 inkscape:connector-curvature="0" />
            </g>
          </g>
        </g>
      </g>
    </g>
    <g
       ns0:text="${\\boldsymbol {\\rm x}}_i$"
       ns0:preamble="/Users/ignathanas/Documents/Contributions/Contact_1/AMA-stix/ama/figures/textext.preamble.tex"
       transform="matrix(2.782191,0,0,2.782191,-103.42051,246.32149)"
       id="g20025">
      <defs
         id="defs20027">
        <g
           id="g20029">
          <symbol
             style="overflow:visible"
             overflow="visible"
             id="symbol20031">
            <path
               inkscape:connector-curvature="0"
               style="stroke:none"
               d=""
               id="path20033" />
          </symbol>
          <symbol
             style="overflow:visible"
             overflow="visible"
             id="symbol20035">
            <path
               inkscape:connector-curvature="0"
               style="stroke:none"
               d="m 4.828125,0 0,-0.234375 C 4.671875,-0.296875 4.59375,-0.328125 4.53125,-0.4375 L 3.046875,-2.71875 4.0625,-3.96875 C 4.25,-4.203125 4.453125,-4.3125 4.75,-4.359375 l 0,-0.234375 -1.671875,0 0,0.234375 C 3.171875,-4.34375 3.25,-4.34375 3.28125,-4.34375 c 0.234375,0.015625 0.3125,0.078125 0.3125,0.234375 0,0.140625 -0.109375,0.3125 -0.390625,0.625 C 3.15625,-3.421875 3,-3.234375 2.84375,-3.015625 2.796875,-3.09375 2.75,-3.15625 2.71875,-3.1875 2.40625,-3.609375 2.140625,-4.03125 2.140625,-4.171875 c 0,-0.109375 0.140625,-0.171875 0.46875,-0.1875 l 0,-0.234375 -2.484375,0 0,0.234375 c 0.25,0.046875 0.3125,0.09375 0.515625,0.390625 L 1.90625,-2 c -0.28125,0.359375 -0.546875,0.6875 -0.640625,0.828125 -0.5625,0.75 -0.75,0.90625 -1.125,0.9375 l 0,0.234375 1.6875,0 0,-0.234375 c -0.359375,-0.03125 -0.5,-0.09375 -0.5,-0.25 0,-0.140625 0.25,-0.5625 0.640625,-1.015625 0.015625,-0.03125 0.078125,-0.109375 0.15625,-0.203125 l 0.421875,0.625 C 2.765625,-0.75 2.875,-0.5625 2.875,-0.4375 c 0,0.125 -0.140625,0.171875 -0.453125,0.203125 l 0,0.234375 z m 0,0"
               id="path20037" />
          </symbol>
          <symbol
             style="overflow:visible"
             overflow="visible"
             id="symbol20039">
            <path
               inkscape:connector-curvature="0"
               style="stroke:none"
               d=""
               id="path20041" />
          </symbol>
          <symbol
             style="overflow:visible"
             overflow="visible"
             id="symbol20043">
            <path
               inkscape:connector-curvature="0"
               style="stroke:none"
               d="M 1.9375,-0.75 1.828125,-0.828125 c -0.34375,0.40625 -0.515625,0.5625 -0.65625,0.5625 -0.078125,0 -0.140625,-0.046875 -0.140625,-0.109375 0,-0.109375 0.078125,-0.328125 0.109375,-0.46875 L 1.734375,-3.1875 1.78125,-3.203125 C 0.921875,-3.0625 0.75,-3.046875 0.421875,-3.015625 l 0,0.109375 c 0.4375,0 0.515625,0.03125 0.515625,0.171875 0,0.0625 -0.015625,0.1875 -0.0625,0.328125 L 0.546875,-1.125 c -0.109375,0.4375 -0.15625,0.640625 -0.15625,0.796875 0.015625,0.265625 0.15625,0.40625 0.40625,0.40625 0.390625,0 0.6875,-0.21875 1.140625,-0.828125 z m 0.21875,-3.53125 c 0,-0.203125 -0.1875,-0.390625 -0.421875,-0.390625 -0.21875,0 -0.390625,0.15625 -0.390625,0.390625 0.015625,0.234375 0.1875,0.375 0.421875,0.375 0.21875,0 0.40625,-0.171875 0.390625,-0.375 z m 0,0"
               id="path20045" />
          </symbol>
        </g>
      </defs>
      <g
         id="g20047">
        <g
           style="fill:#000000;fill-opacity:1"
           id="g20049">
          <g
             transform="translate(223.43201,134.765)"
             id="g20051">
            <path
               inkscape:connector-curvature="0"
               style="stroke:none"
               d="m 4.828125,0 0,-0.234375 C 4.671875,-0.296875 4.59375,-0.328125 4.53125,-0.4375 L 3.046875,-2.71875 4.0625,-3.96875 C 4.25,-4.203125 4.453125,-4.3125 4.75,-4.359375 l 0,-0.234375 -1.671875,0 0,0.234375 C 3.171875,-4.34375 3.25,-4.34375 3.28125,-4.34375 c 0.234375,0.015625 0.3125,0.078125 0.3125,0.234375 0,0.140625 -0.109375,0.3125 -0.390625,0.625 C 3.15625,-3.421875 3,-3.234375 2.84375,-3.015625 2.796875,-3.09375 2.75,-3.15625 2.71875,-3.1875 2.40625,-3.609375 2.140625,-4.03125 2.140625,-4.171875 c 0,-0.109375 0.140625,-0.171875 0.46875,-0.1875 l 0,-0.234375 -2.484375,0 0,0.234375 c 0.25,0.046875 0.3125,0.09375 0.515625,0.390625 L 1.90625,-2 c -0.28125,0.359375 -0.546875,0.6875 -0.640625,0.828125 -0.5625,0.75 -0.75,0.90625 -1.125,0.9375 l 0,0.234375 1.6875,0 0,-0.234375 c -0.359375,-0.03125 -0.5,-0.09375 -0.5,-0.25 0,-0.140625 0.25,-0.5625 0.640625,-1.015625 0.015625,-0.03125 0.078125,-0.109375 0.15625,-0.203125 l 0.421875,0.625 C 2.765625,-0.75 2.875,-0.5625 2.875,-0.4375 c 0,0.125 -0.140625,0.171875 -0.453125,0.203125 l 0,0.234375 z m 0,0"
               id="path20053" />
          </g>
        </g>
        <g
           style="fill:#000000;fill-opacity:1"
           id="g20055">
          <g
             transform="translate(228.41299,136.259)"
             id="g20057">
            <path
               inkscape:connector-curvature="0"
               style="stroke:none"
               d="M 1.9375,-0.75 1.828125,-0.828125 c -0.34375,0.40625 -0.515625,0.5625 -0.65625,0.5625 -0.078125,0 -0.140625,-0.046875 -0.140625,-0.109375 0,-0.109375 0.078125,-0.328125 0.109375,-0.46875 L 1.734375,-3.1875 1.78125,-3.203125 C 0.921875,-3.0625 0.75,-3.046875 0.421875,-3.015625 l 0,0.109375 c 0.4375,0 0.515625,0.03125 0.515625,0.171875 0,0.0625 -0.015625,0.1875 -0.0625,0.328125 L 0.546875,-1.125 c -0.109375,0.4375 -0.15625,0.640625 -0.15625,0.796875 0.015625,0.265625 0.15625,0.40625 0.40625,0.40625 0.390625,0 0.6875,-0.21875 1.140625,-0.828125 z m 0.21875,-3.53125 c 0,-0.203125 -0.1875,-0.390625 -0.421875,-0.390625 -0.21875,0 -0.390625,0.15625 -0.390625,0.390625 0.015625,0.234375 0.1875,0.375 0.421875,0.375 0.21875,0 0.40625,-0.171875 0.390625,-0.375 z m 0,0"
               id="path20059" />
          </g>
        </g>
      </g>
    </g>
    <path
       sodipodi:nodetypes="cc"
       inkscape:connector-curvature="0"
       id="path20061"
       d="m 389.55598,589.40048 13.89696,6.02762"
       style="fill:none;stroke:#000000;stroke-width:0.48459733px;stroke-linecap:butt;stroke-linejoin:miter;stroke-opacity:1" />
    <path
       sodipodi:nodetypes="cc"
       inkscape:connector-curvature="0"
       id="path20063"
       d="m 489.14516,606.10715 29.35607,10.84275"
       style="fill:none;stroke:#000000;stroke-width:0.48459733px;stroke-linecap:butt;stroke-linejoin:miter;stroke-opacity:1" />
    <g
       id="g20065"
       transform="matrix(2.782191,0,0,2.782191,-250.38396,217.23212)"
       ns0:preamble="/Users/ignathanas/Documents/Contributions/Contact_1/AMA-stix/ama/figures/textext.preamble.tex"
       ns0:text="${\\boldsymbol {\\rm x}}_{\\rm t}$">
      <defs
         id="defs20067">
        <g
           id="g20069">
          <symbol
             id="symbol20071"
             overflow="visible"
             style="overflow:visible">
            <path
               id="path20073"
               d=""
               style="stroke:none"
               inkscape:connector-curvature="0" />
          </symbol>
          <symbol
             id="symbol20075"
             overflow="visible"
             style="overflow:visible">
            <path
               id="path20077"
               d="m 4.828125,0 0,-0.234375 C 4.671875,-0.296875 4.59375,-0.328125 4.53125,-0.4375 L 3.046875,-2.71875 4.0625,-3.96875 C 4.25,-4.203125 4.453125,-4.3125 4.75,-4.359375 l 0,-0.234375 -1.671875,0 0,0.234375 C 3.171875,-4.34375 3.25,-4.34375 3.28125,-4.34375 c 0.234375,0.015625 0.3125,0.078125 0.3125,0.234375 0,0.140625 -0.109375,0.3125 -0.390625,0.625 C 3.15625,-3.421875 3,-3.234375 2.84375,-3.015625 2.796875,-3.09375 2.75,-3.15625 2.71875,-3.1875 2.40625,-3.609375 2.140625,-4.03125 2.140625,-4.171875 c 0,-0.109375 0.140625,-0.171875 0.46875,-0.1875 l 0,-0.234375 -2.484375,0 0,0.234375 c 0.25,0.046875 0.3125,0.09375 0.515625,0.390625 L 1.90625,-2 c -0.28125,0.359375 -0.546875,0.6875 -0.640625,0.828125 -0.5625,0.75 -0.75,0.90625 -1.125,0.9375 l 0,0.234375 1.6875,0 0,-0.234375 c -0.359375,-0.03125 -0.5,-0.09375 -0.5,-0.25 0,-0.140625 0.25,-0.5625 0.640625,-1.015625 0.015625,-0.03125 0.078125,-0.109375 0.15625,-0.203125 l 0.421875,0.625 C 2.765625,-0.75 2.875,-0.5625 2.875,-0.4375 c 0,0.125 -0.140625,0.171875 -0.453125,0.203125 l 0,0.234375 z m 0,0"
               style="stroke:none"
               inkscape:connector-curvature="0" />
          </symbol>
          <symbol
             id="symbol20079"
             overflow="visible"
             style="overflow:visible">
            <path
               id="path20081"
               d=""
               style="stroke:none"
               inkscape:connector-curvature="0" />
          </symbol>
          <symbol
             id="symbol20083"
             overflow="visible"
             style="overflow:visible">
            <path
               id="path20085"
               d="M 2.03125,-0.484375 1.9375,-0.5625 c -0.171875,0.1875 -0.28125,0.25 -0.4375,0.25 -0.265625,0 -0.375,-0.1875 -0.375,-0.640625 l 0,-2.078125 0.734375,0 0,-0.234375 -0.734375,0 0,-0.84375 C 1.125,-4.1875 1.109375,-4.203125 1.0625,-4.203125 1.03125,-4.140625 0.96875,-4.0625 0.921875,-4 0.65625,-3.609375 0.40625,-3.328125 0.21875,-3.21875 c -0.078125,0.046875 -0.125,0.09375 -0.125,0.125 0,0.03125 0.015625,0.046875 0.03125,0.0625 l 0.390625,0 0,2.1875 c 0,0.609375 0.203125,0.921875 0.625,0.921875 0.375,0 0.640625,-0.1875 0.890625,-0.5625 z m 0,0"
               style="stroke:none"
               inkscape:connector-curvature="0" />
          </symbol>
        </g>
      </defs>
      <g
         id="g20087">
        <g
           id="g20089"
           style="fill:#000000;fill-opacity:1">
          <g
             transform="translate(223.43201,134.765)"
             id="g20091">
            <path
               id="path20093"
               d="m 4.828125,0 0,-0.234375 C 4.671875,-0.296875 4.59375,-0.328125 4.53125,-0.4375 L 3.046875,-2.71875 4.0625,-3.96875 C 4.25,-4.203125 4.453125,-4.3125 4.75,-4.359375 l 0,-0.234375 -1.671875,0 0,0.234375 C 3.171875,-4.34375 3.25,-4.34375 3.28125,-4.34375 c 0.234375,0.015625 0.3125,0.078125 0.3125,0.234375 0,0.140625 -0.109375,0.3125 -0.390625,0.625 C 3.15625,-3.421875 3,-3.234375 2.84375,-3.015625 2.796875,-3.09375 2.75,-3.15625 2.71875,-3.1875 2.40625,-3.609375 2.140625,-4.03125 2.140625,-4.171875 c 0,-0.109375 0.140625,-0.171875 0.46875,-0.1875 l 0,-0.234375 -2.484375,0 0,0.234375 c 0.25,0.046875 0.3125,0.09375 0.515625,0.390625 L 1.90625,-2 c -0.28125,0.359375 -0.546875,0.6875 -0.640625,0.828125 -0.5625,0.75 -0.75,0.90625 -1.125,0.9375 l 0,0.234375 1.6875,0 0,-0.234375 c -0.359375,-0.03125 -0.5,-0.09375 -0.5,-0.25 0,-0.140625 0.25,-0.5625 0.640625,-1.015625 0.015625,-0.03125 0.078125,-0.109375 0.15625,-0.203125 l 0.421875,0.625 C 2.765625,-0.75 2.875,-0.5625 2.875,-0.4375 c 0,0.125 -0.140625,0.171875 -0.453125,0.203125 l 0,0.234375 z m 0,0"
               style="stroke:none"
               inkscape:connector-curvature="0" />
          </g>
        </g>
        <g
           id="g20095"
           style="fill:#000000;fill-opacity:1">
          <g
             transform="translate(228.41299,136.259)"
             id="g20097">
            <path
               id="path20099"
               d="M 2.03125,-0.484375 1.9375,-0.5625 c -0.171875,0.1875 -0.28125,0.25 -0.4375,0.25 -0.265625,0 -0.375,-0.1875 -0.375,-0.640625 l 0,-2.078125 0.734375,0 0,-0.234375 -0.734375,0 0,-0.84375 C 1.125,-4.1875 1.109375,-4.203125 1.0625,-4.203125 1.03125,-4.140625 0.96875,-4.0625 0.921875,-4 0.65625,-3.609375 0.40625,-3.328125 0.21875,-3.21875 c -0.078125,0.046875 -0.125,0.09375 -0.125,0.125 0,0.03125 0.015625,0.046875 0.03125,0.0625 l 0.390625,0 0,2.1875 c 0,0.609375 0.203125,0.921875 0.625,0.921875 0.375,0 0.640625,-0.1875 0.890625,-0.5625 z m 0,0"
               style="stroke:none"
               inkscape:connector-curvature="0" />
          </g>
        </g>
      </g>
    </g>
    <path
       style="fill:none;stroke:#000000;stroke-width:0.35479918px;stroke-linecap:butt;stroke-linejoin:miter;stroke-opacity:1"
       d="m 503.8536,464.86317 -39.02791,13.17826"
       id="path20101"
       inkscape:connector-curvature="0" />
    <g
       ns0:text="$w_{\\rm r}$"
       ns0:preamble="/Users/ignathanas/Documents/Contributions/Contact_1/AMA-stix/ama/figures/textext.preamble.tex"
       transform="matrix(2.782191,0,0,2.782191,-123.55728,88.187839)"
       id="g20103">
      <defs
         id="defs20105">
        <g
           id="g20107">
          <symbol
             style="overflow:visible"
             overflow="visible"
             id="symbol20109">
            <path
               inkscape:connector-curvature="0"
               style="stroke:none"
               d=""
               id="path20111" />
          </symbol>
          <symbol
             style="overflow:visible"
             overflow="visible"
             id="symbol20113">
            <path
               inkscape:connector-curvature="0"
               style="stroke:none"
               d="m 6.453125,-3.875 c 0,-0.296875 -0.21875,-0.515625 -0.515625,-0.515625 -0.234375,0 -0.390625,0.125 -0.390625,0.328125 0,0.140625 0.0625,0.21875 0.21875,0.359375 0.15625,0.15625 0.21875,0.25 0.21875,0.375 0,0.421875 -0.34375,0.953125 -1.640625,2.59375 L 4.015625,-4.25 C 4.015625,-4.359375 4,-4.390625 3.9375,-4.390625 c -0.046875,0 -0.078125,0.03125 -0.125,0.109375 L 1.890625,-1.25 C 1.859375,-2.140625 1.71875,-3.34375 1.578125,-4.0625 1.515625,-4.375 1.5,-4.390625 1.390625,-4.390625 0.875,-4.28125 0.15625,-4.15625 0.15625,-4.15625 l 0,0.125 0.296875,0 c 0.28125,0 0.359375,0.0625 0.4375,0.421875 C 1,-3.125 1.125,-1.96875 1.171875,-1.171875 l 0.03125,0.875 C 1.21875,0.09375 1.25,0.171875 1.328125,0.171875 1.453125,0.171875 2.5,-1.75 2.5,-1.75 L 3.375,-3.15625 3.703125,-0.125 C 3.71875,0.15625 3.734375,0.171875 3.8125,0.171875 3.890625,0.171875 4,0.078125 4.25,-0.25 L 4.34375,-0.359375 C 5.734375,-2.03125 6.453125,-3.234375 6.453125,-3.875 Z m 0,0"
               id="path20115" />
          </symbol>
          <symbol
             style="overflow:visible"
             overflow="visible"
             id="symbol20117">
            <path
               inkscape:connector-curvature="0"
               style="stroke:none"
               d=""
               id="path20119" />
          </symbol>
          <symbol
             style="overflow:visible"
             overflow="visible"
             id="symbol20121">
            <path
               inkscape:connector-curvature="0"
               style="stroke:none"
               d="m 2.4375,-2.953125 c 0,-0.25 -0.15625,-0.390625 -0.40625,-0.390625 -0.296875,0 -0.515625,0.171875 -0.875,0.6875 l 0,-0.671875 L 1.125,-3.34375 c -0.390625,0.15625 -0.640625,0.25 -1.078125,0.390625 l 0,0.125 c 0.109375,-0.03125 0.171875,-0.03125 0.265625,-0.03125 0.171875,0 0.234375,0.109375 0.234375,0.4375 l 0,1.8125 c 0,0.359375 -0.046875,0.40625 -0.515625,0.5 l 0,0.109375 1.75,0 0,-0.109375 c -0.5,-0.015625 -0.625,-0.125 -0.625,-0.546875 l 0,-1.625 c 0,-0.234375 0.3125,-0.609375 0.515625,-0.609375 0.046875,0 0.109375,0.046875 0.1875,0.109375 C 1.96875,-2.671875 2.0625,-2.625 2.15625,-2.625 c 0.171875,0 0.28125,-0.125 0.28125,-0.328125 z m 0,0"
               id="path20123" />
          </symbol>
        </g>
      </defs>
      <g
         id="g20125">
        <g
           style="fill:#000000;fill-opacity:1"
           id="g20127">
          <g
             id="g20129"
             transform="translate(223.562,134.765)">
            <path
               inkscape:connector-curvature="0"
               style="stroke:none"
               d="m 6.453125,-3.875 c 0,-0.296875 -0.21875,-0.515625 -0.515625,-0.515625 -0.234375,0 -0.390625,0.125 -0.390625,0.328125 0,0.140625 0.0625,0.21875 0.21875,0.359375 0.15625,0.15625 0.21875,0.25 0.21875,0.375 0,0.421875 -0.34375,0.953125 -1.640625,2.59375 L 4.015625,-4.25 C 4.015625,-4.359375 4,-4.390625 3.9375,-4.390625 c -0.046875,0 -0.078125,0.03125 -0.125,0.109375 L 1.890625,-1.25 C 1.859375,-2.140625 1.71875,-3.34375 1.578125,-4.0625 1.515625,-4.375 1.5,-4.390625 1.390625,-4.390625 0.875,-4.28125 0.15625,-4.15625 0.15625,-4.15625 l 0,0.125 0.296875,0 c 0.28125,0 0.359375,0.0625 0.4375,0.421875 C 1,-3.125 1.125,-1.96875 1.171875,-1.171875 l 0.03125,0.875 C 1.21875,0.09375 1.25,0.171875 1.328125,0.171875 1.453125,0.171875 2.5,-1.75 2.5,-1.75 L 3.375,-3.15625 3.703125,-0.125 C 3.71875,0.15625 3.734375,0.171875 3.8125,0.171875 3.890625,0.171875 4,0.078125 4.25,-0.25 L 4.34375,-0.359375 C 5.734375,-2.03125 6.453125,-3.234375 6.453125,-3.875 Z m 0,0"
               id="path20131" />
          </g>
        </g>
        <g
           style="fill:#000000;fill-opacity:1"
           id="g20133">
          <g
             id="g20135"
             transform="translate(230.207,136.259)">
            <path
               inkscape:connector-curvature="0"
               style="stroke:none"
               d="m 2.4375,-2.953125 c 0,-0.25 -0.15625,-0.390625 -0.40625,-0.390625 -0.296875,0 -0.515625,0.171875 -0.875,0.6875 l 0,-0.671875 L 1.125,-3.34375 c -0.390625,0.15625 -0.640625,0.25 -1.078125,0.390625 l 0,0.125 c 0.109375,-0.03125 0.171875,-0.03125 0.265625,-0.03125 0.171875,0 0.234375,0.109375 0.234375,0.4375 l 0,1.8125 c 0,0.359375 -0.046875,0.40625 -0.515625,0.5 l 0,0.109375 1.75,0 0,-0.109375 c -0.5,-0.015625 -0.625,-0.125 -0.625,-0.546875 l 0,-1.625 c 0,-0.234375 0.3125,-0.609375 0.515625,-0.609375 0.046875,0 0.109375,0.046875 0.1875,0.109375 C 1.96875,-2.671875 2.0625,-2.625 2.15625,-2.625 c 0.171875,0 0.28125,-0.125 0.28125,-0.328125 z m 0,0"
               id="path20137" />
          </g>
        </g>
      </g>
    </g>
    <path
       style="fill:none;stroke:#000000;stroke-width:0.70959836;stroke-linecap:butt;stroke-linejoin:miter;stroke-miterlimit:4;stroke-dasharray:none;stroke-opacity:1;marker-end:url(#marker18302)"
       d="m 486.5191,604.45633 0,-73.08682"
       id="path20139"
       inkscape:connector-curvature="0"
       sodipodi:nodetypes="cc" />
    <path
       sodipodi:nodetypes="cc"
       inkscape:connector-curvature="0"
       id="path20141"
       d="m 486.5191,527.84833 -72.47603,0.1792"
       style="fill:none;stroke:#000000;stroke-width:0.70959836;stroke-linecap:butt;stroke-linejoin:miter;stroke-miterlimit:4;stroke-dasharray:none;stroke-opacity:1;marker-end:url(#marker18340)" />
    <circle
       style="opacity:1;fill:none;fill-opacity:0.09411765;fill-rule:nonzero;stroke:#000300;stroke-width:4;stroke-linejoin:miter;stroke-miterlimit:4;stroke-dasharray:none;stroke-dashoffset:0;stroke-opacity:1"
       id="path4534"
       cx="339.64996"
       cy="675.7265"
       r="8.656889" />
    <circle
       r="8.656889"
       cy="614.29791"
       cx="331.07852"
       id="circle4536"
       style="opacity:1;fill:none;fill-opacity:0.09411765;fill-rule:nonzero;stroke:#000300;stroke-width:4;stroke-linejoin:miter;stroke-miterlimit:4;stroke-dasharray:none;stroke-dashoffset:0;stroke-opacity:1" />
    <circle
       style="opacity:1;fill:none;fill-opacity:0.09411765;fill-rule:nonzero;stroke:#000300;stroke-width:4;stroke-linejoin:miter;stroke-miterlimit:4;stroke-dasharray:none;stroke-dashoffset:0;stroke-opacity:1"
       id="circle4538"
       cx="440.68008"
       cy="675.41217"
       r="8.656889" />
    <circle
       r="8.656889"
       cy="506.71671"
       cx="608.06952"
       id="circle4540"
       style="opacity:1;fill:none;fill-opacity:0.09411765;fill-rule:nonzero;stroke:#000300;stroke-width:4;stroke-linejoin:miter;stroke-miterlimit:4;stroke-dasharray:none;stroke-dashoffset:0;stroke-opacity:1" />
    <circle
       r="8.656889"
       cy="670.36139"
       cx="561.89838"
       id="circle4542"
       style="opacity:1;fill:none;fill-opacity:0.09411765;fill-rule:nonzero;stroke:#000300;stroke-width:4;stroke-linejoin:miter;stroke-miterlimit:4;stroke-dasharray:none;stroke-dashoffset:0;stroke-opacity:1" />
    <circle
       style="opacity:1;fill:none;fill-opacity:0.09411765;fill-rule:nonzero;stroke:#000300;stroke-width:4;stroke-linejoin:miter;stroke-miterlimit:4;stroke-dasharray:none;stroke-dashoffset:0;stroke-opacity:1"
       id="circle4544"
       cx="253.80185"
       cy="500.65576"
       r="8.656889" />
    <circle
       style="opacity:1;fill:none;fill-opacity:0.09411765;fill-rule:nonzero;stroke:#000300;stroke-width:4;stroke-linejoin:miter;stroke-miterlimit:4;stroke-dasharray:none;stroke-dashoffset:0;stroke-opacity:1"
       id="circle4546"
       cx="408.35519"
       cy="602.42865"
       r="8.656889" />
    <path
       inkscape:connector-curvature="0"
       id="path4706"
       d="m 124.82089,619.43758 c -77.396604,-5.8854 -165.586604,-21.0414 -216.2612,-37.1657 -54.5845,-17.3685 -94.7931,-43.4631 -98.7335,-64.07612 -2.6006,-13.60408 41.5895,-61.62754 133.566096,-145.15231 20.4286,-18.55137 48.553,-46.17811 62.4986,-61.39274 51.68,-56.38249 60.7921,-73.54737 114.804304,-216.261271 31.4394,-83.070917 56.6094,-124.795167 87.07598,-144.345477 34.1878,-21.938286 71.7364,-11.0282 101.982,29.63184 17.6206,23.6879396 41.5054,74.59109 66.562,141.856498 50.5274,135.64321 66.657,158.67975 187.07711,267.18526 83.05651,74.83875 121.17954,117.23912 117.06583,130.20032 -2.87303,9.0521 -17.25906,24.0832 -32.26692,33.7137 -48.71165,31.2582 -155.79752,55.8724 -287.35672,66.0504 -42.4059,3.2807 -191.69008,3.1261 -236.01358,-0.2443 z"
       style="opacity:1;fill:url(#linearGradient4708);fill-opacity:1;fill-rule:nonzero;stroke:none;stroke-width:0.625;stroke-linejoin:miter;stroke-miterlimit:4;stroke-dasharray:none;stroke-dashoffset:0;stroke-opacity:1;filter:url(#filter14926)"
       transform="matrix(0.35479917,0,0,0.35479917,322.47065,422.96044)" />
  </g>
</svg>
